<?xml version="1.0" encoding="utf-8"?>
<svg xmlns="http://www.w3.org/2000/svg" id="svg5" viewBox="0 0 534.64 246.36">
	<path d="M192.95,116.35c0,23-4.31,40.67-12.92,53.02-8.61,12.35-20.93,18.53-36.96,18.53s-28.44-6.16-37.06-18.48c-8.61-12.32-12.92-30.07-12.92-53.25s4.31-40.62,12.92-52.88c8.61-12.26,21.03-18.38,37.24-18.38s28.31,6.16,36.87,18.48c8.55,12.32,12.83,29.98,12.83,52.97ZM119.5,116.35c0,15.84,2,27.9,5.99,36.2,3.99,8.3,9.85,12.44,17.58,12.44,15.58,0,23.37-16.21,23.37-48.65s-7.73-48.65-23.18-48.65c-7.85,0-13.78,4.13-17.77,12.4-3.99,8.27-5.99,20.35-5.99,36.25Z"/>
	<path d="M298.98,186h-25.85v-60.9h-34.11v60.9h-25.84V47.09h25.84v55.2h34.11v-55.2h25.85v138.91Z"/>
	<path d="M328.15,186V47.09h24.32v138.91h-24.32Z"/>
	<path d="M445.11,147.71c0,12.99-3.28,22.93-9.83,29.83-6.56,6.91-16.01,10.36-28.36,10.36s-22.39-2.37-30.88-7.13v-25.56c10.39,6.78,19.92,10.17,28.6,10.17,4.94,0,8.66-1.36,11.16-4.09,2.5-2.72,3.75-6.43,3.75-11.12s-1.49-8.85-4.47-12.69c-2.98-3.83-7.88-8.09-14.72-12.78-5.95-4.12-10.47-8.06-13.54-11.83-3.07-3.77-5.45-8-7.13-12.69-1.68-4.69-2.52-10.13-2.52-16.34,0-11.91,3.31-21.35,9.93-28.31,6.62-6.97,15.5-10.45,26.65-10.45s20.87,2.98,30.69,8.93l-8.55,20.72c-3.04-1.77-6.23-3.36-9.55-4.75-3.33-1.39-6.89-2.09-10.69-2.09-4.18,0-7.4,1.38-9.65,4.14-2.25,2.75-3.37,6.51-3.37,11.26s1.35,8.77,4.04,12.26c2.69,3.49,7.4,7.44,14.11,11.88,9.06,6.08,15.37,12.29,18.95,18.62,3.58,6.34,5.37,13.56,5.37,21.66Z"/>
	<path d="M85.53,0v6.1V.03c-24.6,0-44.71,20.13-44.72,44.73h18.18c0-14.76,11.77-26.54,26.54-26.55v.03h363.56V0H85.53ZM449.11.03v18.18c14.77,0,26.54,11.78,26.55,26.55h18.18c0-24.59-20.13-44.73-44.72-44.73h0ZM40.81,201.6c0,24.59,20.13,44.73,44.72,44.73v.03h220.99v-35.74h-78.4v17.5H85.53v.04c-14.77,0-26.54-11.78-26.55-26.55h-18.18ZM475.62,44.77v106.93h51.9c3.94,0,7.13-3.2,7.12-7.13v-71.3c0-3.93-3.19-7.12-7.12-7.12h-33.66v-21.38h-18.24ZM40.76,44.77v21.38H7.13c-3.94,0-7.13,3.19-7.13,7.12v71.28c-.01,3.94,3.17,7.14,7.11,7.15h33.65v49.88h18.27V44.77h-18.27Z"/>
</svg>
