M48
; DRILL file {KiCad 6.0.7-f9a2dced07~116~ubuntu20.04.1} date Tue 02 Aug 2022 05:22:42 PM PDT
; FORMAT={-:-/ absolute / inch / decimal}
; #@! TF.CreationDate,2022-08-02T17:22:42-07:00
; #@! TF.GenerationSoftware,Kicad,Pcbnew,6.0.7-f9a2dced07~116~ubuntu20.04.1
; #@! TF.FileFunction,Plated,1,2,PTH
FMAT,2
INCH
; #@! TA.AperFunction,Plated,PTH,ViaDrill
T1C0.0157
; #@! TA.AperFunction,Plated,PTH,ComponentDrill
T2C0.0236
; #@! TA.AperFunction,Plated,PTH,ComponentDrill
T3C0.0394
; #@! TA.AperFunction,Plated,PTH,ComponentDrill
T4C0.0472
; #@! TA.AperFunction,Plated,PTH,ComponentDrill
T5C0.0630
%
G90
G05
T1
X3.3Y-2.3
X3.3Y-2.5
X3.3Y-2.75
X3.3Y-3.0
X3.3Y-3.25
X3.3Y-3.5
X3.3Y-3.7
X3.5Y-2.3
X3.5Y-3.7
X3.525Y-3.075
X3.6Y-3.225
X3.65Y-3.0
X3.725Y-3.075
X3.75Y-2.3
X3.75Y-3.7
X3.925Y-2.95
X4.0Y-2.3
X4.0Y-3.7
X4.225Y-2.95
X4.25Y-2.3
X4.25Y-3.7
X4.35Y-3.075
X4.4Y-3.425
X4.425Y-3.7
X4.475Y-3.075
X4.475Y-3.325
X4.5Y-2.3
X4.575Y-2.95
X4.575Y-3.7
X4.7Y-3.7
X4.75Y-2.3
X4.775Y-3.275
X4.775Y-3.425
X4.775Y-3.7
X4.85Y-3.55
X4.9Y-2.625
X4.95Y-2.925
X4.95Y-3.05
X4.95Y-3.425
X4.95Y-3.7
X5.0Y-2.3
X5.025Y-2.7
X5.025Y-3.325
X5.075Y-2.575
X5.1Y-2.425
X5.101Y-3.624
X5.15Y-2.8
X5.15Y-2.9
X5.15Y-3.0
X5.2Y-3.125
X5.2Y-3.325
X5.2Y-3.45
X5.2Y-3.55
X5.25Y-2.3
X5.25Y-3.7
X5.275Y-2.65
X5.3Y-2.875
X5.3Y-3.125
X5.3Y-3.325
X5.3Y-3.45
X5.3Y-3.55
X5.325Y-2.45
X5.325Y-2.8
X5.375Y-2.6
X5.375Y-3.0
X5.45Y-3.425
X5.475Y-2.675
X5.475Y-2.875
X5.475Y-3.7
X5.5Y-2.3
X5.525Y-3.3
X5.625Y-3.7
X5.75Y-2.3
X5.95Y-2.3
X5.95Y-2.5
X5.95Y-2.75
X5.95Y-3.0
X5.95Y-3.25
X5.95Y-3.5
X5.95Y-3.7
T3
X5.2002Y-2.9502
X5.2002Y-3.0502
X5.3002Y-2.9502
X5.3002Y-3.0502
T4
X3.775Y-3.2839
X4.0998Y-3.5087
T5
X3.625Y-3.1087
X3.925Y-3.1087
T2
G00X4.4094Y-3.3602
M15
G01X4.4094Y-3.3366
M16
G05
G00X4.4094Y-3.5177
M15
G01X4.4094Y-3.4941
M16
G05
G00X4.4094Y-3.6358
M15
G01X4.4094Y-3.6122
M16
G05
G00X4.5906Y-3.3169
M15
G01X4.5906Y-3.2933
M16
G05
G00X4.7844Y-3.3602
M15
G01X4.7844Y-3.3366
M16
G05
G00X4.7844Y-3.5177
M15
G01X4.7844Y-3.4941
M16
G05
G00X4.7844Y-3.6358
M15
G01X4.7844Y-3.6122
M16
G05
G00X4.9656Y-3.3169
M15
G01X4.9656Y-3.2933
M16
G05
G00X5.4594Y-3.3602
M15
G01X5.4594Y-3.3366
M16
G05
G00X5.4594Y-3.5177
M15
G01X5.4594Y-3.4941
M16
G05
G00X5.4594Y-3.6358
M15
G01X5.4594Y-3.6122
M16
G05
G00X5.6406Y-3.3169
M15
G01X5.6406Y-3.2933
M16
G05
T0
M30
