%TF.GenerationSoftware,KiCad,Pcbnew,6.0.7-f9a2dced07~116~ubuntu20.04.1*%
%TF.CreationDate,2022-08-02T17:22:42-07:00*%
%TF.ProjectId,MicPreampTest,4d696350-7265-4616-9d70-546573742e6b,rev?*%
%TF.SameCoordinates,Original*%
%TF.FileFunction,Copper,L1,Top*%
%TF.FilePolarity,Positive*%
%FSLAX46Y46*%
G04 Gerber Fmt 4.6, Leading zero omitted, Abs format (unit mm)*
G04 Created by KiCad (PCBNEW 6.0.7-f9a2dced07~116~ubuntu20.04.1) date 2022-08-02 17:22:42*
%MOMM*%
%LPD*%
G01*
G04 APERTURE LIST*
G04 Aperture macros list*
%AMRoundRect*
0 Rectangle with rounded corners*
0 $1 Rounding radius*
0 $2 $3 $4 $5 $6 $7 $8 $9 X,Y pos of 4 corners*
0 Add a 4 corners polygon primitive as box body*
4,1,4,$2,$3,$4,$5,$6,$7,$8,$9,$2,$3,0*
0 Add four circle primitives for the rounded corners*
1,1,$1+$1,$2,$3*
1,1,$1+$1,$4,$5*
1,1,$1+$1,$6,$7*
1,1,$1+$1,$8,$9*
0 Add four rect primitives between the rounded corners*
20,1,$1+$1,$2,$3,$4,$5,0*
20,1,$1+$1,$4,$5,$6,$7,0*
20,1,$1+$1,$6,$7,$8,$9,0*
20,1,$1+$1,$8,$9,$2,$3,0*%
G04 Aperture macros list end*
%TA.AperFunction,ComponentPad*%
%ADD10R,1.700000X1.700000*%
%TD*%
%TA.AperFunction,ComponentPad*%
%ADD11O,1.700000X1.700000*%
%TD*%
%TA.AperFunction,SMDPad,CuDef*%
%ADD12RoundRect,0.237500X-0.237500X0.250000X-0.237500X-0.250000X0.237500X-0.250000X0.237500X0.250000X0*%
%TD*%
%TA.AperFunction,SMDPad,CuDef*%
%ADD13RoundRect,0.150000X0.150000X-0.587500X0.150000X0.587500X-0.150000X0.587500X-0.150000X-0.587500X0*%
%TD*%
%TA.AperFunction,ComponentPad*%
%ADD14O,1.100000X1.700000*%
%TD*%
%TA.AperFunction,ComponentPad*%
%ADD15C,3.400000*%
%TD*%
%TA.AperFunction,ComponentPad*%
%ADD16C,2.900000*%
%TD*%
%TA.AperFunction,SMDPad,CuDef*%
%ADD17RoundRect,0.237500X-0.300000X-0.237500X0.300000X-0.237500X0.300000X0.237500X-0.300000X0.237500X0*%
%TD*%
%TA.AperFunction,ViaPad*%
%ADD18C,0.800000*%
%TD*%
%TA.AperFunction,Conductor*%
%ADD19C,0.508000*%
%TD*%
G04 APERTURE END LIST*
D10*
%TO.P,J2,1,Pin_1*%
%TO.N,Mic HIS*%
X134625000Y-77475000D03*
D11*
%TO.P,J2,2,Pin_2*%
%TO.N,Mic In*%
X132085000Y-77475000D03*
%TO.P,J2,3,Pin_3*%
%TO.N,Amp Out*%
X134625000Y-74935000D03*
%TO.P,J2,4,Pin_4*%
%TO.N,Amp In*%
X132085000Y-74935000D03*
%TD*%
D12*
%TO.P,R3,1*%
%TO.N,Net-(Q1-Pad2)*%
X135255000Y-68302500D03*
%TO.P,R3,2*%
%TO.N,GND*%
X135255000Y-70127500D03*
%TD*%
%TO.P,R2,1*%
%TO.N,Net-(C1-Pad2)*%
X130810000Y-68302500D03*
%TO.P,R2,2*%
%TO.N,GND*%
X130810000Y-70127500D03*
%TD*%
%TO.P,R1,1*%
%TO.N,Amp Out*%
X130810000Y-63222500D03*
%TO.P,R1,2*%
%TO.N,Net-(C1-Pad2)*%
X130810000Y-65047500D03*
%TD*%
D13*
%TO.P,Q1,1,B*%
%TO.N,Net-(C1-Pad2)*%
X133035000Y-65707500D03*
%TO.P,Q1,2,E*%
%TO.N,Net-(Q1-Pad2)*%
X134935000Y-65707500D03*
%TO.P,Q1,3,C*%
%TO.N,Amp Out*%
X133985000Y-63832500D03*
%TD*%
D14*
%TO.P,J5,R2*%
%TO.N,GND*%
X112000000Y-92050000D03*
%TO.P,J5,R1*%
X112000000Y-89050000D03*
%TO.P,J5,T*%
%TO.N,Mic In*%
X112000000Y-85050000D03*
%TO.P,J5,S*%
%TO.N,GND*%
X116600000Y-83950000D03*
%TD*%
%TO.P,J4,R2*%
%TO.N,GND*%
X138670000Y-92050000D03*
%TO.P,J4,R1*%
%TO.N,Net-(J3-PadR1)*%
X138670000Y-89050000D03*
%TO.P,J4,T*%
%TO.N,Net-(J3-PadT)*%
X138670000Y-85050000D03*
%TO.P,J4,S*%
%TO.N,Mic HIS*%
X143270000Y-83950000D03*
%TD*%
%TO.P,J3,R2*%
%TO.N,GND*%
X121525000Y-92050000D03*
%TO.P,J3,R1*%
%TO.N,Net-(J3-PadR1)*%
X121525000Y-89050000D03*
%TO.P,J3,T*%
%TO.N,Net-(J3-PadT)*%
X121525000Y-85050000D03*
%TO.P,J3,S*%
%TO.N,unconnected-(J3-PadS)*%
X126125000Y-83950000D03*
%TD*%
D15*
%TO.P,J1,1*%
%TO.N,GND*%
X99695000Y-78960000D03*
%TO.P,J1,2*%
%TO.N,Mic In*%
X92075000Y-78960000D03*
D16*
%TO.P,J1,3*%
%TO.N,GND*%
X95885000Y-83410000D03*
%TO.P,J1,G*%
X104135000Y-89120000D03*
%TD*%
D17*
%TO.P,C1,1*%
%TO.N,Amp In*%
X126137500Y-66675000D03*
%TO.P,C1,2*%
%TO.N,Net-(C1-Pad2)*%
X127862500Y-66675000D03*
%TD*%
D18*
%TO.N,GND*%
X89535000Y-78105000D03*
X91440000Y-81915000D03*
X94615000Y-78105000D03*
X111760000Y-86995000D03*
X113665000Y-84455000D03*
X123190000Y-90170000D03*
X140335000Y-83820000D03*
X127635000Y-84455000D03*
X125730000Y-77470000D03*
X121285000Y-83185000D03*
X121285000Y-86995000D03*
X138430000Y-86995000D03*
X125730000Y-86995000D03*
X129565000Y-92050000D03*
X134620000Y-90170000D03*
X132080000Y-90170000D03*
X129540000Y-61595000D03*
X139065000Y-73025000D03*
X139065000Y-67945000D03*
X124460000Y-66675000D03*
X125730000Y-74295000D03*
X116205000Y-74930000D03*
X107315000Y-74930000D03*
X99695000Y-74930000D03*
X92710000Y-76200000D03*
X88900000Y-58420000D03*
X95250000Y-58420000D03*
X101600000Y-58420000D03*
X107950000Y-58420000D03*
X114300000Y-58420000D03*
X120650000Y-58420000D03*
X127000000Y-58420000D03*
X133350000Y-58420000D03*
X139700000Y-58420000D03*
X146050000Y-58420000D03*
X151130000Y-63500000D03*
X151130000Y-69850000D03*
X151130000Y-76200000D03*
X151130000Y-82550000D03*
X151130000Y-88900000D03*
X133350000Y-93980000D03*
X107950000Y-93980000D03*
X101600000Y-93980000D03*
X95250000Y-93980000D03*
X88900000Y-93980000D03*
X83820000Y-88900000D03*
X83820000Y-82550000D03*
X83820000Y-76200000D03*
X83820000Y-69850000D03*
X83820000Y-63500000D03*
X83820000Y-93980000D03*
X83820000Y-58420000D03*
X151130000Y-58420000D03*
X151130000Y-93980000D03*
X112395000Y-93980000D03*
X119380000Y-93980000D03*
X116205000Y-93980000D03*
X142875000Y-93980000D03*
X139065000Y-93980000D03*
X125730000Y-93980000D03*
X121285000Y-93980000D03*
X135255000Y-62230000D03*
X128905000Y-65405000D03*
X127635000Y-68580000D03*
X136525000Y-66040000D03*
X133985000Y-67310000D03*
X130810000Y-73660000D03*
X134620000Y-73025000D03*
X136525000Y-76200000D03*
X130810000Y-76200000D03*
X134620000Y-79375000D03*
X132080000Y-79375000D03*
X110490000Y-78105000D03*
X113665000Y-78105000D03*
X134620000Y-84455000D03*
X132080000Y-84455000D03*
X132080000Y-87630000D03*
X134620000Y-87630000D03*
X130810000Y-71120000D03*
X135255000Y-71120000D03*
%TD*%
D19*
%TO.N,GND*%
X129565000Y-92050000D02*
X121525000Y-92050000D01*
%TO.N,Mic HIS*%
X134625000Y-77475000D02*
X136530000Y-77475000D01*
X136530000Y-77475000D02*
X142240000Y-83185000D01*
X142240000Y-83185000D02*
X143270000Y-83950000D01*
%TO.N,Mic In*%
X111760000Y-76200000D02*
X126365000Y-76200000D01*
X126365000Y-76200000D02*
X127640000Y-77475000D01*
X127640000Y-77475000D02*
X132085000Y-77475000D01*
%TO.N,Amp Out*%
X134625000Y-74935000D02*
X137795000Y-71765000D01*
X137795000Y-71765000D02*
X137795000Y-65405000D01*
X137795000Y-65405000D02*
X136222500Y-63832500D01*
X136222500Y-63832500D02*
X133985000Y-63832500D01*
%TO.N,Amp In*%
X126137500Y-66675000D02*
X126137500Y-72162500D01*
X126137500Y-72162500D02*
X128910000Y-74935000D01*
X128910000Y-74935000D02*
X132085000Y-74935000D01*
%TO.N,GND*%
X138670000Y-92050000D02*
X129565000Y-92050000D01*
X135255000Y-70127500D02*
X135255000Y-71120000D01*
X130810000Y-70127500D02*
X130810000Y-71120000D01*
%TO.N,Mic In*%
X111760000Y-76200000D02*
X94835000Y-76200000D01*
X112000000Y-85050000D02*
X112000000Y-76440000D01*
X112000000Y-76440000D02*
X111760000Y-76200000D01*
X94835000Y-76200000D02*
X92075000Y-78960000D01*
%TO.N,Net-(J3-PadR1)*%
X121525000Y-89050000D02*
X138670000Y-89050000D01*
%TO.N,Net-(J3-PadT)*%
X125095000Y-85725000D02*
X135255000Y-85725000D01*
X121525000Y-85050000D02*
X124420000Y-85050000D01*
X124420000Y-85050000D02*
X125095000Y-85725000D01*
X135255000Y-85725000D02*
X135930000Y-85050000D01*
X135930000Y-85050000D02*
X138670000Y-85050000D01*
%TO.N,Net-(Q1-Pad2)*%
X135255000Y-68302500D02*
X135255000Y-66027500D01*
X135255000Y-66027500D02*
X134935000Y-65707500D01*
%TO.N,Amp Out*%
X130810000Y-63222500D02*
X133375000Y-63222500D01*
X133375000Y-63222500D02*
X133985000Y-63832500D01*
%TO.N,Net-(C1-Pad2)*%
X130810000Y-66675000D02*
X132067500Y-66675000D01*
X132067500Y-66675000D02*
X133035000Y-65707500D01*
X130810000Y-68302500D02*
X130810000Y-66675000D01*
X130810000Y-66675000D02*
X130810000Y-65047500D01*
X127862500Y-66675000D02*
X130810000Y-66675000D01*
%TD*%
%TA.AperFunction,Conductor*%
%TO.N,GND*%
G36*
X151833621Y-57678502D02*
G01*
X151880114Y-57732158D01*
X151891500Y-57784500D01*
X151891500Y-94615500D01*
X151871498Y-94683621D01*
X151817842Y-94730114D01*
X151765500Y-94741500D01*
X141962417Y-94741500D01*
X141894296Y-94721498D01*
X141847803Y-94667842D01*
X141837699Y-94597568D01*
X141871933Y-94527815D01*
X141948089Y-94449229D01*
X141948091Y-94449226D01*
X141951992Y-94445201D01*
X142077290Y-94258738D01*
X142167588Y-94053033D01*
X142220032Y-93834589D01*
X142232963Y-93610310D01*
X142205975Y-93387285D01*
X142139918Y-93172565D01*
X142109398Y-93113432D01*
X142039454Y-92977919D01*
X142039454Y-92977918D01*
X142036882Y-92972936D01*
X141900123Y-92794708D01*
X141733964Y-92643515D01*
X141729217Y-92640537D01*
X141729214Y-92640535D01*
X141548405Y-92527115D01*
X141543656Y-92524136D01*
X141335217Y-92440344D01*
X141115233Y-92394787D01*
X141110622Y-92394521D01*
X141110621Y-92394521D01*
X141060048Y-92391605D01*
X141060044Y-92391605D01*
X141058225Y-92391500D01*
X140913001Y-92391500D01*
X140910214Y-92391749D01*
X140910208Y-92391749D01*
X140840071Y-92398009D01*
X140746238Y-92406383D01*
X140740824Y-92407864D01*
X140740819Y-92407865D01*
X140626262Y-92439205D01*
X140529549Y-92465663D01*
X140524491Y-92468075D01*
X140524487Y-92468077D01*
X140428166Y-92514020D01*
X140326782Y-92562378D01*
X140144346Y-92693471D01*
X139988008Y-92854799D01*
X139862710Y-93041262D01*
X139772412Y-93246967D01*
X139771103Y-93252418D01*
X139771102Y-93252422D01*
X139741746Y-93374698D01*
X139719968Y-93465411D01*
X139707037Y-93689690D01*
X139734025Y-93912715D01*
X139800082Y-94127435D01*
X139802652Y-94132415D01*
X139802654Y-94132419D01*
X139867852Y-94258738D01*
X139903118Y-94327064D01*
X140039877Y-94505292D01*
X140044016Y-94509058D01*
X140044025Y-94509068D01*
X140058575Y-94522307D01*
X140095497Y-94582947D01*
X140093774Y-94653923D01*
X140053951Y-94712700D01*
X139988674Y-94740616D01*
X139973775Y-94741500D01*
X124817417Y-94741500D01*
X124749296Y-94721498D01*
X124702803Y-94667842D01*
X124692699Y-94597568D01*
X124726933Y-94527815D01*
X124803089Y-94449229D01*
X124803091Y-94449226D01*
X124806992Y-94445201D01*
X124932290Y-94258738D01*
X125022588Y-94053033D01*
X125075032Y-93834589D01*
X125087963Y-93610310D01*
X125060975Y-93387285D01*
X124994918Y-93172565D01*
X124964398Y-93113432D01*
X124894454Y-92977919D01*
X124894454Y-92977918D01*
X124891882Y-92972936D01*
X124755123Y-92794708D01*
X124588964Y-92643515D01*
X124584217Y-92640537D01*
X124584214Y-92640535D01*
X124403405Y-92527115D01*
X124398656Y-92524136D01*
X124190217Y-92440344D01*
X123991175Y-92399124D01*
X137612000Y-92399124D01*
X137612301Y-92405272D01*
X137626527Y-92550361D01*
X137628910Y-92562396D01*
X137685317Y-92749223D01*
X137689992Y-92760565D01*
X137781612Y-92932879D01*
X137788399Y-92943095D01*
X137911747Y-93094335D01*
X137920391Y-93103039D01*
X138070763Y-93227438D01*
X138080931Y-93234297D01*
X138252607Y-93327121D01*
X138263907Y-93331871D01*
X138398693Y-93373595D01*
X138412795Y-93373801D01*
X138416000Y-93367045D01*
X138416000Y-93360047D01*
X138924000Y-93360047D01*
X138927973Y-93373578D01*
X138935768Y-93374698D01*
X139062342Y-93337446D01*
X139073710Y-93332853D01*
X139246666Y-93242434D01*
X139256928Y-93235718D01*
X139409020Y-93113432D01*
X139417786Y-93104848D01*
X139543236Y-92955344D01*
X139550160Y-92945233D01*
X139644184Y-92774202D01*
X139649012Y-92762938D01*
X139708025Y-92576905D01*
X139710573Y-92564916D01*
X139727607Y-92413053D01*
X139728000Y-92406029D01*
X139728000Y-92322115D01*
X139723525Y-92306876D01*
X139722135Y-92305671D01*
X139714452Y-92304000D01*
X138942115Y-92304000D01*
X138926876Y-92308475D01*
X138925671Y-92309865D01*
X138924000Y-92317548D01*
X138924000Y-93360047D01*
X138416000Y-93360047D01*
X138416000Y-92322115D01*
X138411525Y-92306876D01*
X138410135Y-92305671D01*
X138402452Y-92304000D01*
X137630115Y-92304000D01*
X137614876Y-92308475D01*
X137613671Y-92309865D01*
X137612000Y-92317548D01*
X137612000Y-92399124D01*
X123991175Y-92399124D01*
X123970233Y-92394787D01*
X123965622Y-92394521D01*
X123965621Y-92394521D01*
X123915048Y-92391605D01*
X123915044Y-92391605D01*
X123913225Y-92391500D01*
X123768001Y-92391500D01*
X123765214Y-92391749D01*
X123765208Y-92391749D01*
X123695071Y-92398009D01*
X123601238Y-92406383D01*
X123595824Y-92407864D01*
X123595819Y-92407865D01*
X123481262Y-92439205D01*
X123384549Y-92465663D01*
X123379491Y-92468075D01*
X123379487Y-92468077D01*
X123283166Y-92514020D01*
X123181782Y-92562378D01*
X122999346Y-92693471D01*
X122843008Y-92854799D01*
X122717710Y-93041262D01*
X122627412Y-93246967D01*
X122626103Y-93252418D01*
X122626102Y-93252422D01*
X122596746Y-93374698D01*
X122574968Y-93465411D01*
X122562037Y-93689690D01*
X122589025Y-93912715D01*
X122655082Y-94127435D01*
X122657652Y-94132415D01*
X122657654Y-94132419D01*
X122722852Y-94258738D01*
X122758118Y-94327064D01*
X122894877Y-94505292D01*
X122899016Y-94509058D01*
X122899025Y-94509068D01*
X122913575Y-94522307D01*
X122950497Y-94582947D01*
X122948774Y-94653923D01*
X122908951Y-94712700D01*
X122843674Y-94740616D01*
X122828775Y-94741500D01*
X120776000Y-94741500D01*
X120707879Y-94721498D01*
X120661386Y-94667842D01*
X120650000Y-94615500D01*
X120650000Y-93267070D01*
X120670002Y-93198949D01*
X120723658Y-93152456D01*
X120793932Y-93142352D01*
X120856316Y-93169986D01*
X120925763Y-93227438D01*
X120935931Y-93234297D01*
X121107607Y-93327121D01*
X121118907Y-93331871D01*
X121253693Y-93373595D01*
X121267795Y-93373801D01*
X121271000Y-93367045D01*
X121271000Y-93360047D01*
X121779000Y-93360047D01*
X121782973Y-93373578D01*
X121790768Y-93374698D01*
X121917342Y-93337446D01*
X121928710Y-93332853D01*
X122101666Y-93242434D01*
X122111928Y-93235718D01*
X122264020Y-93113432D01*
X122272786Y-93104848D01*
X122398236Y-92955344D01*
X122405160Y-92945233D01*
X122499184Y-92774202D01*
X122504012Y-92762938D01*
X122563025Y-92576905D01*
X122565573Y-92564916D01*
X122582607Y-92413053D01*
X122583000Y-92406029D01*
X122583000Y-92322115D01*
X122578525Y-92306876D01*
X122577135Y-92305671D01*
X122569452Y-92304000D01*
X121797115Y-92304000D01*
X121781876Y-92308475D01*
X121780671Y-92309865D01*
X121779000Y-92317548D01*
X121779000Y-93360047D01*
X121271000Y-93360047D01*
X121271000Y-91566000D01*
X121291002Y-91497879D01*
X121344658Y-91451386D01*
X121397000Y-91440000D01*
X121653000Y-91440000D01*
X121721121Y-91460002D01*
X121767614Y-91513658D01*
X121779000Y-91566000D01*
X121779000Y-91777885D01*
X121783475Y-91793124D01*
X121784865Y-91794329D01*
X121792548Y-91796000D01*
X122564885Y-91796000D01*
X122580124Y-91791525D01*
X122581329Y-91790135D01*
X122583000Y-91782452D01*
X122583000Y-91700876D01*
X122582700Y-91694730D01*
X122571283Y-91578296D01*
X122584542Y-91508548D01*
X122633405Y-91457041D01*
X122696682Y-91440000D01*
X137499168Y-91440000D01*
X137567289Y-91460002D01*
X137613782Y-91513658D01*
X137624383Y-91580044D01*
X137612393Y-91686945D01*
X137612000Y-91693971D01*
X137612000Y-91777885D01*
X137616475Y-91793124D01*
X137617865Y-91794329D01*
X137625548Y-91796000D01*
X138397885Y-91796000D01*
X138413124Y-91791525D01*
X138414329Y-91790135D01*
X138416000Y-91782452D01*
X138416000Y-91777885D01*
X138924000Y-91777885D01*
X138928475Y-91793124D01*
X138929865Y-91794329D01*
X138937548Y-91796000D01*
X139709885Y-91796000D01*
X139725124Y-91791525D01*
X139726329Y-91790135D01*
X139728000Y-91782452D01*
X139728000Y-91700876D01*
X139727699Y-91694728D01*
X139715734Y-91572703D01*
X146480743Y-91572703D01*
X146518268Y-91857734D01*
X146594129Y-92135036D01*
X146595813Y-92138984D01*
X146703566Y-92391605D01*
X146706923Y-92399476D01*
X146854561Y-92646161D01*
X147034313Y-92870528D01*
X147242851Y-93068423D01*
X147476317Y-93236186D01*
X147480112Y-93238195D01*
X147480113Y-93238196D01*
X147501869Y-93249715D01*
X147730392Y-93370712D01*
X148000373Y-93469511D01*
X148281264Y-93530755D01*
X148309841Y-93533004D01*
X148504282Y-93548307D01*
X148504291Y-93548307D01*
X148506739Y-93548500D01*
X148662271Y-93548500D01*
X148664407Y-93548354D01*
X148664418Y-93548354D01*
X148872548Y-93534165D01*
X148872554Y-93534164D01*
X148876825Y-93533873D01*
X148881020Y-93533004D01*
X148881022Y-93533004D01*
X149017583Y-93504724D01*
X149158342Y-93475574D01*
X149429343Y-93379607D01*
X149684812Y-93247750D01*
X149688313Y-93245289D01*
X149688317Y-93245287D01*
X149890715Y-93103039D01*
X149920023Y-93082441D01*
X150042651Y-92968488D01*
X150127479Y-92889661D01*
X150127481Y-92889658D01*
X150130622Y-92886740D01*
X150312713Y-92664268D01*
X150462927Y-92419142D01*
X150578483Y-92155898D01*
X150657244Y-91879406D01*
X150697751Y-91594784D01*
X150697829Y-91580044D01*
X150699235Y-91311583D01*
X150699235Y-91311576D01*
X150699257Y-91307297D01*
X150661732Y-91022266D01*
X150657191Y-91005665D01*
X150618901Y-90865703D01*
X150585871Y-90744964D01*
X150473077Y-90480524D01*
X150325439Y-90233839D01*
X150145687Y-90009472D01*
X150008563Y-89879346D01*
X149940258Y-89814527D01*
X149940255Y-89814525D01*
X149937149Y-89811577D01*
X149703683Y-89643814D01*
X149681843Y-89632250D01*
X149554863Y-89565018D01*
X149449608Y-89509288D01*
X149314617Y-89459888D01*
X149183658Y-89411964D01*
X149183656Y-89411963D01*
X149179627Y-89410489D01*
X148898736Y-89349245D01*
X148867685Y-89346801D01*
X148675718Y-89331693D01*
X148675709Y-89331693D01*
X148673261Y-89331500D01*
X148517729Y-89331500D01*
X148515593Y-89331646D01*
X148515582Y-89331646D01*
X148307452Y-89345835D01*
X148307446Y-89345836D01*
X148303175Y-89346127D01*
X148298980Y-89346996D01*
X148298978Y-89346996D01*
X148162417Y-89375276D01*
X148021658Y-89404426D01*
X147750657Y-89500393D01*
X147495188Y-89632250D01*
X147491687Y-89634711D01*
X147491683Y-89634713D01*
X147481594Y-89641804D01*
X147259977Y-89797559D01*
X147222374Y-89832502D01*
X147089874Y-89955629D01*
X147049378Y-89993260D01*
X146867287Y-90215732D01*
X146717073Y-90460858D01*
X146601517Y-90724102D01*
X146600342Y-90728229D01*
X146600341Y-90728230D01*
X146582792Y-90789836D01*
X146522756Y-91000594D01*
X146482249Y-91285216D01*
X146482227Y-91289505D01*
X146482226Y-91289512D01*
X146480778Y-91566000D01*
X146480743Y-91572703D01*
X139715734Y-91572703D01*
X139713473Y-91549639D01*
X139711090Y-91537604D01*
X139654683Y-91350777D01*
X139650008Y-91339435D01*
X139558388Y-91167121D01*
X139551601Y-91156905D01*
X139428253Y-91005665D01*
X139419609Y-90996961D01*
X139269237Y-90872562D01*
X139259069Y-90865703D01*
X139087393Y-90772879D01*
X139076093Y-90768129D01*
X138941307Y-90726405D01*
X138927205Y-90726199D01*
X138924000Y-90732955D01*
X138924000Y-91777885D01*
X138416000Y-91777885D01*
X138416000Y-91495359D01*
X138424554Y-91466225D01*
X138421493Y-91465559D01*
X138427053Y-91440000D01*
X138430000Y-91440000D01*
X138430000Y-90805000D01*
X138424681Y-90805000D01*
X138421104Y-90792818D01*
X138416000Y-90757320D01*
X138416000Y-90739953D01*
X138412027Y-90726422D01*
X138404232Y-90725302D01*
X138277658Y-90762554D01*
X138266294Y-90767145D01*
X138221311Y-90790662D01*
X138162935Y-90805000D01*
X134111000Y-90805000D01*
X134042879Y-90784998D01*
X133996386Y-90731342D01*
X133985000Y-90679000D01*
X133985000Y-89938500D01*
X134005002Y-89870379D01*
X134058658Y-89823886D01*
X134111000Y-89812500D01*
X137641330Y-89812500D01*
X137709451Y-89832502D01*
X137752581Y-89879346D01*
X137781046Y-89932879D01*
X137784087Y-89938599D01*
X137826285Y-89990339D01*
X137911390Y-90094689D01*
X137911393Y-90094692D01*
X137915285Y-90099464D01*
X137920033Y-90103392D01*
X137920034Y-90103393D01*
X137934391Y-90115270D01*
X138075230Y-90231783D01*
X138080647Y-90234712D01*
X138080650Y-90234714D01*
X138252410Y-90327584D01*
X138252415Y-90327586D01*
X138257830Y-90330514D01*
X138456129Y-90391898D01*
X138462254Y-90392542D01*
X138462255Y-90392542D01*
X138656446Y-90412952D01*
X138656448Y-90412952D01*
X138662575Y-90413596D01*
X138748485Y-90405777D01*
X138863164Y-90395341D01*
X138863167Y-90395340D01*
X138869303Y-90394782D01*
X138875209Y-90393044D01*
X138875213Y-90393043D01*
X139062531Y-90337912D01*
X139062530Y-90337912D01*
X139068440Y-90336173D01*
X139252400Y-90240001D01*
X139414177Y-90109929D01*
X139418441Y-90104848D01*
X139543650Y-89955629D01*
X139547609Y-89950911D01*
X139550573Y-89945519D01*
X139550576Y-89945515D01*
X139644646Y-89774402D01*
X139647613Y-89769005D01*
X139710379Y-89571139D01*
X139711350Y-89562489D01*
X139728107Y-89413087D01*
X139728500Y-89409587D01*
X139728500Y-88697763D01*
X139728129Y-88693971D01*
X139713966Y-88549534D01*
X139713965Y-88549531D01*
X139713365Y-88543408D01*
X139673526Y-88411454D01*
X139655152Y-88350593D01*
X139655151Y-88350590D01*
X139653368Y-88344685D01*
X139646089Y-88330995D01*
X139558809Y-88166847D01*
X139558808Y-88166845D01*
X139555913Y-88161401D01*
X139507083Y-88101529D01*
X139428610Y-88005311D01*
X139428607Y-88005308D01*
X139424715Y-88000536D01*
X139417770Y-87994790D01*
X139269518Y-87872145D01*
X139269519Y-87872145D01*
X139264770Y-87868217D01*
X139259353Y-87865288D01*
X139259350Y-87865286D01*
X139087590Y-87772416D01*
X139087585Y-87772414D01*
X139082170Y-87769486D01*
X138883871Y-87708102D01*
X138877746Y-87707458D01*
X138877745Y-87707458D01*
X138683554Y-87687048D01*
X138683552Y-87687048D01*
X138677425Y-87686404D01*
X138591515Y-87694223D01*
X138476836Y-87704659D01*
X138476833Y-87704660D01*
X138470697Y-87705218D01*
X138464791Y-87706956D01*
X138464787Y-87706957D01*
X138360597Y-87737622D01*
X138271560Y-87763827D01*
X138087600Y-87859999D01*
X137925823Y-87990071D01*
X137921865Y-87994788D01*
X137921863Y-87994790D01*
X137917042Y-88000536D01*
X137792391Y-88149089D01*
X137789425Y-88154485D01*
X137789419Y-88154493D01*
X137752196Y-88222201D01*
X137701851Y-88272260D01*
X137641782Y-88287500D01*
X134111000Y-88287500D01*
X134042879Y-88267498D01*
X133996386Y-88213842D01*
X133985000Y-88161500D01*
X133985000Y-86689690D01*
X139707037Y-86689690D01*
X139734025Y-86912715D01*
X139800082Y-87127435D01*
X139802652Y-87132415D01*
X139802654Y-87132419D01*
X139867852Y-87258738D01*
X139903118Y-87327064D01*
X140039877Y-87505292D01*
X140206036Y-87656485D01*
X140210783Y-87659463D01*
X140210786Y-87659465D01*
X140390847Y-87772416D01*
X140396344Y-87775864D01*
X140604783Y-87859656D01*
X140824767Y-87905213D01*
X140829378Y-87905479D01*
X140829379Y-87905479D01*
X140879952Y-87908395D01*
X140879956Y-87908395D01*
X140881775Y-87908500D01*
X141026999Y-87908500D01*
X141029786Y-87908251D01*
X141029792Y-87908251D01*
X141099929Y-87901991D01*
X141193762Y-87893617D01*
X141199176Y-87892136D01*
X141199181Y-87892135D01*
X141327080Y-87857145D01*
X141410451Y-87834337D01*
X141415509Y-87831925D01*
X141415513Y-87831923D01*
X141533042Y-87775864D01*
X141613218Y-87737622D01*
X141795654Y-87606529D01*
X141951992Y-87445201D01*
X142077290Y-87258738D01*
X142167588Y-87053033D01*
X142220032Y-86834589D01*
X142232963Y-86610310D01*
X142205975Y-86387285D01*
X142139918Y-86172565D01*
X142107590Y-86109929D01*
X142039454Y-85977919D01*
X142039454Y-85977918D01*
X142036882Y-85972936D01*
X141900123Y-85794708D01*
X141733964Y-85643515D01*
X141729217Y-85640537D01*
X141729214Y-85640535D01*
X141548405Y-85527115D01*
X141543656Y-85524136D01*
X141335217Y-85440344D01*
X141115233Y-85394787D01*
X141110622Y-85394521D01*
X141110621Y-85394521D01*
X141060048Y-85391605D01*
X141060044Y-85391605D01*
X141058225Y-85391500D01*
X140913001Y-85391500D01*
X140910214Y-85391749D01*
X140910208Y-85391749D01*
X140840071Y-85398009D01*
X140746238Y-85406383D01*
X140740824Y-85407864D01*
X140740819Y-85407865D01*
X140626262Y-85439205D01*
X140529549Y-85465663D01*
X140524491Y-85468075D01*
X140524487Y-85468077D01*
X140428165Y-85514021D01*
X140326782Y-85562378D01*
X140144346Y-85693471D01*
X140140439Y-85697503D01*
X140026209Y-85815379D01*
X139988008Y-85854799D01*
X139862710Y-86041262D01*
X139772412Y-86246967D01*
X139771103Y-86252418D01*
X139771102Y-86252422D01*
X139730147Y-86423013D01*
X139719968Y-86465411D01*
X139718456Y-86491631D01*
X139711609Y-86610400D01*
X139707037Y-86689690D01*
X133985000Y-86689690D01*
X133985000Y-86613500D01*
X134005002Y-86545379D01*
X134058658Y-86498886D01*
X134111000Y-86487500D01*
X135187624Y-86487500D01*
X135206574Y-86488933D01*
X135220973Y-86491124D01*
X135220979Y-86491124D01*
X135228208Y-86492224D01*
X135235500Y-86491631D01*
X135235503Y-86491631D01*
X135281183Y-86487915D01*
X135291398Y-86487500D01*
X135299525Y-86487500D01*
X135303161Y-86487076D01*
X135303163Y-86487076D01*
X135306615Y-86486673D01*
X135327924Y-86484189D01*
X135332244Y-86483762D01*
X135405426Y-86477809D01*
X135412388Y-86475553D01*
X135418376Y-86474357D01*
X135424333Y-86472949D01*
X135431607Y-86472101D01*
X135438489Y-86469603D01*
X135438493Y-86469602D01*
X135500607Y-86447055D01*
X135504711Y-86445645D01*
X135574575Y-86423013D01*
X135580838Y-86419213D01*
X135586380Y-86416675D01*
X135591856Y-86413933D01*
X135598741Y-86411434D01*
X135635575Y-86387285D01*
X135660132Y-86371185D01*
X135663800Y-86368870D01*
X135726581Y-86330773D01*
X135730786Y-86327059D01*
X135730789Y-86327057D01*
X135735005Y-86323333D01*
X135735031Y-86323362D01*
X135737962Y-86320762D01*
X135741316Y-86317958D01*
X135747435Y-86313946D01*
X135800989Y-86257413D01*
X135803366Y-86254972D01*
X136208933Y-85849405D01*
X136271245Y-85815379D01*
X136298028Y-85812500D01*
X137641330Y-85812500D01*
X137709451Y-85832502D01*
X137752581Y-85879346D01*
X137784087Y-85938599D01*
X137798631Y-85956432D01*
X137911390Y-86094689D01*
X137911393Y-86094692D01*
X137915285Y-86099464D01*
X137920033Y-86103392D01*
X137920034Y-86103393D01*
X137997624Y-86167581D01*
X138075230Y-86231783D01*
X138080647Y-86234712D01*
X138080650Y-86234714D01*
X138252410Y-86327584D01*
X138252415Y-86327586D01*
X138257830Y-86330514D01*
X138456129Y-86391898D01*
X138462254Y-86392542D01*
X138462255Y-86392542D01*
X138656446Y-86412952D01*
X138656448Y-86412952D01*
X138662575Y-86413596D01*
X138748485Y-86405777D01*
X138863164Y-86395341D01*
X138863167Y-86395340D01*
X138869303Y-86394782D01*
X138875209Y-86393044D01*
X138875213Y-86393043D01*
X139062531Y-86337912D01*
X139062530Y-86337912D01*
X139068440Y-86336173D01*
X139252400Y-86240001D01*
X139414177Y-86109929D01*
X139419662Y-86103393D01*
X139543650Y-85955629D01*
X139547609Y-85950911D01*
X139550573Y-85945519D01*
X139550576Y-85945515D01*
X139644646Y-85774402D01*
X139647613Y-85769005D01*
X139710379Y-85571139D01*
X139711350Y-85562489D01*
X139728107Y-85413087D01*
X139728500Y-85409587D01*
X139728500Y-84697763D01*
X139727780Y-84690413D01*
X139713966Y-84549534D01*
X139713965Y-84549531D01*
X139713365Y-84543408D01*
X139659150Y-84363837D01*
X139655152Y-84350593D01*
X139655151Y-84350590D01*
X139653368Y-84344685D01*
X139649212Y-84336868D01*
X139558809Y-84166847D01*
X139558807Y-84166844D01*
X139555913Y-84161401D01*
X139452145Y-84034168D01*
X139428610Y-84005311D01*
X139428607Y-84005308D01*
X139424715Y-84000536D01*
X139417770Y-83994790D01*
X139269518Y-83872145D01*
X139269519Y-83872145D01*
X139264770Y-83868217D01*
X139259353Y-83865288D01*
X139259350Y-83865286D01*
X139087590Y-83772416D01*
X139087585Y-83772414D01*
X139082170Y-83769486D01*
X138883871Y-83708102D01*
X138877746Y-83707458D01*
X138877745Y-83707458D01*
X138683554Y-83687048D01*
X138683552Y-83687048D01*
X138677425Y-83686404D01*
X138621156Y-83691525D01*
X138476836Y-83704659D01*
X138476833Y-83704660D01*
X138470697Y-83705218D01*
X138464791Y-83706956D01*
X138464787Y-83706957D01*
X138340238Y-83743614D01*
X138271560Y-83763827D01*
X138087600Y-83859999D01*
X137925823Y-83990071D01*
X137921865Y-83994788D01*
X137921863Y-83994790D01*
X137907500Y-84011907D01*
X137792391Y-84149089D01*
X137789425Y-84154485D01*
X137789419Y-84154493D01*
X137752196Y-84222201D01*
X137701851Y-84272260D01*
X137641782Y-84287500D01*
X135997368Y-84287500D01*
X135978420Y-84286067D01*
X135971033Y-84284943D01*
X135964024Y-84283877D01*
X135964022Y-84283877D01*
X135956792Y-84282777D01*
X135949500Y-84283370D01*
X135949497Y-84283370D01*
X135903825Y-84287085D01*
X135893611Y-84287500D01*
X135885475Y-84287500D01*
X135857056Y-84290814D01*
X135852729Y-84291241D01*
X135817987Y-84294067D01*
X135786874Y-84296597D01*
X135786872Y-84296597D01*
X135779574Y-84297191D01*
X135772607Y-84299448D01*
X135766607Y-84300647D01*
X135760667Y-84302051D01*
X135753393Y-84302899D01*
X135746511Y-84305397D01*
X135746507Y-84305398D01*
X135684393Y-84327945D01*
X135680289Y-84329355D01*
X135610425Y-84351987D01*
X135604162Y-84355787D01*
X135598620Y-84358325D01*
X135593144Y-84361067D01*
X135586259Y-84363566D01*
X135580135Y-84367581D01*
X135524868Y-84403815D01*
X135521200Y-84406130D01*
X135458419Y-84444227D01*
X135454212Y-84447943D01*
X135454208Y-84447946D01*
X135449995Y-84451668D01*
X135449969Y-84451638D01*
X135447041Y-84454236D01*
X135443687Y-84457040D01*
X135437565Y-84461054D01*
X135411365Y-84488712D01*
X135384014Y-84517584D01*
X135381636Y-84520027D01*
X134976066Y-84925596D01*
X134913754Y-84959621D01*
X134886971Y-84962500D01*
X134111000Y-84962500D01*
X134042879Y-84942498D01*
X133996386Y-84888842D01*
X133985000Y-84836500D01*
X133985000Y-78959500D01*
X134005002Y-78891379D01*
X134058658Y-78844886D01*
X134111000Y-78833500D01*
X135523134Y-78833500D01*
X135585316Y-78826745D01*
X135721705Y-78775615D01*
X135838261Y-78688261D01*
X135925615Y-78571705D01*
X135976745Y-78435316D01*
X135983500Y-78373134D01*
X135983500Y-78363500D01*
X136003502Y-78295379D01*
X136057158Y-78248886D01*
X136109500Y-78237500D01*
X136161972Y-78237500D01*
X136230093Y-78257502D01*
X136251067Y-78274405D01*
X141671269Y-83694607D01*
X141679190Y-83703304D01*
X141709597Y-83739997D01*
X141718188Y-83747244D01*
X141773800Y-83788548D01*
X141776805Y-83790853D01*
X141836600Y-83838160D01*
X141843231Y-83841259D01*
X141847788Y-83844074D01*
X141856691Y-83850113D01*
X142160631Y-84075854D01*
X142203389Y-84132526D01*
X142211500Y-84177004D01*
X142211500Y-84302237D01*
X142211800Y-84305293D01*
X142211800Y-84305300D01*
X142225787Y-84447946D01*
X142226635Y-84456592D01*
X142260039Y-84567233D01*
X142284793Y-84649223D01*
X142286632Y-84655315D01*
X142289527Y-84660760D01*
X142289528Y-84660762D01*
X142381046Y-84832879D01*
X142384087Y-84838599D01*
X142425064Y-84888842D01*
X142511390Y-84994689D01*
X142511393Y-84994692D01*
X142515285Y-84999464D01*
X142520033Y-85003392D01*
X142520034Y-85003393D01*
X142538090Y-85018330D01*
X142675230Y-85131783D01*
X142680647Y-85134712D01*
X142680650Y-85134714D01*
X142852410Y-85227584D01*
X142852415Y-85227586D01*
X142857830Y-85230514D01*
X143056129Y-85291898D01*
X143062254Y-85292542D01*
X143062255Y-85292542D01*
X143256446Y-85312952D01*
X143256448Y-85312952D01*
X143262575Y-85313596D01*
X143348485Y-85305777D01*
X143463164Y-85295341D01*
X143463167Y-85295340D01*
X143469303Y-85294782D01*
X143475209Y-85293044D01*
X143475213Y-85293043D01*
X143662531Y-85237912D01*
X143662530Y-85237912D01*
X143668440Y-85236173D01*
X143852400Y-85140001D01*
X144014177Y-85009929D01*
X144018441Y-85004848D01*
X144143650Y-84855629D01*
X144147609Y-84850911D01*
X144150573Y-84845519D01*
X144150576Y-84845515D01*
X144244646Y-84674402D01*
X144247613Y-84669005D01*
X144310379Y-84471139D01*
X144311350Y-84462489D01*
X144325440Y-84336868D01*
X144328500Y-84309587D01*
X144328500Y-83597763D01*
X144328129Y-83593971D01*
X144313966Y-83449534D01*
X144313965Y-83449531D01*
X144313365Y-83443408D01*
X144273526Y-83311454D01*
X144255152Y-83250593D01*
X144255151Y-83250590D01*
X144253368Y-83244685D01*
X144246089Y-83230995D01*
X144158809Y-83066847D01*
X144158808Y-83066845D01*
X144155913Y-83061401D01*
X144107083Y-83001529D01*
X144028610Y-82905311D01*
X144028607Y-82905308D01*
X144024715Y-82900536D01*
X144017770Y-82894790D01*
X143869518Y-82772145D01*
X143869519Y-82772145D01*
X143864770Y-82768217D01*
X143859353Y-82765288D01*
X143859350Y-82765286D01*
X143687590Y-82672416D01*
X143687585Y-82672414D01*
X143682170Y-82669486D01*
X143483871Y-82608102D01*
X143477746Y-82607458D01*
X143477745Y-82607458D01*
X143283554Y-82587048D01*
X143283552Y-82587048D01*
X143277425Y-82586404D01*
X143191515Y-82594223D01*
X143076836Y-82604659D01*
X143076833Y-82604660D01*
X143070697Y-82605218D01*
X143064791Y-82606956D01*
X143064787Y-82606957D01*
X142976454Y-82632955D01*
X142892830Y-82657567D01*
X142821835Y-82657612D01*
X142782129Y-82637845D01*
X142747007Y-82611759D01*
X142733041Y-82599703D01*
X137116810Y-76983472D01*
X137104423Y-76969059D01*
X137095795Y-76957335D01*
X137091454Y-76951436D01*
X137050945Y-76917021D01*
X137043429Y-76910091D01*
X137037685Y-76904347D01*
X137034811Y-76902073D01*
X137034804Y-76902067D01*
X137015289Y-76886628D01*
X137011885Y-76883837D01*
X136961528Y-76841055D01*
X136961524Y-76841052D01*
X136955949Y-76836316D01*
X136949432Y-76832988D01*
X136944368Y-76829611D01*
X136939144Y-76826384D01*
X136933400Y-76821840D01*
X136907109Y-76809552D01*
X136866918Y-76790768D01*
X136862967Y-76788837D01*
X136804117Y-76758787D01*
X136797596Y-76755457D01*
X136790481Y-76753716D01*
X136784735Y-76751579D01*
X136778952Y-76749655D01*
X136772321Y-76746556D01*
X136700443Y-76731606D01*
X136696171Y-76730639D01*
X136624888Y-76713196D01*
X136619289Y-76712849D01*
X136619285Y-76712848D01*
X136613670Y-76712500D01*
X136613672Y-76712461D01*
X136609771Y-76712228D01*
X136605412Y-76711839D01*
X136598244Y-76710348D01*
X136590927Y-76710546D01*
X136520423Y-76712454D01*
X136517014Y-76712500D01*
X136109500Y-76712500D01*
X136041379Y-76692498D01*
X135994886Y-76638842D01*
X135983500Y-76586500D01*
X135983500Y-76576866D01*
X135976745Y-76514684D01*
X135925615Y-76378295D01*
X135838261Y-76261739D01*
X135721705Y-76174385D01*
X135694905Y-76164338D01*
X135603203Y-76129960D01*
X135546439Y-76087318D01*
X135521739Y-76020756D01*
X135536947Y-75951408D01*
X135558493Y-75922727D01*
X135659435Y-75822137D01*
X135663096Y-75818489D01*
X135749840Y-75697772D01*
X135790435Y-75641277D01*
X135793453Y-75637077D01*
X135795991Y-75631943D01*
X135890136Y-75441453D01*
X135890137Y-75441451D01*
X135892430Y-75436811D01*
X135957370Y-75223069D01*
X135986529Y-75001590D01*
X135988156Y-74935000D01*
X135971300Y-74729975D01*
X135985653Y-74660446D01*
X136007781Y-74630557D01*
X138286528Y-72351810D01*
X138300941Y-72339423D01*
X138312665Y-72330795D01*
X138318564Y-72326454D01*
X138352979Y-72285945D01*
X138359909Y-72278429D01*
X138365653Y-72272685D01*
X138367927Y-72269811D01*
X138367933Y-72269804D01*
X138383372Y-72250289D01*
X138386163Y-72246885D01*
X138428945Y-72196528D01*
X138428948Y-72196524D01*
X138433684Y-72190949D01*
X138437012Y-72184432D01*
X138440389Y-72179368D01*
X138443616Y-72174144D01*
X138448160Y-72168400D01*
X138466821Y-72128473D01*
X138479232Y-72101918D01*
X138481163Y-72097967D01*
X138511213Y-72039117D01*
X138514543Y-72032596D01*
X138516284Y-72025481D01*
X138518421Y-72019735D01*
X138520345Y-72013952D01*
X138523444Y-72007321D01*
X138538394Y-71935443D01*
X138539363Y-71931162D01*
X138555470Y-71865339D01*
X138556804Y-71859888D01*
X138557500Y-71848670D01*
X138557539Y-71848672D01*
X138557772Y-71844771D01*
X138558161Y-71840412D01*
X138559652Y-71833244D01*
X138557546Y-71755423D01*
X138557500Y-71752014D01*
X138557500Y-65472376D01*
X138558933Y-65453426D01*
X138561124Y-65439027D01*
X138561124Y-65439021D01*
X138562224Y-65431792D01*
X138557915Y-65378817D01*
X138557500Y-65368602D01*
X138557500Y-65360475D01*
X138554189Y-65332076D01*
X138553760Y-65327736D01*
X138548402Y-65261867D01*
X138547809Y-65254574D01*
X138545553Y-65247612D01*
X138544357Y-65241624D01*
X138542949Y-65235667D01*
X138542101Y-65228393D01*
X138539603Y-65221511D01*
X138539602Y-65221507D01*
X138517055Y-65159393D01*
X138515645Y-65155289D01*
X138493013Y-65085425D01*
X138489213Y-65079162D01*
X138486675Y-65073620D01*
X138483933Y-65068144D01*
X138481434Y-65061259D01*
X138441185Y-64999868D01*
X138438870Y-64996200D01*
X138400773Y-64933419D01*
X138393333Y-64924995D01*
X138393362Y-64924969D01*
X138390762Y-64922038D01*
X138387958Y-64918684D01*
X138383946Y-64912565D01*
X138327413Y-64859011D01*
X138324972Y-64856634D01*
X136809310Y-63340972D01*
X136796923Y-63326559D01*
X136788295Y-63314835D01*
X136783954Y-63308936D01*
X136743445Y-63274521D01*
X136735929Y-63267591D01*
X136730185Y-63261847D01*
X136727311Y-63259573D01*
X136727304Y-63259567D01*
X136707789Y-63244128D01*
X136704385Y-63241337D01*
X136654028Y-63198555D01*
X136654024Y-63198552D01*
X136648449Y-63193816D01*
X136641932Y-63190488D01*
X136636868Y-63187111D01*
X136631644Y-63183884D01*
X136625900Y-63179340D01*
X136599609Y-63167052D01*
X136559418Y-63148268D01*
X136555467Y-63146337D01*
X136496617Y-63116287D01*
X136490096Y-63112957D01*
X136482981Y-63111216D01*
X136477235Y-63109079D01*
X136471452Y-63107155D01*
X136464821Y-63104056D01*
X136392943Y-63089106D01*
X136388671Y-63088139D01*
X136317388Y-63070696D01*
X136311789Y-63070349D01*
X136311785Y-63070348D01*
X136306170Y-63070000D01*
X136306172Y-63069961D01*
X136302271Y-63069728D01*
X136297912Y-63069339D01*
X136290744Y-63067848D01*
X136283427Y-63068046D01*
X136212923Y-63069954D01*
X136209514Y-63070000D01*
X134864170Y-63070000D01*
X134796049Y-63049998D01*
X134748534Y-62994043D01*
X134746357Y-62989012D01*
X134744145Y-62981399D01*
X134727107Y-62952589D01*
X134663491Y-62845020D01*
X134663489Y-62845017D01*
X134659453Y-62838193D01*
X134541807Y-62720547D01*
X134534983Y-62716511D01*
X134534980Y-62716509D01*
X134405427Y-62639892D01*
X134405428Y-62639892D01*
X134398601Y-62635855D01*
X134390990Y-62633644D01*
X134390988Y-62633643D01*
X134338769Y-62618472D01*
X134238831Y-62589438D01*
X134232426Y-62588934D01*
X134232421Y-62588933D01*
X134203958Y-62586693D01*
X134203950Y-62586693D01*
X134201502Y-62586500D01*
X133840344Y-62586500D01*
X133778576Y-62568963D01*
X133778400Y-62569340D01*
X133733919Y-62548551D01*
X133711918Y-62538268D01*
X133707967Y-62536337D01*
X133662710Y-62513228D01*
X133642596Y-62502957D01*
X133635481Y-62501216D01*
X133629735Y-62499079D01*
X133623952Y-62497155D01*
X133617321Y-62494056D01*
X133545443Y-62479106D01*
X133541171Y-62478139D01*
X133469888Y-62460696D01*
X133464289Y-62460349D01*
X133464285Y-62460348D01*
X133458670Y-62460000D01*
X133458672Y-62459961D01*
X133454771Y-62459728D01*
X133450412Y-62459339D01*
X133443244Y-62457848D01*
X133435927Y-62458046D01*
X133365423Y-62459954D01*
X133362014Y-62460000D01*
X131642193Y-62460000D01*
X131574072Y-62439998D01*
X131553175Y-62423173D01*
X131539640Y-62409661D01*
X131513003Y-62383071D01*
X131364920Y-62291791D01*
X131199809Y-62237026D01*
X131192973Y-62236326D01*
X131192970Y-62236325D01*
X131141474Y-62231049D01*
X131097072Y-62226500D01*
X130522928Y-62226500D01*
X130519682Y-62226837D01*
X130519678Y-62226837D01*
X130425765Y-62236581D01*
X130425761Y-62236582D01*
X130418907Y-62237293D01*
X130412371Y-62239474D01*
X130412369Y-62239474D01*
X130279605Y-62283768D01*
X130253893Y-62292346D01*
X130105969Y-62383884D01*
X130100796Y-62389066D01*
X129988242Y-62501816D01*
X129988238Y-62501821D01*
X129983071Y-62506997D01*
X129979231Y-62513227D01*
X129979230Y-62513228D01*
X129903642Y-62635855D01*
X129891791Y-62655080D01*
X129837026Y-62820191D01*
X129836326Y-62827027D01*
X129836325Y-62827030D01*
X129834482Y-62845020D01*
X129826500Y-62922928D01*
X129826500Y-63522072D01*
X129837293Y-63626093D01*
X129892346Y-63791107D01*
X129983884Y-63939031D01*
X129989066Y-63944204D01*
X130090786Y-64045747D01*
X130124865Y-64108030D01*
X130119862Y-64178850D01*
X130090941Y-64223937D01*
X129988246Y-64326812D01*
X129988242Y-64326817D01*
X129983071Y-64331997D01*
X129979231Y-64338227D01*
X129979230Y-64338228D01*
X129896364Y-64472662D01*
X129891791Y-64480080D01*
X129837026Y-64645191D01*
X129826500Y-64747928D01*
X129826500Y-65347072D01*
X129826837Y-65350318D01*
X129826837Y-65350322D01*
X129827891Y-65360475D01*
X129837293Y-65451093D01*
X129839474Y-65457629D01*
X129839474Y-65457631D01*
X129869455Y-65547494D01*
X129892346Y-65616107D01*
X129956759Y-65720197D01*
X129975597Y-65788649D01*
X129954436Y-65856419D01*
X129899995Y-65901990D01*
X129849615Y-65912500D01*
X128744670Y-65912500D01*
X128676549Y-65892498D01*
X128655659Y-65875679D01*
X128628003Y-65848071D01*
X128517296Y-65779830D01*
X128486150Y-65760631D01*
X128486148Y-65760630D01*
X128479920Y-65756791D01*
X128314809Y-65702026D01*
X128307973Y-65701326D01*
X128307970Y-65701325D01*
X128256474Y-65696049D01*
X128212072Y-65691500D01*
X127512928Y-65691500D01*
X127509682Y-65691837D01*
X127509678Y-65691837D01*
X127415765Y-65701581D01*
X127415761Y-65701582D01*
X127408907Y-65702293D01*
X127402371Y-65704474D01*
X127402369Y-65704474D01*
X127277167Y-65746245D01*
X127243893Y-65757346D01*
X127233090Y-65764031D01*
X127103490Y-65844230D01*
X127095969Y-65848884D01*
X127089077Y-65855788D01*
X127087613Y-65856589D01*
X127085062Y-65858611D01*
X127084716Y-65858174D01*
X127026796Y-65889866D01*
X126955976Y-65884863D01*
X126910890Y-65855944D01*
X126908184Y-65853243D01*
X126903003Y-65848071D01*
X126792296Y-65779830D01*
X126761150Y-65760631D01*
X126761148Y-65760630D01*
X126754920Y-65756791D01*
X126589809Y-65702026D01*
X126582973Y-65701326D01*
X126582970Y-65701325D01*
X126531474Y-65696049D01*
X126487072Y-65691500D01*
X125787928Y-65691500D01*
X125784682Y-65691837D01*
X125784678Y-65691837D01*
X125690765Y-65701581D01*
X125690761Y-65701582D01*
X125683907Y-65702293D01*
X125677371Y-65704474D01*
X125677369Y-65704474D01*
X125552167Y-65746245D01*
X125518893Y-65757346D01*
X125370969Y-65848884D01*
X125365796Y-65854066D01*
X125253242Y-65966816D01*
X125253238Y-65966821D01*
X125248071Y-65971997D01*
X125244231Y-65978227D01*
X125244230Y-65978228D01*
X125184014Y-66075917D01*
X125156791Y-66120080D01*
X125102026Y-66285191D01*
X125091500Y-66387928D01*
X125091500Y-66962072D01*
X125102293Y-67066093D01*
X125157346Y-67231107D01*
X125248884Y-67379031D01*
X125254066Y-67384204D01*
X125254070Y-67384209D01*
X125338017Y-67468009D01*
X125372097Y-67530291D01*
X125375000Y-67557182D01*
X125375000Y-72095124D01*
X125373567Y-72114074D01*
X125371376Y-72128473D01*
X125371376Y-72128479D01*
X125370276Y-72135708D01*
X125370869Y-72143000D01*
X125370869Y-72143003D01*
X125374585Y-72188683D01*
X125375000Y-72198898D01*
X125375000Y-72207025D01*
X125378311Y-72235424D01*
X125378738Y-72239744D01*
X125384691Y-72312926D01*
X125386947Y-72319888D01*
X125388143Y-72325876D01*
X125389551Y-72331833D01*
X125390399Y-72339107D01*
X125392897Y-72345989D01*
X125392898Y-72345993D01*
X125415445Y-72408107D01*
X125416855Y-72412211D01*
X125439487Y-72482075D01*
X125443287Y-72488338D01*
X125445825Y-72493880D01*
X125448567Y-72499356D01*
X125451066Y-72506241D01*
X125455081Y-72512365D01*
X125491315Y-72567632D01*
X125493630Y-72571300D01*
X125531727Y-72634081D01*
X125535441Y-72638286D01*
X125535443Y-72638289D01*
X125539167Y-72642505D01*
X125539138Y-72642531D01*
X125541738Y-72645462D01*
X125544542Y-72648816D01*
X125548554Y-72654935D01*
X125553866Y-72659967D01*
X125605086Y-72708488D01*
X125607528Y-72710866D01*
X128323190Y-75426528D01*
X128335577Y-75440941D01*
X128348546Y-75458564D01*
X128354129Y-75463307D01*
X128389055Y-75492979D01*
X128396571Y-75499909D01*
X128402315Y-75505653D01*
X128405189Y-75507927D01*
X128405196Y-75507933D01*
X128424711Y-75523372D01*
X128428115Y-75526163D01*
X128478472Y-75568945D01*
X128478476Y-75568948D01*
X128484051Y-75573684D01*
X128490568Y-75577012D01*
X128495632Y-75580389D01*
X128500856Y-75583616D01*
X128506600Y-75588160D01*
X128513231Y-75591259D01*
X128573082Y-75619232D01*
X128577033Y-75621163D01*
X128593061Y-75629347D01*
X128642404Y-75654543D01*
X128649519Y-75656284D01*
X128655265Y-75658421D01*
X128661048Y-75660345D01*
X128667679Y-75663444D01*
X128739557Y-75678394D01*
X128743829Y-75679361D01*
X128815112Y-75696804D01*
X128820711Y-75697151D01*
X128820715Y-75697152D01*
X128826330Y-75697500D01*
X128826328Y-75697539D01*
X128830229Y-75697772D01*
X128834588Y-75698161D01*
X128841756Y-75699652D01*
X128849073Y-75699454D01*
X128919577Y-75697546D01*
X128922986Y-75697500D01*
X130890542Y-75697500D01*
X130958663Y-75717502D01*
X130985779Y-75741003D01*
X131052900Y-75818489D01*
X131131250Y-75908938D01*
X131303126Y-76051632D01*
X131364196Y-76087318D01*
X131376445Y-76094476D01*
X131425169Y-76146114D01*
X131438240Y-76215897D01*
X131411509Y-76281669D01*
X131371055Y-76315027D01*
X131358607Y-76321507D01*
X131354474Y-76324610D01*
X131354471Y-76324612D01*
X131184100Y-76452530D01*
X131179965Y-76455635D01*
X131025629Y-76617138D01*
X131022715Y-76621410D01*
X130998092Y-76657505D01*
X130943180Y-76702507D01*
X130894004Y-76712500D01*
X128008028Y-76712500D01*
X127939907Y-76692498D01*
X127918933Y-76675595D01*
X126951810Y-75708472D01*
X126939423Y-75694059D01*
X126930795Y-75682335D01*
X126926454Y-75676436D01*
X126885945Y-75642021D01*
X126878429Y-75635091D01*
X126872685Y-75629347D01*
X126869811Y-75627073D01*
X126869804Y-75627067D01*
X126850289Y-75611628D01*
X126846885Y-75608837D01*
X126796528Y-75566055D01*
X126796524Y-75566052D01*
X126790949Y-75561316D01*
X126784432Y-75557988D01*
X126779368Y-75554611D01*
X126774144Y-75551384D01*
X126768400Y-75546840D01*
X126724159Y-75526163D01*
X126701918Y-75515768D01*
X126697967Y-75513837D01*
X126639117Y-75483787D01*
X126632596Y-75480457D01*
X126625481Y-75478716D01*
X126619735Y-75476579D01*
X126613952Y-75474655D01*
X126607321Y-75471556D01*
X126535443Y-75456606D01*
X126531171Y-75455639D01*
X126459888Y-75438196D01*
X126454289Y-75437849D01*
X126454285Y-75437848D01*
X126448670Y-75437500D01*
X126448672Y-75437461D01*
X126444771Y-75437228D01*
X126440412Y-75436839D01*
X126433244Y-75435348D01*
X126425927Y-75435546D01*
X126355423Y-75437454D01*
X126352014Y-75437500D01*
X111848435Y-75437500D01*
X111837236Y-75437001D01*
X111835406Y-75436838D01*
X111828244Y-75435348D01*
X111758774Y-75437228D01*
X111750423Y-75437454D01*
X111747014Y-75437500D01*
X94902368Y-75437500D01*
X94883420Y-75436067D01*
X94876033Y-75434943D01*
X94869024Y-75433877D01*
X94869022Y-75433877D01*
X94861792Y-75432777D01*
X94854500Y-75433370D01*
X94854497Y-75433370D01*
X94808825Y-75437085D01*
X94798611Y-75437500D01*
X94790475Y-75437500D01*
X94786840Y-75437924D01*
X94786837Y-75437924D01*
X94773065Y-75439530D01*
X94762084Y-75440810D01*
X94757713Y-75441243D01*
X94746701Y-75442138D01*
X94691872Y-75446597D01*
X94691869Y-75446598D01*
X94684573Y-75447191D01*
X94677611Y-75449446D01*
X94671607Y-75450646D01*
X94665660Y-75452052D01*
X94658393Y-75452899D01*
X94606995Y-75471556D01*
X94589388Y-75477947D01*
X94585227Y-75479375D01*
X94522387Y-75499732D01*
X94522382Y-75499734D01*
X94515425Y-75501988D01*
X94509173Y-75505782D01*
X94503598Y-75508334D01*
X94498135Y-75511070D01*
X94491259Y-75513566D01*
X94472046Y-75526163D01*
X94429863Y-75553819D01*
X94426159Y-75556156D01*
X94363419Y-75594228D01*
X94354994Y-75601668D01*
X94354969Y-75601640D01*
X94352044Y-75604234D01*
X94348690Y-75607039D01*
X94342565Y-75611054D01*
X94337530Y-75616369D01*
X94337529Y-75616370D01*
X94289012Y-75667586D01*
X94286634Y-75670028D01*
X93065765Y-76890897D01*
X93003453Y-76924923D01*
X92928452Y-76918211D01*
X92925671Y-76917059D01*
X92921970Y-76915234D01*
X92789574Y-76870291D01*
X92651738Y-76823502D01*
X92651734Y-76823501D01*
X92647828Y-76822175D01*
X92643784Y-76821371D01*
X92643778Y-76821369D01*
X92367929Y-76766500D01*
X92367926Y-76766500D01*
X92363886Y-76765696D01*
X92359775Y-76765427D01*
X92359771Y-76765426D01*
X92079119Y-76747031D01*
X92075000Y-76746761D01*
X92070881Y-76747031D01*
X91790229Y-76765426D01*
X91790225Y-76765427D01*
X91786114Y-76765696D01*
X91782074Y-76766500D01*
X91782071Y-76766500D01*
X91506222Y-76821369D01*
X91506216Y-76821371D01*
X91502172Y-76822175D01*
X91498266Y-76823501D01*
X91498262Y-76823502D01*
X91231936Y-76913908D01*
X91228030Y-76915234D01*
X91224337Y-76917055D01*
X91224335Y-76917056D01*
X91154620Y-76951436D01*
X90968381Y-77043279D01*
X90727665Y-77204119D01*
X90724573Y-77206831D01*
X90724566Y-77206836D01*
X90513239Y-77392167D01*
X90510004Y-77395004D01*
X90507295Y-77398093D01*
X90321836Y-77609566D01*
X90321831Y-77609573D01*
X90319119Y-77612665D01*
X90158279Y-77853381D01*
X90156450Y-77857090D01*
X90032249Y-78108945D01*
X90030234Y-78113030D01*
X90028911Y-78116928D01*
X90028910Y-78116930D01*
X89945211Y-78363500D01*
X89937175Y-78387172D01*
X89936371Y-78391216D01*
X89936369Y-78391222D01*
X89895744Y-78595461D01*
X89880696Y-78671114D01*
X89880427Y-78675225D01*
X89880426Y-78675229D01*
X89869839Y-78836753D01*
X89861761Y-78960000D01*
X89880696Y-79248886D01*
X89881500Y-79252926D01*
X89881500Y-79252929D01*
X89936344Y-79528649D01*
X89937175Y-79532828D01*
X90030234Y-79806970D01*
X90158279Y-80066619D01*
X90319119Y-80307335D01*
X90321831Y-80310427D01*
X90321836Y-80310434D01*
X90507167Y-80521761D01*
X90510004Y-80524996D01*
X90513093Y-80527705D01*
X90724565Y-80713163D01*
X90724571Y-80713168D01*
X90727665Y-80715881D01*
X90968380Y-80876721D01*
X90972079Y-80878545D01*
X90972084Y-80878548D01*
X91223396Y-81002481D01*
X91228030Y-81004766D01*
X91231928Y-81006089D01*
X91231930Y-81006090D01*
X91498262Y-81096498D01*
X91498266Y-81096499D01*
X91502172Y-81097825D01*
X91506216Y-81098629D01*
X91506222Y-81098631D01*
X91782071Y-81153500D01*
X91782074Y-81153500D01*
X91786114Y-81154304D01*
X91790225Y-81154573D01*
X91790229Y-81154574D01*
X92070881Y-81172969D01*
X92075000Y-81173239D01*
X92079119Y-81172969D01*
X92359771Y-81154574D01*
X92359775Y-81154573D01*
X92363886Y-81154304D01*
X92367926Y-81153500D01*
X92367929Y-81153500D01*
X92643778Y-81098631D01*
X92643784Y-81098629D01*
X92647828Y-81097825D01*
X92651734Y-81096499D01*
X92651738Y-81096498D01*
X92918070Y-81006090D01*
X92918072Y-81006089D01*
X92921970Y-81004766D01*
X92926604Y-81002481D01*
X93177916Y-80878548D01*
X93177921Y-80878545D01*
X93181620Y-80876721D01*
X93422335Y-80715881D01*
X93425429Y-80713168D01*
X93425435Y-80713163D01*
X93447943Y-80693424D01*
X98327032Y-80693424D01*
X98333489Y-80702783D01*
X98344871Y-80712765D01*
X98351399Y-80717774D01*
X98585198Y-80873993D01*
X98592335Y-80878114D01*
X98844527Y-81002481D01*
X98852122Y-81005627D01*
X99118391Y-81096014D01*
X99126351Y-81098147D01*
X99402137Y-81153004D01*
X99410295Y-81154078D01*
X99690881Y-81172468D01*
X99699119Y-81172468D01*
X99979705Y-81154078D01*
X99987863Y-81153004D01*
X100263649Y-81098147D01*
X100271609Y-81096014D01*
X100537878Y-81005627D01*
X100545473Y-81002481D01*
X100797665Y-80878114D01*
X100804802Y-80873993D01*
X101038601Y-80717774D01*
X101045129Y-80712765D01*
X101054646Y-80704419D01*
X101063041Y-80691183D01*
X101057206Y-80681416D01*
X99707812Y-79332022D01*
X99693868Y-79324408D01*
X99692035Y-79324539D01*
X99685420Y-79328790D01*
X98334547Y-80679663D01*
X98327032Y-80693424D01*
X93447943Y-80693424D01*
X93636907Y-80527705D01*
X93639996Y-80524996D01*
X93642833Y-80521761D01*
X93828164Y-80310434D01*
X93828169Y-80310427D01*
X93830881Y-80307335D01*
X93991721Y-80066619D01*
X94119766Y-79806970D01*
X94212825Y-79532828D01*
X94213657Y-79528649D01*
X94268500Y-79252929D01*
X94268500Y-79252926D01*
X94269304Y-79248886D01*
X94287969Y-78964119D01*
X97482532Y-78964119D01*
X97500922Y-79244705D01*
X97501996Y-79252863D01*
X97556853Y-79528649D01*
X97558986Y-79536609D01*
X97649373Y-79802878D01*
X97652519Y-79810473D01*
X97776886Y-80062665D01*
X97781007Y-80069802D01*
X97937226Y-80303601D01*
X97942235Y-80310129D01*
X97950581Y-80319646D01*
X97963817Y-80328041D01*
X97973584Y-80322206D01*
X99322978Y-78972812D01*
X99329356Y-78961132D01*
X100059408Y-78961132D01*
X100059539Y-78962965D01*
X100063790Y-78969580D01*
X101414663Y-80320453D01*
X101428424Y-80327968D01*
X101437783Y-80321511D01*
X101447765Y-80310129D01*
X101452774Y-80303601D01*
X101608993Y-80069802D01*
X101613114Y-80062665D01*
X101737481Y-79810473D01*
X101740627Y-79802878D01*
X101831014Y-79536609D01*
X101833147Y-79528649D01*
X101888004Y-79252863D01*
X101889078Y-79244705D01*
X101907468Y-78964119D01*
X101907468Y-78955881D01*
X101889078Y-78675295D01*
X101888004Y-78667137D01*
X101833147Y-78391351D01*
X101831014Y-78383391D01*
X101740627Y-78117122D01*
X101737481Y-78109527D01*
X101613114Y-77857335D01*
X101608993Y-77850198D01*
X101452774Y-77616399D01*
X101447765Y-77609871D01*
X101439419Y-77600354D01*
X101426183Y-77591959D01*
X101416416Y-77597794D01*
X100067022Y-78947188D01*
X100059408Y-78961132D01*
X99329356Y-78961132D01*
X99330592Y-78958868D01*
X99330461Y-78957035D01*
X99326210Y-78950420D01*
X97975337Y-77599547D01*
X97961576Y-77592032D01*
X97952217Y-77598489D01*
X97942235Y-77609871D01*
X97937226Y-77616399D01*
X97781007Y-77850198D01*
X97776886Y-77857335D01*
X97652519Y-78109527D01*
X97649373Y-78117122D01*
X97558986Y-78383391D01*
X97556853Y-78391351D01*
X97501996Y-78667137D01*
X97500922Y-78675295D01*
X97482532Y-78955881D01*
X97482532Y-78964119D01*
X94287969Y-78964119D01*
X94288239Y-78960000D01*
X94280161Y-78836753D01*
X94269574Y-78675229D01*
X94269573Y-78675225D01*
X94269304Y-78671114D01*
X94254256Y-78595461D01*
X94213631Y-78391222D01*
X94213629Y-78391216D01*
X94212825Y-78387172D01*
X94204790Y-78363500D01*
X94150963Y-78204934D01*
X94119766Y-78113030D01*
X94117941Y-78109329D01*
X94116789Y-78106548D01*
X94109200Y-78035958D01*
X94144103Y-77969235D01*
X95113933Y-76999405D01*
X95176245Y-76965379D01*
X95203028Y-76962500D01*
X98294808Y-76962500D01*
X98362929Y-76982502D01*
X98409422Y-77036158D01*
X98419526Y-77106432D01*
X98390032Y-77171012D01*
X98364809Y-77193266D01*
X98351396Y-77202228D01*
X98344871Y-77207235D01*
X98335354Y-77215581D01*
X98326959Y-77228817D01*
X98332794Y-77238584D01*
X99682188Y-78587978D01*
X99696132Y-78595592D01*
X99697965Y-78595461D01*
X99704580Y-78591210D01*
X101055453Y-77240337D01*
X101062968Y-77226576D01*
X101056511Y-77217217D01*
X101045129Y-77207235D01*
X101038604Y-77202228D01*
X101025191Y-77193266D01*
X100979663Y-77138789D01*
X100970814Y-77068346D01*
X101001455Y-77004302D01*
X101061857Y-76966990D01*
X101095192Y-76962500D01*
X111111500Y-76962500D01*
X111179621Y-76982502D01*
X111226114Y-77036158D01*
X111237500Y-77088500D01*
X111237500Y-83966047D01*
X111217498Y-84034168D01*
X111208024Y-84047035D01*
X111122391Y-84149089D01*
X111119427Y-84154481D01*
X111119424Y-84154485D01*
X111036040Y-84306160D01*
X111022387Y-84330995D01*
X110959621Y-84528861D01*
X110958935Y-84534978D01*
X110958934Y-84534982D01*
X110951806Y-84598531D01*
X110941500Y-84690413D01*
X110941500Y-85402237D01*
X110941800Y-85405293D01*
X110941800Y-85405300D01*
X110956034Y-85550466D01*
X110956635Y-85556592D01*
X110982878Y-85643515D01*
X110997961Y-85693471D01*
X111016632Y-85755315D01*
X111019527Y-85760760D01*
X111019528Y-85760762D01*
X111081759Y-85877799D01*
X111114087Y-85938599D01*
X111128631Y-85956432D01*
X111241390Y-86094689D01*
X111241393Y-86094692D01*
X111245285Y-86099464D01*
X111250033Y-86103392D01*
X111250034Y-86103393D01*
X111327624Y-86167581D01*
X111405230Y-86231783D01*
X111410647Y-86234712D01*
X111410650Y-86234714D01*
X111582410Y-86327584D01*
X111582415Y-86327586D01*
X111587830Y-86330514D01*
X111786129Y-86391898D01*
X111792254Y-86392542D01*
X111792255Y-86392542D01*
X111986446Y-86412952D01*
X111986448Y-86412952D01*
X111992575Y-86413596D01*
X112078485Y-86405777D01*
X112193164Y-86395341D01*
X112193167Y-86395340D01*
X112199303Y-86394782D01*
X112205209Y-86393044D01*
X112205213Y-86393043D01*
X112392531Y-86337912D01*
X112392530Y-86337912D01*
X112398440Y-86336173D01*
X112582400Y-86240001D01*
X112744177Y-86109929D01*
X112749662Y-86103393D01*
X112873650Y-85955629D01*
X112877609Y-85950911D01*
X112880573Y-85945519D01*
X112880576Y-85945515D01*
X112974646Y-85774402D01*
X112977613Y-85769005D01*
X113040379Y-85571139D01*
X113041350Y-85562489D01*
X113058107Y-85413087D01*
X113058500Y-85409587D01*
X113058500Y-84697763D01*
X113057780Y-84690413D01*
X113043966Y-84549534D01*
X113043965Y-84549531D01*
X113043365Y-84543408D01*
X112989150Y-84363837D01*
X112985152Y-84350593D01*
X112985151Y-84350590D01*
X112983368Y-84344685D01*
X112977574Y-84333787D01*
X112959143Y-84299124D01*
X115542000Y-84299124D01*
X115542301Y-84305272D01*
X115556527Y-84450361D01*
X115558910Y-84462396D01*
X115615317Y-84649223D01*
X115619992Y-84660565D01*
X115711612Y-84832879D01*
X115718399Y-84843095D01*
X115841747Y-84994335D01*
X115850391Y-85003039D01*
X116000763Y-85127438D01*
X116010931Y-85134297D01*
X116182607Y-85227121D01*
X116193907Y-85231871D01*
X116328693Y-85273595D01*
X116342795Y-85273801D01*
X116346000Y-85267045D01*
X116346000Y-85260047D01*
X116854000Y-85260047D01*
X116857973Y-85273578D01*
X116865768Y-85274698D01*
X116992342Y-85237446D01*
X117003710Y-85232853D01*
X117176666Y-85142434D01*
X117186928Y-85135718D01*
X117339020Y-85013432D01*
X117347786Y-85004848D01*
X117473236Y-84855344D01*
X117480160Y-84845233D01*
X117574184Y-84674202D01*
X117579012Y-84662938D01*
X117638025Y-84476905D01*
X117640573Y-84464916D01*
X117657607Y-84313053D01*
X117658000Y-84306029D01*
X117658000Y-84222115D01*
X117653525Y-84206876D01*
X117652135Y-84205671D01*
X117644452Y-84204000D01*
X116872115Y-84204000D01*
X116856876Y-84208475D01*
X116855671Y-84209865D01*
X116854000Y-84217548D01*
X116854000Y-85260047D01*
X116346000Y-85260047D01*
X116346000Y-84222115D01*
X116341525Y-84206876D01*
X116340135Y-84205671D01*
X116332452Y-84204000D01*
X115560115Y-84204000D01*
X115544876Y-84208475D01*
X115543671Y-84209865D01*
X115542000Y-84217548D01*
X115542000Y-84299124D01*
X112959143Y-84299124D01*
X112888807Y-84166844D01*
X112885913Y-84161401D01*
X112818720Y-84079014D01*
X112790857Y-84044850D01*
X112763303Y-83979419D01*
X112762500Y-83965215D01*
X112762500Y-83677885D01*
X115542000Y-83677885D01*
X115546475Y-83693124D01*
X115547865Y-83694329D01*
X115555548Y-83696000D01*
X116327885Y-83696000D01*
X116343124Y-83691525D01*
X116344329Y-83690135D01*
X116346000Y-83682452D01*
X116346000Y-83677885D01*
X116854000Y-83677885D01*
X116858475Y-83693124D01*
X116859865Y-83694329D01*
X116867548Y-83696000D01*
X117639885Y-83696000D01*
X117655124Y-83691525D01*
X117656329Y-83690135D01*
X117658000Y-83682452D01*
X117658000Y-83600876D01*
X117657699Y-83594728D01*
X117643473Y-83449639D01*
X117641090Y-83437604D01*
X117584683Y-83250777D01*
X117580008Y-83239435D01*
X117488388Y-83067121D01*
X117481601Y-83056905D01*
X117358253Y-82905665D01*
X117349609Y-82896961D01*
X117199237Y-82772562D01*
X117189069Y-82765703D01*
X117017393Y-82672879D01*
X117006093Y-82668129D01*
X116871307Y-82626405D01*
X116857205Y-82626199D01*
X116854000Y-82632955D01*
X116854000Y-83677885D01*
X116346000Y-83677885D01*
X116346000Y-82639953D01*
X116342027Y-82626422D01*
X116334232Y-82625302D01*
X116207658Y-82662554D01*
X116196290Y-82667147D01*
X116023334Y-82757566D01*
X116013072Y-82764282D01*
X115860980Y-82886568D01*
X115852214Y-82895152D01*
X115726764Y-83044656D01*
X115719840Y-83054767D01*
X115625816Y-83225798D01*
X115620988Y-83237062D01*
X115561975Y-83423095D01*
X115559427Y-83435084D01*
X115542393Y-83586947D01*
X115542000Y-83593971D01*
X115542000Y-83677885D01*
X112762500Y-83677885D01*
X112762500Y-77088500D01*
X112782502Y-77020379D01*
X112836158Y-76973886D01*
X112888500Y-76962500D01*
X125996972Y-76962500D01*
X126065093Y-76982502D01*
X126086067Y-76999405D01*
X127053190Y-77966528D01*
X127065577Y-77980941D01*
X127078546Y-77998564D01*
X127084129Y-78003307D01*
X127119055Y-78032979D01*
X127126571Y-78039909D01*
X127132315Y-78045653D01*
X127135189Y-78047927D01*
X127135196Y-78047933D01*
X127154711Y-78063372D01*
X127158115Y-78066163D01*
X127208472Y-78108945D01*
X127208476Y-78108948D01*
X127214051Y-78113684D01*
X127220568Y-78117012D01*
X127225632Y-78120389D01*
X127230856Y-78123616D01*
X127236600Y-78128160D01*
X127243231Y-78131259D01*
X127303082Y-78159232D01*
X127307033Y-78161163D01*
X127372404Y-78194543D01*
X127379519Y-78196284D01*
X127385265Y-78198421D01*
X127391048Y-78200345D01*
X127397679Y-78203444D01*
X127469557Y-78218394D01*
X127473829Y-78219361D01*
X127545112Y-78236804D01*
X127550711Y-78237151D01*
X127550715Y-78237152D01*
X127556330Y-78237500D01*
X127556328Y-78237539D01*
X127560229Y-78237772D01*
X127564588Y-78238161D01*
X127571756Y-78239652D01*
X127579073Y-78239454D01*
X127649577Y-78237546D01*
X127652986Y-78237500D01*
X130890542Y-78237500D01*
X130958663Y-78257502D01*
X130985779Y-78281003D01*
X131081366Y-78391351D01*
X131131250Y-78448938D01*
X131303126Y-78591632D01*
X131496000Y-78704338D01*
X131704692Y-78784030D01*
X131709760Y-78785061D01*
X131709763Y-78785062D01*
X131817017Y-78806883D01*
X131923597Y-78828567D01*
X131928772Y-78828757D01*
X131928774Y-78828757D01*
X132141673Y-78836564D01*
X132141677Y-78836564D01*
X132146837Y-78836753D01*
X132151957Y-78836097D01*
X132151959Y-78836097D01*
X132363288Y-78809025D01*
X132363289Y-78809025D01*
X132368416Y-78808368D01*
X132552792Y-78753052D01*
X132623788Y-78752635D01*
X132683738Y-78790668D01*
X132713610Y-78855074D01*
X132715000Y-78873738D01*
X132715000Y-84836500D01*
X132694998Y-84904621D01*
X132641342Y-84951114D01*
X132589000Y-84962500D01*
X127154317Y-84962500D01*
X127086196Y-84942498D01*
X127039703Y-84888842D01*
X127029599Y-84818568D01*
X127043903Y-84775799D01*
X127099643Y-84674410D01*
X127099648Y-84674398D01*
X127102613Y-84669005D01*
X127165379Y-84471139D01*
X127166350Y-84462489D01*
X127180440Y-84336868D01*
X127183500Y-84309587D01*
X127183500Y-83597763D01*
X127183129Y-83593971D01*
X127168966Y-83449534D01*
X127168965Y-83449531D01*
X127168365Y-83443408D01*
X127128526Y-83311454D01*
X127110152Y-83250593D01*
X127110151Y-83250590D01*
X127108368Y-83244685D01*
X127101089Y-83230995D01*
X127013809Y-83066847D01*
X127013808Y-83066845D01*
X127010913Y-83061401D01*
X126962083Y-83001529D01*
X126883610Y-82905311D01*
X126883607Y-82905308D01*
X126879715Y-82900536D01*
X126872770Y-82894790D01*
X126724518Y-82772145D01*
X126724519Y-82772145D01*
X126719770Y-82768217D01*
X126714353Y-82765288D01*
X126714350Y-82765286D01*
X126542590Y-82672416D01*
X126542585Y-82672414D01*
X126537170Y-82669486D01*
X126338871Y-82608102D01*
X126332746Y-82607458D01*
X126332745Y-82607458D01*
X126138554Y-82587048D01*
X126138552Y-82587048D01*
X126132425Y-82586404D01*
X126046515Y-82594223D01*
X125931836Y-82604659D01*
X125931833Y-82604660D01*
X125925697Y-82605218D01*
X125919791Y-82606956D01*
X125919787Y-82606957D01*
X125831454Y-82632955D01*
X125726560Y-82663827D01*
X125542600Y-82759999D01*
X125380823Y-82890071D01*
X125376865Y-82894788D01*
X125376863Y-82894790D01*
X125372042Y-82900536D01*
X125247391Y-83049089D01*
X125244427Y-83054481D01*
X125244424Y-83054485D01*
X125203430Y-83129053D01*
X125147387Y-83230995D01*
X125084621Y-83428861D01*
X125083935Y-83434978D01*
X125083934Y-83434982D01*
X125083640Y-83437604D01*
X125066500Y-83590413D01*
X125066500Y-84302237D01*
X125066801Y-84305304D01*
X125066801Y-84305310D01*
X125067814Y-84315646D01*
X125054553Y-84385393D01*
X125005689Y-84436899D01*
X124936736Y-84453810D01*
X124869586Y-84430758D01*
X124860834Y-84423962D01*
X124845949Y-84411316D01*
X124839432Y-84407988D01*
X124834368Y-84404611D01*
X124829144Y-84401384D01*
X124823400Y-84396840D01*
X124760797Y-84367581D01*
X124756918Y-84365768D01*
X124752967Y-84363837D01*
X124694117Y-84333787D01*
X124687596Y-84330457D01*
X124680481Y-84328716D01*
X124674735Y-84326579D01*
X124668952Y-84324655D01*
X124662321Y-84321556D01*
X124590443Y-84306606D01*
X124586171Y-84305639D01*
X124514888Y-84288196D01*
X124509289Y-84287849D01*
X124509285Y-84287848D01*
X124503670Y-84287500D01*
X124503672Y-84287461D01*
X124499771Y-84287228D01*
X124495412Y-84286839D01*
X124488244Y-84285348D01*
X124480927Y-84285546D01*
X124410423Y-84287454D01*
X124407014Y-84287500D01*
X122553670Y-84287500D01*
X122485549Y-84267498D01*
X122442419Y-84220654D01*
X122413809Y-84166847D01*
X122413807Y-84166844D01*
X122410913Y-84161401D01*
X122307145Y-84034168D01*
X122283610Y-84005311D01*
X122283607Y-84005308D01*
X122279715Y-84000536D01*
X122272770Y-83994790D01*
X122124518Y-83872145D01*
X122124519Y-83872145D01*
X122119770Y-83868217D01*
X122114353Y-83865288D01*
X122114350Y-83865286D01*
X121942590Y-83772416D01*
X121942585Y-83772414D01*
X121937170Y-83769486D01*
X121738871Y-83708102D01*
X121732746Y-83707458D01*
X121732745Y-83707458D01*
X121538554Y-83687048D01*
X121538552Y-83687048D01*
X121532425Y-83686404D01*
X121476156Y-83691525D01*
X121331836Y-83704659D01*
X121331833Y-83704660D01*
X121325697Y-83705218D01*
X121319791Y-83706956D01*
X121319787Y-83706957D01*
X121195238Y-83743614D01*
X121126560Y-83763827D01*
X120942600Y-83859999D01*
X120780823Y-83990071D01*
X120776865Y-83994788D01*
X120776863Y-83994790D01*
X120762500Y-84011907D01*
X120647391Y-84149089D01*
X120644427Y-84154481D01*
X120644424Y-84154485D01*
X120561040Y-84306160D01*
X120547387Y-84330995D01*
X120484621Y-84528861D01*
X120483935Y-84534978D01*
X120483934Y-84534982D01*
X120476806Y-84598531D01*
X120466500Y-84690413D01*
X120466500Y-85402237D01*
X120466800Y-85405293D01*
X120466800Y-85405300D01*
X120481034Y-85550466D01*
X120481635Y-85556592D01*
X120507878Y-85643515D01*
X120522961Y-85693471D01*
X120541632Y-85755315D01*
X120544527Y-85760760D01*
X120544528Y-85760762D01*
X120606759Y-85877799D01*
X120639087Y-85938599D01*
X120653631Y-85956432D01*
X120766390Y-86094689D01*
X120766393Y-86094692D01*
X120770285Y-86099464D01*
X120775033Y-86103392D01*
X120775034Y-86103393D01*
X120852624Y-86167581D01*
X120930230Y-86231783D01*
X120935647Y-86234712D01*
X120935650Y-86234714D01*
X121107410Y-86327584D01*
X121107415Y-86327586D01*
X121112830Y-86330514D01*
X121311129Y-86391898D01*
X121317254Y-86392542D01*
X121317255Y-86392542D01*
X121511446Y-86412952D01*
X121511448Y-86412952D01*
X121517575Y-86413596D01*
X121603485Y-86405777D01*
X121718164Y-86395341D01*
X121718167Y-86395340D01*
X121724303Y-86394782D01*
X121730209Y-86393044D01*
X121730213Y-86393043D01*
X121917531Y-86337912D01*
X121917530Y-86337912D01*
X121923440Y-86336173D01*
X122107400Y-86240001D01*
X122269177Y-86109929D01*
X122274662Y-86103393D01*
X122398650Y-85955629D01*
X122402609Y-85950911D01*
X122405575Y-85945515D01*
X122405581Y-85945507D01*
X122442804Y-85877799D01*
X122493149Y-85827740D01*
X122553218Y-85812500D01*
X122634958Y-85812500D01*
X122703079Y-85832502D01*
X122749572Y-85886158D01*
X122759676Y-85956432D01*
X122739539Y-86008777D01*
X122717710Y-86041262D01*
X122627412Y-86246967D01*
X122626103Y-86252418D01*
X122626102Y-86252422D01*
X122585147Y-86423013D01*
X122574968Y-86465411D01*
X122573456Y-86491631D01*
X122566609Y-86610400D01*
X122562037Y-86689690D01*
X122589025Y-86912715D01*
X122655082Y-87127435D01*
X122657652Y-87132415D01*
X122657654Y-87132419D01*
X122722852Y-87258738D01*
X122758118Y-87327064D01*
X122894877Y-87505292D01*
X123061036Y-87656485D01*
X123065783Y-87659463D01*
X123065786Y-87659465D01*
X123245847Y-87772416D01*
X123251344Y-87775864D01*
X123459783Y-87859656D01*
X123679767Y-87905213D01*
X123684378Y-87905479D01*
X123684379Y-87905479D01*
X123734952Y-87908395D01*
X123734956Y-87908395D01*
X123736775Y-87908500D01*
X123881999Y-87908500D01*
X123884786Y-87908251D01*
X123884792Y-87908251D01*
X123954929Y-87901991D01*
X124048762Y-87893617D01*
X124054176Y-87892136D01*
X124054181Y-87892135D01*
X124182080Y-87857145D01*
X124265451Y-87834337D01*
X124270509Y-87831925D01*
X124270513Y-87831923D01*
X124388042Y-87775864D01*
X124468218Y-87737622D01*
X124650654Y-87606529D01*
X124806992Y-87445201D01*
X124932290Y-87258738D01*
X125022588Y-87053033D01*
X125075032Y-86834589D01*
X125087963Y-86610310D01*
X125089524Y-86610400D01*
X125105536Y-86548751D01*
X125157701Y-86500591D01*
X125213626Y-86487500D01*
X132589000Y-86487500D01*
X132657121Y-86507502D01*
X132703614Y-86561158D01*
X132715000Y-86613500D01*
X132715000Y-88161500D01*
X132694998Y-88229621D01*
X132641342Y-88276114D01*
X132589000Y-88287500D01*
X122553670Y-88287500D01*
X122485549Y-88267498D01*
X122442419Y-88220654D01*
X122413809Y-88166847D01*
X122413808Y-88166845D01*
X122410913Y-88161401D01*
X122362083Y-88101529D01*
X122283610Y-88005311D01*
X122283607Y-88005308D01*
X122279715Y-88000536D01*
X122272770Y-87994790D01*
X122124518Y-87872145D01*
X122124519Y-87872145D01*
X122119770Y-87868217D01*
X122114353Y-87865288D01*
X122114350Y-87865286D01*
X121942590Y-87772416D01*
X121942585Y-87772414D01*
X121937170Y-87769486D01*
X121738871Y-87708102D01*
X121732746Y-87707458D01*
X121732745Y-87707458D01*
X121538554Y-87687048D01*
X121538552Y-87687048D01*
X121532425Y-87686404D01*
X121446515Y-87694223D01*
X121331836Y-87704659D01*
X121331833Y-87704660D01*
X121325697Y-87705218D01*
X121319791Y-87706956D01*
X121319787Y-87706957D01*
X121215597Y-87737622D01*
X121126560Y-87763827D01*
X120942600Y-87859999D01*
X120780823Y-87990071D01*
X120776865Y-87994788D01*
X120776863Y-87994790D01*
X120772042Y-88000536D01*
X120647391Y-88149089D01*
X120644427Y-88154481D01*
X120644424Y-88154485D01*
X120550354Y-88325598D01*
X120547387Y-88330995D01*
X120484621Y-88528861D01*
X120483935Y-88534978D01*
X120483934Y-88534982D01*
X120483640Y-88537604D01*
X120466500Y-88690413D01*
X120466500Y-89402237D01*
X120466800Y-89405293D01*
X120466800Y-89405300D01*
X120477194Y-89511299D01*
X120481635Y-89556592D01*
X120521474Y-89688546D01*
X120539793Y-89749223D01*
X120541632Y-89755315D01*
X120544527Y-89760760D01*
X120544528Y-89760762D01*
X120636046Y-89932879D01*
X120639087Y-89938599D01*
X120681285Y-89990339D01*
X120766390Y-90094689D01*
X120766393Y-90094692D01*
X120770285Y-90099464D01*
X120775033Y-90103392D01*
X120775034Y-90103393D01*
X120789391Y-90115270D01*
X120930230Y-90231783D01*
X120935647Y-90234712D01*
X120935650Y-90234714D01*
X121107410Y-90327584D01*
X121107415Y-90327586D01*
X121112830Y-90330514D01*
X121311129Y-90391898D01*
X121317254Y-90392542D01*
X121317255Y-90392542D01*
X121511446Y-90412952D01*
X121511448Y-90412952D01*
X121517575Y-90413596D01*
X121603485Y-90405777D01*
X121718164Y-90395341D01*
X121718167Y-90395340D01*
X121724303Y-90394782D01*
X121730209Y-90393044D01*
X121730213Y-90393043D01*
X121917531Y-90337912D01*
X121917530Y-90337912D01*
X121923440Y-90336173D01*
X122107400Y-90240001D01*
X122269177Y-90109929D01*
X122273441Y-90104848D01*
X122398650Y-89955629D01*
X122402609Y-89950911D01*
X122405575Y-89945515D01*
X122405581Y-89945507D01*
X122442804Y-89877799D01*
X122493149Y-89827740D01*
X122553218Y-89812500D01*
X132589000Y-89812500D01*
X132657121Y-89832502D01*
X132703614Y-89886158D01*
X132715000Y-89938500D01*
X132715000Y-90679000D01*
X132694998Y-90747121D01*
X132641342Y-90793614D01*
X132589000Y-90805000D01*
X122033682Y-90805000D01*
X121973754Y-90789836D01*
X121942393Y-90772879D01*
X121931093Y-90768129D01*
X121796307Y-90726405D01*
X121782205Y-90726199D01*
X121778975Y-90733008D01*
X121731705Y-90785980D01*
X121665137Y-90805000D01*
X121384422Y-90805000D01*
X121316301Y-90784998D01*
X121269808Y-90731342D01*
X121268027Y-90726566D01*
X121259232Y-90725302D01*
X121132658Y-90762554D01*
X121121294Y-90767145D01*
X121076311Y-90790662D01*
X121017935Y-90805000D01*
X120015000Y-90805000D01*
X120015000Y-94615500D01*
X119994998Y-94683621D01*
X119941342Y-94730114D01*
X119889000Y-94741500D01*
X115292417Y-94741500D01*
X115224296Y-94721498D01*
X115177803Y-94667842D01*
X115167699Y-94597568D01*
X115201933Y-94527815D01*
X115278089Y-94449229D01*
X115278091Y-94449226D01*
X115281992Y-94445201D01*
X115407290Y-94258738D01*
X115497588Y-94053033D01*
X115550032Y-93834589D01*
X115562963Y-93610310D01*
X115535975Y-93387285D01*
X115469918Y-93172565D01*
X115439398Y-93113432D01*
X115369454Y-92977919D01*
X115369454Y-92977918D01*
X115366882Y-92972936D01*
X115230123Y-92794708D01*
X115063964Y-92643515D01*
X115059217Y-92640537D01*
X115059214Y-92640535D01*
X114878405Y-92527115D01*
X114873656Y-92524136D01*
X114665217Y-92440344D01*
X114445233Y-92394787D01*
X114440622Y-92394521D01*
X114440621Y-92394521D01*
X114390048Y-92391605D01*
X114390044Y-92391605D01*
X114388225Y-92391500D01*
X114243001Y-92391500D01*
X114240214Y-92391749D01*
X114240208Y-92391749D01*
X114170071Y-92398009D01*
X114076238Y-92406383D01*
X114070824Y-92407864D01*
X114070819Y-92407865D01*
X113956262Y-92439205D01*
X113859549Y-92465663D01*
X113854491Y-92468075D01*
X113854487Y-92468077D01*
X113758166Y-92514020D01*
X113656782Y-92562378D01*
X113474346Y-92693471D01*
X113318008Y-92854799D01*
X113192710Y-93041262D01*
X113102412Y-93246967D01*
X113101103Y-93252418D01*
X113101102Y-93252422D01*
X113071746Y-93374698D01*
X113049968Y-93465411D01*
X113037037Y-93689690D01*
X113064025Y-93912715D01*
X113130082Y-94127435D01*
X113132652Y-94132415D01*
X113132654Y-94132419D01*
X113197852Y-94258738D01*
X113233118Y-94327064D01*
X113369877Y-94505292D01*
X113374016Y-94509058D01*
X113374025Y-94509068D01*
X113388575Y-94522307D01*
X113425497Y-94582947D01*
X113423774Y-94653923D01*
X113383951Y-94712700D01*
X113318674Y-94740616D01*
X113303775Y-94741500D01*
X83184500Y-94741500D01*
X83116379Y-94721498D01*
X83069886Y-94667842D01*
X83058500Y-94615500D01*
X83058500Y-91572703D01*
X84250743Y-91572703D01*
X84288268Y-91857734D01*
X84364129Y-92135036D01*
X84365813Y-92138984D01*
X84473566Y-92391605D01*
X84476923Y-92399476D01*
X84624561Y-92646161D01*
X84804313Y-92870528D01*
X85012851Y-93068423D01*
X85246317Y-93236186D01*
X85250112Y-93238195D01*
X85250113Y-93238196D01*
X85271869Y-93249715D01*
X85500392Y-93370712D01*
X85770373Y-93469511D01*
X86051264Y-93530755D01*
X86079841Y-93533004D01*
X86274282Y-93548307D01*
X86274291Y-93548307D01*
X86276739Y-93548500D01*
X86432271Y-93548500D01*
X86434407Y-93548354D01*
X86434418Y-93548354D01*
X86642548Y-93534165D01*
X86642554Y-93534164D01*
X86646825Y-93533873D01*
X86651020Y-93533004D01*
X86651022Y-93533004D01*
X86787583Y-93504724D01*
X86928342Y-93475574D01*
X87199343Y-93379607D01*
X87454812Y-93247750D01*
X87458313Y-93245289D01*
X87458317Y-93245287D01*
X87660715Y-93103039D01*
X87690023Y-93082441D01*
X87812651Y-92968488D01*
X87897479Y-92889661D01*
X87897481Y-92889658D01*
X87900622Y-92886740D01*
X88082713Y-92664268D01*
X88232927Y-92419142D01*
X88241714Y-92399124D01*
X110942000Y-92399124D01*
X110942301Y-92405272D01*
X110956527Y-92550361D01*
X110958910Y-92562396D01*
X111015317Y-92749223D01*
X111019992Y-92760565D01*
X111111612Y-92932879D01*
X111118399Y-92943095D01*
X111241747Y-93094335D01*
X111250391Y-93103039D01*
X111400763Y-93227438D01*
X111410931Y-93234297D01*
X111582607Y-93327121D01*
X111593907Y-93331871D01*
X111728693Y-93373595D01*
X111742795Y-93373801D01*
X111746000Y-93367045D01*
X111746000Y-93360047D01*
X112254000Y-93360047D01*
X112257973Y-93373578D01*
X112265768Y-93374698D01*
X112392342Y-93337446D01*
X112403710Y-93332853D01*
X112576666Y-93242434D01*
X112586928Y-93235718D01*
X112739020Y-93113432D01*
X112747786Y-93104848D01*
X112873236Y-92955344D01*
X112880160Y-92945233D01*
X112974184Y-92774202D01*
X112979012Y-92762938D01*
X113038025Y-92576905D01*
X113040573Y-92564916D01*
X113057607Y-92413053D01*
X113058000Y-92406029D01*
X113058000Y-92322115D01*
X113053525Y-92306876D01*
X113052135Y-92305671D01*
X113044452Y-92304000D01*
X112272115Y-92304000D01*
X112256876Y-92308475D01*
X112255671Y-92309865D01*
X112254000Y-92317548D01*
X112254000Y-93360047D01*
X111746000Y-93360047D01*
X111746000Y-92322115D01*
X111741525Y-92306876D01*
X111740135Y-92305671D01*
X111732452Y-92304000D01*
X110960115Y-92304000D01*
X110944876Y-92308475D01*
X110943671Y-92309865D01*
X110942000Y-92317548D01*
X110942000Y-92399124D01*
X88241714Y-92399124D01*
X88348483Y-92155898D01*
X88427244Y-91879406D01*
X88441692Y-91777885D01*
X110942000Y-91777885D01*
X110946475Y-91793124D01*
X110947865Y-91794329D01*
X110955548Y-91796000D01*
X111727885Y-91796000D01*
X111743124Y-91791525D01*
X111744329Y-91790135D01*
X111746000Y-91782452D01*
X111746000Y-91777885D01*
X112254000Y-91777885D01*
X112258475Y-91793124D01*
X112259865Y-91794329D01*
X112267548Y-91796000D01*
X113039885Y-91796000D01*
X113055124Y-91791525D01*
X113056329Y-91790135D01*
X113058000Y-91782452D01*
X113058000Y-91700876D01*
X113057699Y-91694728D01*
X113043473Y-91549639D01*
X113041090Y-91537604D01*
X112984683Y-91350777D01*
X112980008Y-91339435D01*
X112888388Y-91167121D01*
X112881601Y-91156905D01*
X112758253Y-91005665D01*
X112749609Y-90996961D01*
X112599237Y-90872562D01*
X112589069Y-90865703D01*
X112417393Y-90772879D01*
X112406093Y-90768129D01*
X112271307Y-90726405D01*
X112257205Y-90726199D01*
X112254000Y-90732955D01*
X112254000Y-91777885D01*
X111746000Y-91777885D01*
X111746000Y-90739953D01*
X111742027Y-90726422D01*
X111734232Y-90725302D01*
X111607658Y-90762554D01*
X111596290Y-90767147D01*
X111423334Y-90857566D01*
X111413072Y-90864282D01*
X111260980Y-90986568D01*
X111252214Y-90995152D01*
X111126764Y-91144656D01*
X111119840Y-91154767D01*
X111025816Y-91325798D01*
X111020988Y-91337062D01*
X110961975Y-91523095D01*
X110959427Y-91535084D01*
X110942393Y-91686947D01*
X110942000Y-91693971D01*
X110942000Y-91777885D01*
X88441692Y-91777885D01*
X88467751Y-91594784D01*
X88467829Y-91580044D01*
X88469235Y-91311583D01*
X88469235Y-91311576D01*
X88469257Y-91307297D01*
X88431732Y-91022266D01*
X88427191Y-91005665D01*
X88388901Y-90865703D01*
X88355871Y-90744964D01*
X88325324Y-90673348D01*
X102946819Y-90673348D01*
X102954209Y-90683650D01*
X103002808Y-90723217D01*
X103010084Y-90728330D01*
X103239999Y-90866750D01*
X103247913Y-90870783D01*
X103495048Y-90975431D01*
X103503453Y-90978308D01*
X103762873Y-91047093D01*
X103771585Y-91048755D01*
X104038114Y-91080300D01*
X104046979Y-91080718D01*
X104315278Y-91074395D01*
X104324133Y-91073558D01*
X104588864Y-91029495D01*
X104597498Y-91027422D01*
X104853383Y-90946496D01*
X104861644Y-90943225D01*
X105103567Y-90827055D01*
X105111292Y-90822649D01*
X105316318Y-90685656D01*
X105324606Y-90675738D01*
X105317350Y-90661560D01*
X104147812Y-89492022D01*
X104133868Y-89484408D01*
X104132035Y-89484539D01*
X104125420Y-89488790D01*
X102953985Y-90660225D01*
X102946819Y-90673348D01*
X88325324Y-90673348D01*
X88243077Y-90480524D01*
X88095439Y-90233839D01*
X87915687Y-90009472D01*
X87778563Y-89879346D01*
X87710258Y-89814527D01*
X87710255Y-89814525D01*
X87707149Y-89811577D01*
X87473683Y-89643814D01*
X87451843Y-89632250D01*
X87324863Y-89565018D01*
X87219608Y-89509288D01*
X87084617Y-89459888D01*
X86953658Y-89411964D01*
X86953656Y-89411963D01*
X86949627Y-89410489D01*
X86668736Y-89349245D01*
X86637685Y-89346801D01*
X86445718Y-89331693D01*
X86445709Y-89331693D01*
X86443261Y-89331500D01*
X86287729Y-89331500D01*
X86285593Y-89331646D01*
X86285582Y-89331646D01*
X86077452Y-89345835D01*
X86077446Y-89345836D01*
X86073175Y-89346127D01*
X86068980Y-89346996D01*
X86068978Y-89346996D01*
X85932416Y-89375277D01*
X85791658Y-89404426D01*
X85520657Y-89500393D01*
X85265188Y-89632250D01*
X85261687Y-89634711D01*
X85261683Y-89634713D01*
X85251594Y-89641804D01*
X85029977Y-89797559D01*
X84992374Y-89832502D01*
X84859874Y-89955629D01*
X84819378Y-89993260D01*
X84637287Y-90215732D01*
X84487073Y-90460858D01*
X84371517Y-90724102D01*
X84370342Y-90728229D01*
X84370341Y-90728230D01*
X84352792Y-90789836D01*
X84292756Y-91000594D01*
X84252249Y-91285216D01*
X84252227Y-91289505D01*
X84252226Y-91289512D01*
X84250778Y-91566000D01*
X84250743Y-91572703D01*
X83058500Y-91572703D01*
X83058500Y-89062793D01*
X102173142Y-89062793D01*
X102183678Y-89330960D01*
X102184653Y-89339789D01*
X102232869Y-89603799D01*
X102235078Y-89612401D01*
X102320012Y-89866979D01*
X102323416Y-89875196D01*
X102443374Y-90115270D01*
X102447893Y-90122910D01*
X102570408Y-90300176D01*
X102580730Y-90308531D01*
X102594383Y-90301407D01*
X103762978Y-89132812D01*
X103769356Y-89121132D01*
X104499408Y-89121132D01*
X104499539Y-89122965D01*
X104503790Y-89129580D01*
X105676007Y-90301797D01*
X105689407Y-90309114D01*
X105699311Y-90302127D01*
X105720237Y-90277233D01*
X105725457Y-90270047D01*
X105867480Y-90042321D01*
X105871632Y-90034481D01*
X105980151Y-89789014D01*
X105983161Y-89780653D01*
X106056005Y-89522365D01*
X106057809Y-89513657D01*
X106073193Y-89399124D01*
X110942000Y-89399124D01*
X110942301Y-89405272D01*
X110956527Y-89550361D01*
X110958910Y-89562396D01*
X111015317Y-89749223D01*
X111019992Y-89760565D01*
X111111612Y-89932879D01*
X111118399Y-89943095D01*
X111241747Y-90094335D01*
X111250391Y-90103039D01*
X111400763Y-90227438D01*
X111410931Y-90234297D01*
X111582607Y-90327121D01*
X111593907Y-90331871D01*
X111728693Y-90373595D01*
X111742795Y-90373801D01*
X111746000Y-90367045D01*
X111746000Y-90360047D01*
X112254000Y-90360047D01*
X112257973Y-90373578D01*
X112265768Y-90374698D01*
X112392342Y-90337446D01*
X112403710Y-90332853D01*
X112576666Y-90242434D01*
X112586928Y-90235718D01*
X112739020Y-90113432D01*
X112747786Y-90104848D01*
X112873236Y-89955344D01*
X112880160Y-89945233D01*
X112974184Y-89774202D01*
X112979012Y-89762938D01*
X113038025Y-89576905D01*
X113040573Y-89564916D01*
X113057607Y-89413053D01*
X113058000Y-89406029D01*
X113058000Y-89322115D01*
X113053525Y-89306876D01*
X113052135Y-89305671D01*
X113044452Y-89304000D01*
X112272115Y-89304000D01*
X112256876Y-89308475D01*
X112255671Y-89309865D01*
X112254000Y-89317548D01*
X112254000Y-90360047D01*
X111746000Y-90360047D01*
X111746000Y-89322115D01*
X111741525Y-89306876D01*
X111740135Y-89305671D01*
X111732452Y-89304000D01*
X110960115Y-89304000D01*
X110944876Y-89308475D01*
X110943671Y-89309865D01*
X110942000Y-89317548D01*
X110942000Y-89399124D01*
X106073193Y-89399124D01*
X106093701Y-89246440D01*
X106094229Y-89240047D01*
X106097901Y-89123222D01*
X106097774Y-89116779D01*
X106078733Y-88847863D01*
X106077480Y-88839053D01*
X106064311Y-88777885D01*
X110942000Y-88777885D01*
X110946475Y-88793124D01*
X110947865Y-88794329D01*
X110955548Y-88796000D01*
X111727885Y-88796000D01*
X111743124Y-88791525D01*
X111744329Y-88790135D01*
X111746000Y-88782452D01*
X111746000Y-88777885D01*
X112254000Y-88777885D01*
X112258475Y-88793124D01*
X112259865Y-88794329D01*
X112267548Y-88796000D01*
X113039885Y-88796000D01*
X113055124Y-88791525D01*
X113056329Y-88790135D01*
X113058000Y-88782452D01*
X113058000Y-88700876D01*
X113057699Y-88694728D01*
X113043473Y-88549639D01*
X113041090Y-88537604D01*
X112984683Y-88350777D01*
X112980008Y-88339435D01*
X112888388Y-88167121D01*
X112881601Y-88156905D01*
X112758253Y-88005665D01*
X112749609Y-87996961D01*
X112599237Y-87872562D01*
X112589069Y-87865703D01*
X112417393Y-87772879D01*
X112406093Y-87768129D01*
X112271307Y-87726405D01*
X112257205Y-87726199D01*
X112254000Y-87732955D01*
X112254000Y-88777885D01*
X111746000Y-88777885D01*
X111746000Y-87739953D01*
X111742027Y-87726422D01*
X111734232Y-87725302D01*
X111607658Y-87762554D01*
X111596290Y-87767147D01*
X111423334Y-87857566D01*
X111413072Y-87864282D01*
X111260980Y-87986568D01*
X111252214Y-87995152D01*
X111126764Y-88144656D01*
X111119840Y-88154767D01*
X111025816Y-88325798D01*
X111020988Y-88337062D01*
X110961975Y-88523095D01*
X110959427Y-88535084D01*
X110942393Y-88686947D01*
X110942000Y-88693971D01*
X110942000Y-88777885D01*
X106064311Y-88777885D01*
X106020994Y-88576687D01*
X106018518Y-88568166D01*
X105925627Y-88316373D01*
X105921967Y-88308268D01*
X105794533Y-88072093D01*
X105789771Y-88064588D01*
X105698512Y-87941033D01*
X105687387Y-87932593D01*
X105674791Y-87939419D01*
X104507022Y-89107188D01*
X104499408Y-89121132D01*
X103769356Y-89121132D01*
X103770592Y-89118868D01*
X103770461Y-89117035D01*
X103766210Y-89110420D01*
X102595215Y-87939425D01*
X102582374Y-87932413D01*
X102571685Y-87940208D01*
X102514194Y-88013134D01*
X102509203Y-88020478D01*
X102374404Y-88252552D01*
X102370500Y-88260522D01*
X102269745Y-88509273D01*
X102267001Y-88517717D01*
X102202301Y-88778182D01*
X102200774Y-88786933D01*
X102173421Y-89053909D01*
X102173142Y-89062793D01*
X83058500Y-89062793D01*
X83058500Y-87566845D01*
X102947200Y-87566845D01*
X102954180Y-87579970D01*
X104122188Y-88747978D01*
X104136132Y-88755592D01*
X104137965Y-88755461D01*
X104144580Y-88751210D01*
X105315479Y-87580311D01*
X105322333Y-87567759D01*
X105314126Y-87556689D01*
X105216274Y-87482010D01*
X105208849Y-87477133D01*
X104974696Y-87346001D01*
X104966643Y-87342212D01*
X104716357Y-87245383D01*
X104707867Y-87242771D01*
X104446420Y-87182172D01*
X104437642Y-87180782D01*
X104170265Y-87157624D01*
X104161394Y-87157484D01*
X103893414Y-87172232D01*
X103884604Y-87173346D01*
X103621381Y-87225704D01*
X103612823Y-87228045D01*
X103359588Y-87316975D01*
X103351454Y-87320495D01*
X103113285Y-87444214D01*
X103105713Y-87448854D01*
X102955603Y-87556123D01*
X102947200Y-87566845D01*
X83058500Y-87566845D01*
X83058500Y-86689690D01*
X113037037Y-86689690D01*
X113064025Y-86912715D01*
X113130082Y-87127435D01*
X113132652Y-87132415D01*
X113132654Y-87132419D01*
X113197852Y-87258738D01*
X113233118Y-87327064D01*
X113369877Y-87505292D01*
X113536036Y-87656485D01*
X113540783Y-87659463D01*
X113540786Y-87659465D01*
X113720847Y-87772416D01*
X113726344Y-87775864D01*
X113934783Y-87859656D01*
X114154767Y-87905213D01*
X114159378Y-87905479D01*
X114159379Y-87905479D01*
X114209952Y-87908395D01*
X114209956Y-87908395D01*
X114211775Y-87908500D01*
X114356999Y-87908500D01*
X114359786Y-87908251D01*
X114359792Y-87908251D01*
X114429929Y-87901991D01*
X114523762Y-87893617D01*
X114529176Y-87892136D01*
X114529181Y-87892135D01*
X114657080Y-87857145D01*
X114740451Y-87834337D01*
X114745509Y-87831925D01*
X114745513Y-87831923D01*
X114863042Y-87775864D01*
X114943218Y-87737622D01*
X115125654Y-87606529D01*
X115281992Y-87445201D01*
X115407290Y-87258738D01*
X115497588Y-87053033D01*
X115550032Y-86834589D01*
X115562963Y-86610310D01*
X115535975Y-86387285D01*
X115469918Y-86172565D01*
X115437590Y-86109929D01*
X115369454Y-85977919D01*
X115369454Y-85977918D01*
X115366882Y-85972936D01*
X115230123Y-85794708D01*
X115063964Y-85643515D01*
X115059217Y-85640537D01*
X115059214Y-85640535D01*
X114878405Y-85527115D01*
X114873656Y-85524136D01*
X114665217Y-85440344D01*
X114445233Y-85394787D01*
X114440622Y-85394521D01*
X114440621Y-85394521D01*
X114390048Y-85391605D01*
X114390044Y-85391605D01*
X114388225Y-85391500D01*
X114243001Y-85391500D01*
X114240214Y-85391749D01*
X114240208Y-85391749D01*
X114170071Y-85398009D01*
X114076238Y-85406383D01*
X114070824Y-85407864D01*
X114070819Y-85407865D01*
X113956262Y-85439205D01*
X113859549Y-85465663D01*
X113854491Y-85468075D01*
X113854487Y-85468077D01*
X113758165Y-85514021D01*
X113656782Y-85562378D01*
X113474346Y-85693471D01*
X113470439Y-85697503D01*
X113356209Y-85815379D01*
X113318008Y-85854799D01*
X113192710Y-86041262D01*
X113102412Y-86246967D01*
X113101103Y-86252418D01*
X113101102Y-86252422D01*
X113060147Y-86423013D01*
X113049968Y-86465411D01*
X113048456Y-86491631D01*
X113041609Y-86610400D01*
X113037037Y-86689690D01*
X83058500Y-86689690D01*
X83058500Y-84963348D01*
X94696819Y-84963348D01*
X94704209Y-84973650D01*
X94752808Y-85013217D01*
X94760084Y-85018330D01*
X94989999Y-85156750D01*
X94997913Y-85160783D01*
X95245048Y-85265431D01*
X95253453Y-85268308D01*
X95512873Y-85337093D01*
X95521585Y-85338755D01*
X95788114Y-85370300D01*
X95796979Y-85370718D01*
X96065278Y-85364395D01*
X96074133Y-85363558D01*
X96338864Y-85319495D01*
X96347498Y-85317422D01*
X96603383Y-85236496D01*
X96611644Y-85233225D01*
X96853567Y-85117055D01*
X96861292Y-85112649D01*
X97066318Y-84975656D01*
X97074606Y-84965738D01*
X97067350Y-84951560D01*
X95897812Y-83782022D01*
X95883868Y-83774408D01*
X95882035Y-83774539D01*
X95875420Y-83778790D01*
X94703985Y-84950225D01*
X94696819Y-84963348D01*
X83058500Y-84963348D01*
X83058500Y-83352793D01*
X93923142Y-83352793D01*
X93933678Y-83620960D01*
X93934653Y-83629789D01*
X93982869Y-83893799D01*
X93985078Y-83902401D01*
X94070012Y-84156979D01*
X94073416Y-84165196D01*
X94193374Y-84405270D01*
X94197893Y-84412910D01*
X94320408Y-84590176D01*
X94330730Y-84598531D01*
X94344383Y-84591407D01*
X95512978Y-83422812D01*
X95519356Y-83411132D01*
X96249408Y-83411132D01*
X96249539Y-83412965D01*
X96253790Y-83419580D01*
X97426007Y-84591797D01*
X97439407Y-84599114D01*
X97449311Y-84592127D01*
X97470237Y-84567233D01*
X97475457Y-84560047D01*
X97617480Y-84332321D01*
X97621632Y-84324481D01*
X97730151Y-84079014D01*
X97733161Y-84070653D01*
X97806005Y-83812365D01*
X97807809Y-83803657D01*
X97843701Y-83536440D01*
X97844229Y-83530047D01*
X97847901Y-83413222D01*
X97847774Y-83406779D01*
X97828733Y-83137863D01*
X97827480Y-83129053D01*
X97770994Y-82866687D01*
X97768518Y-82858166D01*
X97675627Y-82606373D01*
X97671972Y-82598278D01*
X97544533Y-82362093D01*
X97539771Y-82354588D01*
X97448512Y-82231033D01*
X97437387Y-82222593D01*
X97424791Y-82229419D01*
X96257022Y-83397188D01*
X96249408Y-83411132D01*
X95519356Y-83411132D01*
X95520592Y-83408868D01*
X95520461Y-83407035D01*
X95516210Y-83400420D01*
X94345215Y-82229425D01*
X94332374Y-82222413D01*
X94321685Y-82230208D01*
X94264194Y-82303134D01*
X94259203Y-82310478D01*
X94124404Y-82542552D01*
X94120500Y-82550522D01*
X94019745Y-82799273D01*
X94017001Y-82807717D01*
X93952301Y-83068182D01*
X93950774Y-83076933D01*
X93923421Y-83343909D01*
X93923142Y-83352793D01*
X83058500Y-83352793D01*
X83058500Y-81856845D01*
X94697200Y-81856845D01*
X94704180Y-81869970D01*
X95872188Y-83037978D01*
X95886132Y-83045592D01*
X95887965Y-83045461D01*
X95894580Y-83041210D01*
X97065479Y-81870311D01*
X97072333Y-81857759D01*
X97064126Y-81846689D01*
X96966274Y-81772010D01*
X96958849Y-81767133D01*
X96724696Y-81636001D01*
X96716643Y-81632212D01*
X96466357Y-81535383D01*
X96457867Y-81532771D01*
X96196420Y-81472172D01*
X96187642Y-81470782D01*
X95920265Y-81447624D01*
X95911394Y-81447484D01*
X95643414Y-81462232D01*
X95634604Y-81463346D01*
X95371381Y-81515704D01*
X95362823Y-81518045D01*
X95109588Y-81606975D01*
X95101454Y-81610495D01*
X94863285Y-81734214D01*
X94855713Y-81738854D01*
X94705603Y-81846123D01*
X94697200Y-81856845D01*
X83058500Y-81856845D01*
X83058500Y-61092703D01*
X84250743Y-61092703D01*
X84288268Y-61377734D01*
X84364129Y-61655036D01*
X84476923Y-61919476D01*
X84624561Y-62166161D01*
X84804313Y-62390528D01*
X84896634Y-62478137D01*
X84992742Y-62569340D01*
X85012851Y-62588423D01*
X85246317Y-62756186D01*
X85250112Y-62758195D01*
X85250113Y-62758196D01*
X85271869Y-62769715D01*
X85500392Y-62890712D01*
X85770373Y-62989511D01*
X86051264Y-63050755D01*
X86079841Y-63053004D01*
X86274282Y-63068307D01*
X86274291Y-63068307D01*
X86276739Y-63068500D01*
X86432271Y-63068500D01*
X86434407Y-63068354D01*
X86434418Y-63068354D01*
X86642548Y-63054165D01*
X86642554Y-63054164D01*
X86646825Y-63053873D01*
X86651020Y-63053004D01*
X86651022Y-63053004D01*
X86787584Y-63024723D01*
X86928342Y-62995574D01*
X87199343Y-62899607D01*
X87454812Y-62767750D01*
X87458313Y-62765289D01*
X87458317Y-62765287D01*
X87615125Y-62655080D01*
X87690023Y-62602441D01*
X87768403Y-62529606D01*
X87897479Y-62409661D01*
X87897481Y-62409658D01*
X87900622Y-62406740D01*
X88082713Y-62184268D01*
X88232927Y-61939142D01*
X88348483Y-61675898D01*
X88427244Y-61399406D01*
X88467751Y-61114784D01*
X88467845Y-61096951D01*
X88467867Y-61092703D01*
X146480743Y-61092703D01*
X146518268Y-61377734D01*
X146594129Y-61655036D01*
X146706923Y-61919476D01*
X146854561Y-62166161D01*
X147034313Y-62390528D01*
X147126634Y-62478137D01*
X147222742Y-62569340D01*
X147242851Y-62588423D01*
X147476317Y-62756186D01*
X147480112Y-62758195D01*
X147480113Y-62758196D01*
X147501869Y-62769715D01*
X147730392Y-62890712D01*
X148000373Y-62989511D01*
X148281264Y-63050755D01*
X148309841Y-63053004D01*
X148504282Y-63068307D01*
X148504291Y-63068307D01*
X148506739Y-63068500D01*
X148662271Y-63068500D01*
X148664407Y-63068354D01*
X148664418Y-63068354D01*
X148872548Y-63054165D01*
X148872554Y-63054164D01*
X148876825Y-63053873D01*
X148881020Y-63053004D01*
X148881022Y-63053004D01*
X149017584Y-63024723D01*
X149158342Y-62995574D01*
X149429343Y-62899607D01*
X149684812Y-62767750D01*
X149688313Y-62765289D01*
X149688317Y-62765287D01*
X149845125Y-62655080D01*
X149920023Y-62602441D01*
X149998403Y-62529606D01*
X150127479Y-62409661D01*
X150127481Y-62409658D01*
X150130622Y-62406740D01*
X150312713Y-62184268D01*
X150462927Y-61939142D01*
X150578483Y-61675898D01*
X150657244Y-61399406D01*
X150697751Y-61114784D01*
X150697845Y-61096951D01*
X150699235Y-60831583D01*
X150699235Y-60831576D01*
X150699257Y-60827297D01*
X150661732Y-60542266D01*
X150585871Y-60264964D01*
X150473077Y-60000524D01*
X150325439Y-59753839D01*
X150145687Y-59529472D01*
X149937149Y-59331577D01*
X149703683Y-59163814D01*
X149681843Y-59152250D01*
X149658654Y-59139972D01*
X149449608Y-59029288D01*
X149179627Y-58930489D01*
X148898736Y-58869245D01*
X148867685Y-58866801D01*
X148675718Y-58851693D01*
X148675709Y-58851693D01*
X148673261Y-58851500D01*
X148517729Y-58851500D01*
X148515593Y-58851646D01*
X148515582Y-58851646D01*
X148307452Y-58865835D01*
X148307446Y-58865836D01*
X148303175Y-58866127D01*
X148298980Y-58866996D01*
X148298978Y-58866996D01*
X148162416Y-58895277D01*
X148021658Y-58924426D01*
X147750657Y-59020393D01*
X147495188Y-59152250D01*
X147491687Y-59154711D01*
X147491683Y-59154713D01*
X147481594Y-59161804D01*
X147259977Y-59317559D01*
X147049378Y-59513260D01*
X146867287Y-59735732D01*
X146717073Y-59980858D01*
X146601517Y-60244102D01*
X146522756Y-60520594D01*
X146482249Y-60805216D01*
X146482227Y-60809505D01*
X146482226Y-60809512D01*
X146480765Y-61088417D01*
X146480743Y-61092703D01*
X88467867Y-61092703D01*
X88469235Y-60831583D01*
X88469235Y-60831576D01*
X88469257Y-60827297D01*
X88431732Y-60542266D01*
X88355871Y-60264964D01*
X88243077Y-60000524D01*
X88095439Y-59753839D01*
X87915687Y-59529472D01*
X87707149Y-59331577D01*
X87473683Y-59163814D01*
X87451843Y-59152250D01*
X87428654Y-59139972D01*
X87219608Y-59029288D01*
X86949627Y-58930489D01*
X86668736Y-58869245D01*
X86637685Y-58866801D01*
X86445718Y-58851693D01*
X86445709Y-58851693D01*
X86443261Y-58851500D01*
X86287729Y-58851500D01*
X86285593Y-58851646D01*
X86285582Y-58851646D01*
X86077452Y-58865835D01*
X86077446Y-58865836D01*
X86073175Y-58866127D01*
X86068980Y-58866996D01*
X86068978Y-58866996D01*
X85932416Y-58895277D01*
X85791658Y-58924426D01*
X85520657Y-59020393D01*
X85265188Y-59152250D01*
X85261687Y-59154711D01*
X85261683Y-59154713D01*
X85251594Y-59161804D01*
X85029977Y-59317559D01*
X84819378Y-59513260D01*
X84637287Y-59735732D01*
X84487073Y-59980858D01*
X84371517Y-60244102D01*
X84292756Y-60520594D01*
X84252249Y-60805216D01*
X84252227Y-60809505D01*
X84252226Y-60809512D01*
X84250765Y-61088417D01*
X84250743Y-61092703D01*
X83058500Y-61092703D01*
X83058500Y-57784500D01*
X83078502Y-57716379D01*
X83132158Y-57669886D01*
X83184500Y-57658500D01*
X151765500Y-57658500D01*
X151833621Y-57678502D01*
G37*
%TD.AperFunction*%
%TA.AperFunction,Conductor*%
G36*
X135922593Y-64615002D02*
G01*
X135943567Y-64631905D01*
X136995595Y-65683933D01*
X137029621Y-65746245D01*
X137032500Y-65773028D01*
X137032500Y-71396972D01*
X137012498Y-71465093D01*
X136995595Y-71486067D01*
X134927495Y-73554167D01*
X134865183Y-73588193D01*
X134816308Y-73589120D01*
X134753284Y-73577894D01*
X134679452Y-73576992D01*
X134535081Y-73575228D01*
X134535079Y-73575228D01*
X134529911Y-73575165D01*
X134309091Y-73608955D01*
X134150144Y-73660907D01*
X134079182Y-73663058D01*
X134018320Y-73626502D01*
X133986883Y-73562845D01*
X133985000Y-73541142D01*
X133985000Y-72390000D01*
X132715000Y-72390000D01*
X132715000Y-73538569D01*
X132694998Y-73606690D01*
X132641342Y-73653183D01*
X132571068Y-73663287D01*
X132546941Y-73657342D01*
X132438091Y-73618796D01*
X132438083Y-73618794D01*
X132433212Y-73617069D01*
X132428119Y-73616162D01*
X132428116Y-73616161D01*
X132218373Y-73578800D01*
X132218367Y-73578799D01*
X132213284Y-73577894D01*
X132139452Y-73576992D01*
X131995081Y-73575228D01*
X131995079Y-73575228D01*
X131989911Y-73575165D01*
X131769091Y-73608955D01*
X131556756Y-73678357D01*
X131358607Y-73781507D01*
X131354474Y-73784610D01*
X131354471Y-73784612D01*
X131184100Y-73912530D01*
X131179965Y-73915635D01*
X131025629Y-74077138D01*
X131022715Y-74081410D01*
X130998092Y-74117505D01*
X130943180Y-74162507D01*
X130894004Y-74172500D01*
X129278027Y-74172500D01*
X129209906Y-74152498D01*
X129188932Y-74135595D01*
X126936905Y-71883567D01*
X126902879Y-71821255D01*
X126900000Y-71794472D01*
X126900000Y-70423766D01*
X129827000Y-70423766D01*
X129827337Y-70430282D01*
X129837075Y-70524132D01*
X129839968Y-70537528D01*
X129890488Y-70688953D01*
X129896653Y-70702115D01*
X129980426Y-70837492D01*
X129989460Y-70848890D01*
X130102129Y-70961363D01*
X130113540Y-70970375D01*
X130249063Y-71053912D01*
X130262241Y-71060056D01*
X130413766Y-71110315D01*
X130427132Y-71113181D01*
X130519770Y-71122672D01*
X130526185Y-71123000D01*
X130537885Y-71123000D01*
X130553124Y-71118525D01*
X130554329Y-71117135D01*
X130556000Y-71109452D01*
X130556000Y-71104885D01*
X131064000Y-71104885D01*
X131068475Y-71120124D01*
X131069865Y-71121329D01*
X131077548Y-71123000D01*
X131093766Y-71123000D01*
X131100282Y-71122663D01*
X131194132Y-71112925D01*
X131207528Y-71110032D01*
X131358953Y-71059512D01*
X131372115Y-71053347D01*
X131507492Y-70969574D01*
X131518890Y-70960540D01*
X131631363Y-70847871D01*
X131640375Y-70836460D01*
X131723912Y-70700937D01*
X131730056Y-70687759D01*
X131780315Y-70536234D01*
X131783181Y-70522868D01*
X131792672Y-70430230D01*
X131793000Y-70423815D01*
X131793000Y-70423766D01*
X134272000Y-70423766D01*
X134272337Y-70430282D01*
X134282075Y-70524132D01*
X134284968Y-70537528D01*
X134335488Y-70688953D01*
X134341653Y-70702115D01*
X134425426Y-70837492D01*
X134434460Y-70848890D01*
X134547129Y-70961363D01*
X134558540Y-70970375D01*
X134694063Y-71053912D01*
X134707241Y-71060056D01*
X134858766Y-71110315D01*
X134872132Y-71113181D01*
X134964770Y-71122672D01*
X134971185Y-71123000D01*
X134982885Y-71123000D01*
X134998124Y-71118525D01*
X134999329Y-71117135D01*
X135001000Y-71109452D01*
X135001000Y-71104885D01*
X135509000Y-71104885D01*
X135513475Y-71120124D01*
X135514865Y-71121329D01*
X135522548Y-71123000D01*
X135538766Y-71123000D01*
X135545282Y-71122663D01*
X135639132Y-71112925D01*
X135652528Y-71110032D01*
X135803953Y-71059512D01*
X135817115Y-71053347D01*
X135952492Y-70969574D01*
X135963890Y-70960540D01*
X136076363Y-70847871D01*
X136085375Y-70836460D01*
X136168912Y-70700937D01*
X136175056Y-70687759D01*
X136225315Y-70536234D01*
X136228181Y-70522868D01*
X136237672Y-70430230D01*
X136238000Y-70423815D01*
X136238000Y-70399615D01*
X136233525Y-70384376D01*
X136232135Y-70383171D01*
X136224452Y-70381500D01*
X135527115Y-70381500D01*
X135511876Y-70385975D01*
X135510671Y-70387365D01*
X135509000Y-70395048D01*
X135509000Y-71104885D01*
X135001000Y-71104885D01*
X135001000Y-70399615D01*
X134996525Y-70384376D01*
X134995135Y-70383171D01*
X134987452Y-70381500D01*
X134290115Y-70381500D01*
X134274876Y-70385975D01*
X134273671Y-70387365D01*
X134272000Y-70395048D01*
X134272000Y-70423766D01*
X131793000Y-70423766D01*
X131793000Y-70399615D01*
X131788525Y-70384376D01*
X131787135Y-70383171D01*
X131779452Y-70381500D01*
X131082115Y-70381500D01*
X131066876Y-70385975D01*
X131065671Y-70387365D01*
X131064000Y-70395048D01*
X131064000Y-71104885D01*
X130556000Y-71104885D01*
X130556000Y-70399615D01*
X130551525Y-70384376D01*
X130550135Y-70383171D01*
X130542452Y-70381500D01*
X129845115Y-70381500D01*
X129829876Y-70385975D01*
X129828671Y-70387365D01*
X129827000Y-70395048D01*
X129827000Y-70423766D01*
X126900000Y-70423766D01*
X126900000Y-67605334D01*
X126920002Y-67537213D01*
X126973658Y-67490720D01*
X127043932Y-67480616D01*
X127096277Y-67503097D01*
X127096997Y-67501929D01*
X127233335Y-67585969D01*
X127245080Y-67593209D01*
X127410191Y-67647974D01*
X127417027Y-67648674D01*
X127417030Y-67648675D01*
X127468526Y-67653951D01*
X127512928Y-67658500D01*
X128212072Y-67658500D01*
X128215318Y-67658163D01*
X128215322Y-67658163D01*
X128309235Y-67648419D01*
X128309239Y-67648418D01*
X128316093Y-67647707D01*
X128322629Y-67645526D01*
X128322631Y-67645526D01*
X128455395Y-67601232D01*
X128481107Y-67592654D01*
X128629031Y-67501116D01*
X128634204Y-67495934D01*
X128634209Y-67495930D01*
X128655620Y-67474482D01*
X128717902Y-67440403D01*
X128744792Y-67437500D01*
X129849540Y-67437500D01*
X129917661Y-67457502D01*
X129964154Y-67511158D01*
X129974258Y-67581432D01*
X129956800Y-67629616D01*
X129896364Y-67727662D01*
X129891791Y-67735080D01*
X129837026Y-67900191D01*
X129826500Y-68002928D01*
X129826500Y-68602072D01*
X129837293Y-68706093D01*
X129892346Y-68871107D01*
X129983884Y-69019031D01*
X130091141Y-69126101D01*
X130125220Y-69188382D01*
X130120217Y-69259202D01*
X130091296Y-69304291D01*
X129988637Y-69407129D01*
X129979625Y-69418540D01*
X129896088Y-69554063D01*
X129889944Y-69567241D01*
X129839685Y-69718766D01*
X129836819Y-69732132D01*
X129827328Y-69824770D01*
X129827000Y-69831185D01*
X129827000Y-69855385D01*
X129831475Y-69870624D01*
X129832865Y-69871829D01*
X129840548Y-69873500D01*
X131774885Y-69873500D01*
X131790124Y-69869025D01*
X131791329Y-69867635D01*
X131793000Y-69859952D01*
X131793000Y-69831234D01*
X131792663Y-69824718D01*
X131782925Y-69730868D01*
X131780032Y-69717472D01*
X131729512Y-69566047D01*
X131723347Y-69552885D01*
X131639574Y-69417508D01*
X131630540Y-69406110D01*
X131528860Y-69304607D01*
X131494781Y-69242324D01*
X131499784Y-69171504D01*
X131528705Y-69126416D01*
X131529022Y-69126099D01*
X131636929Y-69018003D01*
X131640770Y-69011772D01*
X131724369Y-68876150D01*
X131724370Y-68876148D01*
X131728209Y-68869920D01*
X131782974Y-68704809D01*
X131793500Y-68602072D01*
X131793500Y-68002928D01*
X131782707Y-67898907D01*
X131727654Y-67733893D01*
X131663241Y-67629802D01*
X131644403Y-67561351D01*
X131665564Y-67493581D01*
X131720005Y-67448010D01*
X131770385Y-67437500D01*
X132000124Y-67437500D01*
X132019074Y-67438933D01*
X132033473Y-67441124D01*
X132033479Y-67441124D01*
X132040708Y-67442224D01*
X132048000Y-67441631D01*
X132048003Y-67441631D01*
X132093683Y-67437915D01*
X132103898Y-67437500D01*
X132112025Y-67437500D01*
X132115661Y-67437076D01*
X132115663Y-67437076D01*
X132119115Y-67436673D01*
X132140424Y-67434189D01*
X132144744Y-67433762D01*
X132217926Y-67427809D01*
X132224888Y-67425553D01*
X132230876Y-67424357D01*
X132236833Y-67422949D01*
X132244107Y-67422101D01*
X132250989Y-67419603D01*
X132250993Y-67419602D01*
X132313107Y-67397055D01*
X132317211Y-67395645D01*
X132387075Y-67373013D01*
X132393338Y-67369213D01*
X132398880Y-67366675D01*
X132404356Y-67363933D01*
X132411241Y-67361434D01*
X132472632Y-67321185D01*
X132476300Y-67318870D01*
X132539081Y-67280773D01*
X132543286Y-67277059D01*
X132543289Y-67277057D01*
X132547505Y-67273333D01*
X132547531Y-67273362D01*
X132550462Y-67270762D01*
X132553816Y-67267958D01*
X132559935Y-67263946D01*
X132613489Y-67207413D01*
X132615866Y-67204972D01*
X132830433Y-66990405D01*
X132892745Y-66956379D01*
X132919528Y-66953500D01*
X133251502Y-66953500D01*
X133253950Y-66953307D01*
X133253958Y-66953307D01*
X133282421Y-66951067D01*
X133282426Y-66951066D01*
X133288831Y-66950562D01*
X133388769Y-66921528D01*
X133440988Y-66906357D01*
X133440990Y-66906356D01*
X133448601Y-66904145D01*
X133539364Y-66850468D01*
X133584980Y-66823491D01*
X133584983Y-66823489D01*
X133591807Y-66819453D01*
X133709453Y-66701807D01*
X133713489Y-66694983D01*
X133713491Y-66694980D01*
X133790108Y-66565427D01*
X133794145Y-66558601D01*
X133840562Y-66398831D01*
X133841421Y-66387928D01*
X133843307Y-66363958D01*
X133843307Y-66363950D01*
X133843500Y-66361502D01*
X133843500Y-65204500D01*
X133863502Y-65136379D01*
X133917158Y-65089886D01*
X133969500Y-65078500D01*
X134000500Y-65078500D01*
X134068621Y-65098502D01*
X134115114Y-65152158D01*
X134126500Y-65204500D01*
X134126500Y-66361502D01*
X134126693Y-66363950D01*
X134126693Y-66363958D01*
X134128580Y-66387928D01*
X134129438Y-66398831D01*
X134175855Y-66558601D01*
X134179892Y-66565427D01*
X134256509Y-66694980D01*
X134256511Y-66694983D01*
X134260547Y-66701807D01*
X134378193Y-66819453D01*
X134430640Y-66850470D01*
X134479091Y-66902361D01*
X134492500Y-66958922D01*
X134492500Y-67470330D01*
X134472498Y-67538451D01*
X134455679Y-67559341D01*
X134428071Y-67586997D01*
X134384198Y-67658172D01*
X134341364Y-67727662D01*
X134336791Y-67735080D01*
X134282026Y-67900191D01*
X134271500Y-68002928D01*
X134271500Y-68602072D01*
X134282293Y-68706093D01*
X134337346Y-68871107D01*
X134428884Y-69019031D01*
X134536141Y-69126101D01*
X134570220Y-69188382D01*
X134565217Y-69259202D01*
X134536296Y-69304291D01*
X134433637Y-69407129D01*
X134424625Y-69418540D01*
X134341088Y-69554063D01*
X134334944Y-69567241D01*
X134284685Y-69718766D01*
X134281819Y-69732132D01*
X134272328Y-69824770D01*
X134272000Y-69831185D01*
X134272000Y-69855385D01*
X134276475Y-69870624D01*
X134277865Y-69871829D01*
X134285548Y-69873500D01*
X136219885Y-69873500D01*
X136235124Y-69869025D01*
X136236329Y-69867635D01*
X136238000Y-69859952D01*
X136238000Y-69831234D01*
X136237663Y-69824718D01*
X136227925Y-69730868D01*
X136225032Y-69717472D01*
X136174512Y-69566047D01*
X136168347Y-69552885D01*
X136084574Y-69417508D01*
X136075540Y-69406110D01*
X135973860Y-69304607D01*
X135939781Y-69242324D01*
X135944784Y-69171504D01*
X135973705Y-69126416D01*
X135974022Y-69126099D01*
X136081929Y-69018003D01*
X136085770Y-69011772D01*
X136169369Y-68876150D01*
X136169370Y-68876148D01*
X136173209Y-68869920D01*
X136227974Y-68704809D01*
X136238500Y-68602072D01*
X136238500Y-68002928D01*
X136227707Y-67898907D01*
X136172654Y-67733893D01*
X136081116Y-67585969D01*
X136075934Y-67580796D01*
X136075930Y-67580791D01*
X136054482Y-67559380D01*
X136020403Y-67497098D01*
X136017500Y-67470208D01*
X136017500Y-66094868D01*
X136018933Y-66075917D01*
X136021123Y-66061524D01*
X136021123Y-66061522D01*
X136022223Y-66054292D01*
X136017915Y-66001325D01*
X136017500Y-65991111D01*
X136017500Y-65982975D01*
X136016947Y-65978228D01*
X136014190Y-65954588D01*
X136013757Y-65950209D01*
X136008403Y-65884372D01*
X136008402Y-65884369D01*
X136007809Y-65877073D01*
X136005554Y-65870111D01*
X136004354Y-65864107D01*
X136002948Y-65858160D01*
X136002101Y-65850893D01*
X135977053Y-65781887D01*
X135975625Y-65777727D01*
X135955268Y-65714887D01*
X135955266Y-65714882D01*
X135953012Y-65707925D01*
X135949218Y-65701673D01*
X135946666Y-65696098D01*
X135943930Y-65690635D01*
X135941434Y-65683759D01*
X135901181Y-65622363D01*
X135898834Y-65618644D01*
X135897295Y-65616107D01*
X135860772Y-65555919D01*
X135853332Y-65547494D01*
X135853360Y-65547469D01*
X135850766Y-65544544D01*
X135847961Y-65541190D01*
X135843946Y-65535065D01*
X135787413Y-65481511D01*
X135784972Y-65479134D01*
X135780405Y-65474567D01*
X135746379Y-65412255D01*
X135743500Y-65385472D01*
X135743500Y-65053498D01*
X135740562Y-65016169D01*
X135694145Y-64856399D01*
X135652000Y-64785136D01*
X135634542Y-64716323D01*
X135657059Y-64648992D01*
X135712403Y-64604522D01*
X135760455Y-64595000D01*
X135854472Y-64595000D01*
X135922593Y-64615002D01*
G37*
%TD.AperFunction*%
%TD*%
M02*
