%TF.GenerationSoftware,KiCad,Pcbnew,6.0.7-f9a2dced07~116~ubuntu20.04.1*%
%TF.CreationDate,2022-08-02T17:22:42-07:00*%
%TF.ProjectId,MicPreampTest,4d696350-7265-4616-9d70-546573742e6b,rev?*%
%TF.SameCoordinates,Original*%
%TF.FileFunction,Copper,L2,Bot*%
%TF.FilePolarity,Positive*%
%FSLAX46Y46*%
G04 Gerber Fmt 4.6, Leading zero omitted, Abs format (unit mm)*
G04 Created by KiCad (PCBNEW 6.0.7-f9a2dced07~116~ubuntu20.04.1) date 2022-08-02 17:22:42*
%MOMM*%
%LPD*%
G01*
G04 APERTURE LIST*
%TA.AperFunction,ComponentPad*%
%ADD10R,1.700000X1.700000*%
%TD*%
%TA.AperFunction,ComponentPad*%
%ADD11O,1.700000X1.700000*%
%TD*%
%TA.AperFunction,ComponentPad*%
%ADD12O,1.100000X1.700000*%
%TD*%
%TA.AperFunction,ComponentPad*%
%ADD13C,3.400000*%
%TD*%
%TA.AperFunction,ComponentPad*%
%ADD14C,2.900000*%
%TD*%
%TA.AperFunction,ViaPad*%
%ADD15C,0.800000*%
%TD*%
G04 APERTURE END LIST*
D10*
%TO.P,J2,1,Pin_1*%
%TO.N,Mic HIS*%
X134625000Y-77475000D03*
D11*
%TO.P,J2,2,Pin_2*%
%TO.N,Mic In*%
X132085000Y-77475000D03*
%TO.P,J2,3,Pin_3*%
%TO.N,Amp Out*%
X134625000Y-74935000D03*
%TO.P,J2,4,Pin_4*%
%TO.N,Amp In*%
X132085000Y-74935000D03*
%TD*%
D12*
%TO.P,J5,R2*%
%TO.N,GND*%
X112000000Y-92050000D03*
%TO.P,J5,R1*%
X112000000Y-89050000D03*
%TO.P,J5,T*%
%TO.N,Mic In*%
X112000000Y-85050000D03*
%TO.P,J5,S*%
%TO.N,GND*%
X116600000Y-83950000D03*
%TD*%
%TO.P,J4,R2*%
%TO.N,GND*%
X138670000Y-92050000D03*
%TO.P,J4,R1*%
%TO.N,Net-(J3-PadR1)*%
X138670000Y-89050000D03*
%TO.P,J4,T*%
%TO.N,Net-(J3-PadT)*%
X138670000Y-85050000D03*
%TO.P,J4,S*%
%TO.N,Mic HIS*%
X143270000Y-83950000D03*
%TD*%
%TO.P,J3,R2*%
%TO.N,GND*%
X121525000Y-92050000D03*
%TO.P,J3,R1*%
%TO.N,Net-(J3-PadR1)*%
X121525000Y-89050000D03*
%TO.P,J3,T*%
%TO.N,Net-(J3-PadT)*%
X121525000Y-85050000D03*
%TO.P,J3,S*%
%TO.N,unconnected-(J3-PadS)*%
X126125000Y-83950000D03*
%TD*%
D13*
%TO.P,J1,1*%
%TO.N,GND*%
X99695000Y-78960000D03*
%TO.P,J1,2*%
%TO.N,Mic In*%
X92075000Y-78960000D03*
D14*
%TO.P,J1,3*%
%TO.N,GND*%
X95885000Y-83410000D03*
%TO.P,J1,G*%
X104135000Y-89120000D03*
%TD*%
D15*
%TO.N,GND*%
X89535000Y-78105000D03*
X91440000Y-81915000D03*
X94615000Y-78105000D03*
X111760000Y-86995000D03*
X113665000Y-84455000D03*
X123190000Y-90170000D03*
X140335000Y-83820000D03*
X127635000Y-84455000D03*
X125730000Y-77470000D03*
X121285000Y-83185000D03*
X121285000Y-86995000D03*
X138430000Y-86995000D03*
X125730000Y-86995000D03*
X129565000Y-92050000D03*
X134620000Y-90170000D03*
X132080000Y-90170000D03*
X129540000Y-61595000D03*
X139065000Y-73025000D03*
X139065000Y-67945000D03*
X124460000Y-66675000D03*
X125730000Y-74295000D03*
X116205000Y-74930000D03*
X107315000Y-74930000D03*
X99695000Y-74930000D03*
X92710000Y-76200000D03*
X88900000Y-58420000D03*
X95250000Y-58420000D03*
X101600000Y-58420000D03*
X107950000Y-58420000D03*
X114300000Y-58420000D03*
X120650000Y-58420000D03*
X127000000Y-58420000D03*
X133350000Y-58420000D03*
X139700000Y-58420000D03*
X146050000Y-58420000D03*
X151130000Y-63500000D03*
X151130000Y-69850000D03*
X151130000Y-76200000D03*
X151130000Y-82550000D03*
X151130000Y-88900000D03*
X133350000Y-93980000D03*
X107950000Y-93980000D03*
X101600000Y-93980000D03*
X95250000Y-93980000D03*
X88900000Y-93980000D03*
X83820000Y-88900000D03*
X83820000Y-82550000D03*
X83820000Y-76200000D03*
X83820000Y-69850000D03*
X83820000Y-63500000D03*
X83820000Y-93980000D03*
X83820000Y-58420000D03*
X151130000Y-58420000D03*
X151130000Y-93980000D03*
X112395000Y-93980000D03*
X119380000Y-93980000D03*
X116205000Y-93980000D03*
X142875000Y-93980000D03*
X139065000Y-93980000D03*
X125730000Y-93980000D03*
X121285000Y-93980000D03*
X135255000Y-62230000D03*
X128905000Y-65405000D03*
X127635000Y-68580000D03*
X136525000Y-66040000D03*
X133985000Y-67310000D03*
X130810000Y-73660000D03*
X134620000Y-73025000D03*
X136525000Y-76200000D03*
X130810000Y-76200000D03*
X134620000Y-79375000D03*
X132080000Y-79375000D03*
X110490000Y-78105000D03*
X113665000Y-78105000D03*
X134620000Y-84455000D03*
X132080000Y-84455000D03*
X132080000Y-87630000D03*
X134620000Y-87630000D03*
X130810000Y-71120000D03*
X135255000Y-71120000D03*
%TD*%
%TA.AperFunction,Conductor*%
%TO.N,GND*%
G36*
X151833621Y-57678502D02*
G01*
X151880114Y-57732158D01*
X151891500Y-57784500D01*
X151891500Y-94615500D01*
X151871498Y-94683621D01*
X151817842Y-94730114D01*
X151765500Y-94741500D01*
X141962417Y-94741500D01*
X141894296Y-94721498D01*
X141847803Y-94667842D01*
X141837699Y-94597568D01*
X141871933Y-94527815D01*
X141948089Y-94449229D01*
X141948091Y-94449226D01*
X141951992Y-94445201D01*
X142077290Y-94258738D01*
X142167588Y-94053033D01*
X142220032Y-93834589D01*
X142232963Y-93610310D01*
X142205975Y-93387285D01*
X142139918Y-93172565D01*
X142109398Y-93113432D01*
X142039454Y-92977919D01*
X142039454Y-92977918D01*
X142036882Y-92972936D01*
X141900123Y-92794708D01*
X141733964Y-92643515D01*
X141729217Y-92640537D01*
X141729214Y-92640535D01*
X141548405Y-92527115D01*
X141543656Y-92524136D01*
X141335217Y-92440344D01*
X141115233Y-92394787D01*
X141110622Y-92394521D01*
X141110621Y-92394521D01*
X141060048Y-92391605D01*
X141060044Y-92391605D01*
X141058225Y-92391500D01*
X140913001Y-92391500D01*
X140910214Y-92391749D01*
X140910208Y-92391749D01*
X140840071Y-92398009D01*
X140746238Y-92406383D01*
X140740824Y-92407864D01*
X140740819Y-92407865D01*
X140626262Y-92439205D01*
X140529549Y-92465663D01*
X140524491Y-92468075D01*
X140524487Y-92468077D01*
X140428166Y-92514020D01*
X140326782Y-92562378D01*
X140144346Y-92693471D01*
X139988008Y-92854799D01*
X139862710Y-93041262D01*
X139772412Y-93246967D01*
X139771103Y-93252418D01*
X139771102Y-93252422D01*
X139741746Y-93374698D01*
X139719968Y-93465411D01*
X139707037Y-93689690D01*
X139734025Y-93912715D01*
X139800082Y-94127435D01*
X139802652Y-94132415D01*
X139802654Y-94132419D01*
X139867852Y-94258738D01*
X139903118Y-94327064D01*
X140039877Y-94505292D01*
X140044016Y-94509058D01*
X140044025Y-94509068D01*
X140058575Y-94522307D01*
X140095497Y-94582947D01*
X140093774Y-94653923D01*
X140053951Y-94712700D01*
X139988674Y-94740616D01*
X139973775Y-94741500D01*
X124817417Y-94741500D01*
X124749296Y-94721498D01*
X124702803Y-94667842D01*
X124692699Y-94597568D01*
X124726933Y-94527815D01*
X124803089Y-94449229D01*
X124803091Y-94449226D01*
X124806992Y-94445201D01*
X124932290Y-94258738D01*
X125022588Y-94053033D01*
X125075032Y-93834589D01*
X125087963Y-93610310D01*
X125060975Y-93387285D01*
X124994918Y-93172565D01*
X124964398Y-93113432D01*
X124894454Y-92977919D01*
X124894454Y-92977918D01*
X124891882Y-92972936D01*
X124755123Y-92794708D01*
X124588964Y-92643515D01*
X124584217Y-92640537D01*
X124584214Y-92640535D01*
X124403405Y-92527115D01*
X124398656Y-92524136D01*
X124190217Y-92440344D01*
X123991175Y-92399124D01*
X137612000Y-92399124D01*
X137612301Y-92405272D01*
X137626527Y-92550361D01*
X137628910Y-92562396D01*
X137685317Y-92749223D01*
X137689992Y-92760565D01*
X137781612Y-92932879D01*
X137788399Y-92943095D01*
X137911747Y-93094335D01*
X137920391Y-93103039D01*
X138070763Y-93227438D01*
X138080931Y-93234297D01*
X138252607Y-93327121D01*
X138263907Y-93331871D01*
X138398693Y-93373595D01*
X138412795Y-93373801D01*
X138416000Y-93367045D01*
X138416000Y-93360047D01*
X138924000Y-93360047D01*
X138927973Y-93373578D01*
X138935768Y-93374698D01*
X139062342Y-93337446D01*
X139073710Y-93332853D01*
X139246666Y-93242434D01*
X139256928Y-93235718D01*
X139409020Y-93113432D01*
X139417786Y-93104848D01*
X139543236Y-92955344D01*
X139550160Y-92945233D01*
X139644184Y-92774202D01*
X139649012Y-92762938D01*
X139708025Y-92576905D01*
X139710573Y-92564916D01*
X139727607Y-92413053D01*
X139728000Y-92406029D01*
X139728000Y-92322115D01*
X139723525Y-92306876D01*
X139722135Y-92305671D01*
X139714452Y-92304000D01*
X138942115Y-92304000D01*
X138926876Y-92308475D01*
X138925671Y-92309865D01*
X138924000Y-92317548D01*
X138924000Y-93360047D01*
X138416000Y-93360047D01*
X138416000Y-92322115D01*
X138411525Y-92306876D01*
X138410135Y-92305671D01*
X138402452Y-92304000D01*
X137630115Y-92304000D01*
X137614876Y-92308475D01*
X137613671Y-92309865D01*
X137612000Y-92317548D01*
X137612000Y-92399124D01*
X123991175Y-92399124D01*
X123970233Y-92394787D01*
X123965622Y-92394521D01*
X123965621Y-92394521D01*
X123915048Y-92391605D01*
X123915044Y-92391605D01*
X123913225Y-92391500D01*
X123768001Y-92391500D01*
X123765214Y-92391749D01*
X123765208Y-92391749D01*
X123695071Y-92398009D01*
X123601238Y-92406383D01*
X123595824Y-92407864D01*
X123595819Y-92407865D01*
X123481262Y-92439205D01*
X123384549Y-92465663D01*
X123379491Y-92468075D01*
X123379487Y-92468077D01*
X123283166Y-92514020D01*
X123181782Y-92562378D01*
X122999346Y-92693471D01*
X122843008Y-92854799D01*
X122717710Y-93041262D01*
X122627412Y-93246967D01*
X122626103Y-93252418D01*
X122626102Y-93252422D01*
X122596746Y-93374698D01*
X122574968Y-93465411D01*
X122562037Y-93689690D01*
X122589025Y-93912715D01*
X122655082Y-94127435D01*
X122657652Y-94132415D01*
X122657654Y-94132419D01*
X122722852Y-94258738D01*
X122758118Y-94327064D01*
X122894877Y-94505292D01*
X122899016Y-94509058D01*
X122899025Y-94509068D01*
X122913575Y-94522307D01*
X122950497Y-94582947D01*
X122948774Y-94653923D01*
X122908951Y-94712700D01*
X122843674Y-94740616D01*
X122828775Y-94741500D01*
X120776000Y-94741500D01*
X120707879Y-94721498D01*
X120661386Y-94667842D01*
X120650000Y-94615500D01*
X120650000Y-93267070D01*
X120670002Y-93198949D01*
X120723658Y-93152456D01*
X120793932Y-93142352D01*
X120856316Y-93169986D01*
X120925763Y-93227438D01*
X120935931Y-93234297D01*
X121107607Y-93327121D01*
X121118907Y-93331871D01*
X121253693Y-93373595D01*
X121267795Y-93373801D01*
X121271000Y-93367045D01*
X121271000Y-93360047D01*
X121779000Y-93360047D01*
X121782973Y-93373578D01*
X121790768Y-93374698D01*
X121917342Y-93337446D01*
X121928710Y-93332853D01*
X122101666Y-93242434D01*
X122111928Y-93235718D01*
X122264020Y-93113432D01*
X122272786Y-93104848D01*
X122398236Y-92955344D01*
X122405160Y-92945233D01*
X122499184Y-92774202D01*
X122504012Y-92762938D01*
X122563025Y-92576905D01*
X122565573Y-92564916D01*
X122582607Y-92413053D01*
X122583000Y-92406029D01*
X122583000Y-92322115D01*
X122578525Y-92306876D01*
X122577135Y-92305671D01*
X122569452Y-92304000D01*
X121797115Y-92304000D01*
X121781876Y-92308475D01*
X121780671Y-92309865D01*
X121779000Y-92317548D01*
X121779000Y-93360047D01*
X121271000Y-93360047D01*
X121271000Y-91566000D01*
X121291002Y-91497879D01*
X121344658Y-91451386D01*
X121397000Y-91440000D01*
X121653000Y-91440000D01*
X121721121Y-91460002D01*
X121767614Y-91513658D01*
X121779000Y-91566000D01*
X121779000Y-91777885D01*
X121783475Y-91793124D01*
X121784865Y-91794329D01*
X121792548Y-91796000D01*
X122564885Y-91796000D01*
X122580124Y-91791525D01*
X122581329Y-91790135D01*
X122583000Y-91782452D01*
X122583000Y-91700876D01*
X122582700Y-91694730D01*
X122571283Y-91578296D01*
X122584542Y-91508548D01*
X122633405Y-91457041D01*
X122696682Y-91440000D01*
X137499168Y-91440000D01*
X137567289Y-91460002D01*
X137613782Y-91513658D01*
X137624383Y-91580044D01*
X137612393Y-91686945D01*
X137612000Y-91693971D01*
X137612000Y-91777885D01*
X137616475Y-91793124D01*
X137617865Y-91794329D01*
X137625548Y-91796000D01*
X138397885Y-91796000D01*
X138413124Y-91791525D01*
X138414329Y-91790135D01*
X138416000Y-91782452D01*
X138416000Y-91777885D01*
X138924000Y-91777885D01*
X138928475Y-91793124D01*
X138929865Y-91794329D01*
X138937548Y-91796000D01*
X139709885Y-91796000D01*
X139725124Y-91791525D01*
X139726329Y-91790135D01*
X139728000Y-91782452D01*
X139728000Y-91700876D01*
X139727699Y-91694728D01*
X139715734Y-91572703D01*
X146480743Y-91572703D01*
X146518268Y-91857734D01*
X146594129Y-92135036D01*
X146595813Y-92138984D01*
X146703566Y-92391605D01*
X146706923Y-92399476D01*
X146854561Y-92646161D01*
X147034313Y-92870528D01*
X147242851Y-93068423D01*
X147476317Y-93236186D01*
X147480112Y-93238195D01*
X147480113Y-93238196D01*
X147501869Y-93249715D01*
X147730392Y-93370712D01*
X148000373Y-93469511D01*
X148281264Y-93530755D01*
X148309841Y-93533004D01*
X148504282Y-93548307D01*
X148504291Y-93548307D01*
X148506739Y-93548500D01*
X148662271Y-93548500D01*
X148664407Y-93548354D01*
X148664418Y-93548354D01*
X148872548Y-93534165D01*
X148872554Y-93534164D01*
X148876825Y-93533873D01*
X148881020Y-93533004D01*
X148881022Y-93533004D01*
X149017583Y-93504724D01*
X149158342Y-93475574D01*
X149429343Y-93379607D01*
X149684812Y-93247750D01*
X149688313Y-93245289D01*
X149688317Y-93245287D01*
X149890715Y-93103039D01*
X149920023Y-93082441D01*
X150042651Y-92968488D01*
X150127479Y-92889661D01*
X150127481Y-92889658D01*
X150130622Y-92886740D01*
X150312713Y-92664268D01*
X150462927Y-92419142D01*
X150578483Y-92155898D01*
X150657244Y-91879406D01*
X150697751Y-91594784D01*
X150697829Y-91580044D01*
X150699235Y-91311583D01*
X150699235Y-91311576D01*
X150699257Y-91307297D01*
X150661732Y-91022266D01*
X150657191Y-91005665D01*
X150618901Y-90865703D01*
X150585871Y-90744964D01*
X150473077Y-90480524D01*
X150325439Y-90233839D01*
X150145687Y-90009472D01*
X150022289Y-89892372D01*
X149940258Y-89814527D01*
X149940255Y-89814525D01*
X149937149Y-89811577D01*
X149703683Y-89643814D01*
X149681843Y-89632250D01*
X149554863Y-89565018D01*
X149449608Y-89509288D01*
X149314617Y-89459888D01*
X149183658Y-89411964D01*
X149183656Y-89411963D01*
X149179627Y-89410489D01*
X148898736Y-89349245D01*
X148867685Y-89346801D01*
X148675718Y-89331693D01*
X148675709Y-89331693D01*
X148673261Y-89331500D01*
X148517729Y-89331500D01*
X148515593Y-89331646D01*
X148515582Y-89331646D01*
X148307452Y-89345835D01*
X148307446Y-89345836D01*
X148303175Y-89346127D01*
X148298980Y-89346996D01*
X148298978Y-89346996D01*
X148162417Y-89375276D01*
X148021658Y-89404426D01*
X147750657Y-89500393D01*
X147495188Y-89632250D01*
X147491687Y-89634711D01*
X147491683Y-89634713D01*
X147481594Y-89641804D01*
X147259977Y-89797559D01*
X147244892Y-89811577D01*
X147089874Y-89955629D01*
X147049378Y-89993260D01*
X146867287Y-90215732D01*
X146717073Y-90460858D01*
X146601517Y-90724102D01*
X146600342Y-90728229D01*
X146600341Y-90728230D01*
X146582792Y-90789836D01*
X146522756Y-91000594D01*
X146482249Y-91285216D01*
X146482227Y-91289505D01*
X146482226Y-91289512D01*
X146480778Y-91566000D01*
X146480743Y-91572703D01*
X139715734Y-91572703D01*
X139713473Y-91549639D01*
X139711090Y-91537604D01*
X139654683Y-91350777D01*
X139650008Y-91339435D01*
X139558388Y-91167121D01*
X139551601Y-91156905D01*
X139428253Y-91005665D01*
X139419609Y-90996961D01*
X139269237Y-90872562D01*
X139259069Y-90865703D01*
X139087393Y-90772879D01*
X139076093Y-90768129D01*
X138941307Y-90726405D01*
X138927205Y-90726199D01*
X138924000Y-90732955D01*
X138924000Y-91777885D01*
X138416000Y-91777885D01*
X138416000Y-91495359D01*
X138424554Y-91466225D01*
X138421493Y-91465559D01*
X138427053Y-91440000D01*
X138430000Y-91440000D01*
X138430000Y-90805000D01*
X138424681Y-90805000D01*
X138421104Y-90792818D01*
X138416000Y-90757320D01*
X138416000Y-90739953D01*
X138412027Y-90726422D01*
X138404232Y-90725302D01*
X138277658Y-90762554D01*
X138266294Y-90767145D01*
X138221311Y-90790662D01*
X138162935Y-90805000D01*
X134111000Y-90805000D01*
X134042879Y-90784998D01*
X133996386Y-90731342D01*
X133985000Y-90679000D01*
X133985000Y-89402237D01*
X137611500Y-89402237D01*
X137611800Y-89405293D01*
X137611800Y-89405300D01*
X137622194Y-89511299D01*
X137626635Y-89556592D01*
X137666474Y-89688546D01*
X137684793Y-89749223D01*
X137686632Y-89755315D01*
X137689527Y-89760760D01*
X137689528Y-89760762D01*
X137781046Y-89932879D01*
X137784087Y-89938599D01*
X137826285Y-89990339D01*
X137911390Y-90094689D01*
X137911393Y-90094692D01*
X137915285Y-90099464D01*
X137920033Y-90103392D01*
X137920034Y-90103393D01*
X137934391Y-90115270D01*
X138075230Y-90231783D01*
X138080647Y-90234712D01*
X138080650Y-90234714D01*
X138252410Y-90327584D01*
X138252415Y-90327586D01*
X138257830Y-90330514D01*
X138456129Y-90391898D01*
X138462254Y-90392542D01*
X138462255Y-90392542D01*
X138656446Y-90412952D01*
X138656448Y-90412952D01*
X138662575Y-90413596D01*
X138748485Y-90405777D01*
X138863164Y-90395341D01*
X138863167Y-90395340D01*
X138869303Y-90394782D01*
X138875209Y-90393044D01*
X138875213Y-90393043D01*
X139062531Y-90337912D01*
X139062530Y-90337912D01*
X139068440Y-90336173D01*
X139252400Y-90240001D01*
X139414177Y-90109929D01*
X139418441Y-90104848D01*
X139543650Y-89955629D01*
X139547609Y-89950911D01*
X139550573Y-89945519D01*
X139550576Y-89945515D01*
X139644646Y-89774402D01*
X139647613Y-89769005D01*
X139710379Y-89571139D01*
X139711350Y-89562489D01*
X139728107Y-89413087D01*
X139728500Y-89409587D01*
X139728500Y-88697763D01*
X139728129Y-88693971D01*
X139713966Y-88549534D01*
X139713965Y-88549531D01*
X139713365Y-88543408D01*
X139673526Y-88411454D01*
X139655152Y-88350593D01*
X139655151Y-88350590D01*
X139653368Y-88344685D01*
X139646089Y-88330995D01*
X139558809Y-88166847D01*
X139558808Y-88166845D01*
X139555913Y-88161401D01*
X139507083Y-88101529D01*
X139428610Y-88005311D01*
X139428607Y-88005308D01*
X139424715Y-88000536D01*
X139417770Y-87994790D01*
X139269518Y-87872145D01*
X139269519Y-87872145D01*
X139264770Y-87868217D01*
X139259353Y-87865288D01*
X139259350Y-87865286D01*
X139087590Y-87772416D01*
X139087585Y-87772414D01*
X139082170Y-87769486D01*
X138883871Y-87708102D01*
X138877746Y-87707458D01*
X138877745Y-87707458D01*
X138683554Y-87687048D01*
X138683552Y-87687048D01*
X138677425Y-87686404D01*
X138591515Y-87694223D01*
X138476836Y-87704659D01*
X138476833Y-87704660D01*
X138470697Y-87705218D01*
X138464791Y-87706956D01*
X138464787Y-87706957D01*
X138360597Y-87737622D01*
X138271560Y-87763827D01*
X138087600Y-87859999D01*
X137925823Y-87990071D01*
X137921865Y-87994788D01*
X137921863Y-87994790D01*
X137917042Y-88000536D01*
X137792391Y-88149089D01*
X137789427Y-88154481D01*
X137789424Y-88154485D01*
X137695354Y-88325598D01*
X137692387Y-88330995D01*
X137629621Y-88528861D01*
X137628935Y-88534978D01*
X137628934Y-88534982D01*
X137628640Y-88537604D01*
X137611500Y-88690413D01*
X137611500Y-89402237D01*
X133985000Y-89402237D01*
X133985000Y-86689690D01*
X139707037Y-86689690D01*
X139734025Y-86912715D01*
X139800082Y-87127435D01*
X139802652Y-87132415D01*
X139802654Y-87132419D01*
X139867852Y-87258738D01*
X139903118Y-87327064D01*
X140039877Y-87505292D01*
X140206036Y-87656485D01*
X140210783Y-87659463D01*
X140210786Y-87659465D01*
X140390847Y-87772416D01*
X140396344Y-87775864D01*
X140604783Y-87859656D01*
X140824767Y-87905213D01*
X140829378Y-87905479D01*
X140829379Y-87905479D01*
X140879952Y-87908395D01*
X140879956Y-87908395D01*
X140881775Y-87908500D01*
X141026999Y-87908500D01*
X141029786Y-87908251D01*
X141029792Y-87908251D01*
X141099929Y-87901991D01*
X141193762Y-87893617D01*
X141199176Y-87892136D01*
X141199181Y-87892135D01*
X141327080Y-87857145D01*
X141410451Y-87834337D01*
X141415509Y-87831925D01*
X141415513Y-87831923D01*
X141533042Y-87775864D01*
X141613218Y-87737622D01*
X141795654Y-87606529D01*
X141951992Y-87445201D01*
X142077290Y-87258738D01*
X142167588Y-87053033D01*
X142220032Y-86834589D01*
X142232963Y-86610310D01*
X142205975Y-86387285D01*
X142139918Y-86172565D01*
X142107590Y-86109929D01*
X142039454Y-85977919D01*
X142039454Y-85977918D01*
X142036882Y-85972936D01*
X141900123Y-85794708D01*
X141733964Y-85643515D01*
X141729217Y-85640537D01*
X141729214Y-85640535D01*
X141548405Y-85527115D01*
X141543656Y-85524136D01*
X141335217Y-85440344D01*
X141115233Y-85394787D01*
X141110622Y-85394521D01*
X141110621Y-85394521D01*
X141060048Y-85391605D01*
X141060044Y-85391605D01*
X141058225Y-85391500D01*
X140913001Y-85391500D01*
X140910214Y-85391749D01*
X140910208Y-85391749D01*
X140840071Y-85398009D01*
X140746238Y-85406383D01*
X140740824Y-85407864D01*
X140740819Y-85407865D01*
X140626262Y-85439205D01*
X140529549Y-85465663D01*
X140524491Y-85468075D01*
X140524487Y-85468077D01*
X140428165Y-85514021D01*
X140326782Y-85562378D01*
X140144346Y-85693471D01*
X139988008Y-85854799D01*
X139862710Y-86041262D01*
X139772412Y-86246967D01*
X139771103Y-86252418D01*
X139771102Y-86252422D01*
X139736790Y-86395341D01*
X139719968Y-86465411D01*
X139707037Y-86689690D01*
X133985000Y-86689690D01*
X133985000Y-85402237D01*
X137611500Y-85402237D01*
X137611800Y-85405293D01*
X137611800Y-85405300D01*
X137626034Y-85550466D01*
X137626635Y-85556592D01*
X137652878Y-85643515D01*
X137667961Y-85693471D01*
X137686632Y-85755315D01*
X137784087Y-85938599D01*
X137808464Y-85968488D01*
X137911390Y-86094689D01*
X137911393Y-86094692D01*
X137915285Y-86099464D01*
X137920033Y-86103392D01*
X137920034Y-86103393D01*
X137997624Y-86167581D01*
X138075230Y-86231783D01*
X138080647Y-86234712D01*
X138080650Y-86234714D01*
X138252410Y-86327584D01*
X138252415Y-86327586D01*
X138257830Y-86330514D01*
X138456129Y-86391898D01*
X138462254Y-86392542D01*
X138462255Y-86392542D01*
X138656446Y-86412952D01*
X138656448Y-86412952D01*
X138662575Y-86413596D01*
X138748485Y-86405777D01*
X138863164Y-86395341D01*
X138863167Y-86395340D01*
X138869303Y-86394782D01*
X138875209Y-86393044D01*
X138875213Y-86393043D01*
X139062531Y-86337912D01*
X139062530Y-86337912D01*
X139068440Y-86336173D01*
X139252400Y-86240001D01*
X139414177Y-86109929D01*
X139419662Y-86103393D01*
X139543650Y-85955629D01*
X139547609Y-85950911D01*
X139550573Y-85945519D01*
X139550576Y-85945515D01*
X139644646Y-85774402D01*
X139647613Y-85769005D01*
X139710379Y-85571139D01*
X139711350Y-85562489D01*
X139728107Y-85413087D01*
X139728500Y-85409587D01*
X139728500Y-84697763D01*
X139727780Y-84690413D01*
X139713966Y-84549534D01*
X139713965Y-84549531D01*
X139713365Y-84543408D01*
X139653368Y-84344685D01*
X139632814Y-84306029D01*
X139630798Y-84302237D01*
X142211500Y-84302237D01*
X142211800Y-84305293D01*
X142211800Y-84305300D01*
X142222352Y-84412910D01*
X142226635Y-84456592D01*
X142260039Y-84567233D01*
X142284793Y-84649223D01*
X142286632Y-84655315D01*
X142289527Y-84660760D01*
X142289528Y-84660762D01*
X142381046Y-84832879D01*
X142384087Y-84838599D01*
X142432917Y-84898471D01*
X142511390Y-84994689D01*
X142511393Y-84994692D01*
X142515285Y-84999464D01*
X142520033Y-85003392D01*
X142520034Y-85003393D01*
X142538090Y-85018330D01*
X142675230Y-85131783D01*
X142680647Y-85134712D01*
X142680650Y-85134714D01*
X142852410Y-85227584D01*
X142852415Y-85227586D01*
X142857830Y-85230514D01*
X143056129Y-85291898D01*
X143062254Y-85292542D01*
X143062255Y-85292542D01*
X143256446Y-85312952D01*
X143256448Y-85312952D01*
X143262575Y-85313596D01*
X143348485Y-85305777D01*
X143463164Y-85295341D01*
X143463167Y-85295340D01*
X143469303Y-85294782D01*
X143475209Y-85293044D01*
X143475213Y-85293043D01*
X143662531Y-85237912D01*
X143662530Y-85237912D01*
X143668440Y-85236173D01*
X143852400Y-85140001D01*
X144014177Y-85009929D01*
X144018441Y-85004848D01*
X144143650Y-84855629D01*
X144147609Y-84850911D01*
X144150573Y-84845519D01*
X144150576Y-84845515D01*
X144244646Y-84674402D01*
X144247613Y-84669005D01*
X144310379Y-84471139D01*
X144311350Y-84462489D01*
X144325950Y-84332321D01*
X144328500Y-84309587D01*
X144328500Y-83597763D01*
X144328129Y-83593971D01*
X144313966Y-83449534D01*
X144313965Y-83449531D01*
X144313365Y-83443408D01*
X144273526Y-83311454D01*
X144255152Y-83250593D01*
X144255151Y-83250590D01*
X144253368Y-83244685D01*
X144246089Y-83230995D01*
X144158809Y-83066847D01*
X144158808Y-83066845D01*
X144155913Y-83061401D01*
X144107083Y-83001529D01*
X144028610Y-82905311D01*
X144028607Y-82905308D01*
X144024715Y-82900536D01*
X144017770Y-82894790D01*
X143869518Y-82772145D01*
X143869519Y-82772145D01*
X143864770Y-82768217D01*
X143859353Y-82765288D01*
X143859350Y-82765286D01*
X143687590Y-82672416D01*
X143687585Y-82672414D01*
X143682170Y-82669486D01*
X143483871Y-82608102D01*
X143477746Y-82607458D01*
X143477745Y-82607458D01*
X143283554Y-82587048D01*
X143283552Y-82587048D01*
X143277425Y-82586404D01*
X143191515Y-82594223D01*
X143076836Y-82604659D01*
X143076833Y-82604660D01*
X143070697Y-82605218D01*
X143064791Y-82606956D01*
X143064787Y-82606957D01*
X142976454Y-82632955D01*
X142871560Y-82663827D01*
X142687600Y-82759999D01*
X142525823Y-82890071D01*
X142521865Y-82894788D01*
X142521863Y-82894790D01*
X142517042Y-82900536D01*
X142392391Y-83049089D01*
X142389427Y-83054481D01*
X142389424Y-83054485D01*
X142348430Y-83129053D01*
X142292387Y-83230995D01*
X142229621Y-83428861D01*
X142228935Y-83434978D01*
X142228934Y-83434982D01*
X142228640Y-83437604D01*
X142211500Y-83590413D01*
X142211500Y-84302237D01*
X139630798Y-84302237D01*
X139558809Y-84166847D01*
X139558808Y-84166845D01*
X139555913Y-84161401D01*
X139481901Y-84070653D01*
X139428610Y-84005311D01*
X139428607Y-84005308D01*
X139424715Y-84000536D01*
X139417770Y-83994790D01*
X139269518Y-83872145D01*
X139269519Y-83872145D01*
X139264770Y-83868217D01*
X139259353Y-83865288D01*
X139259350Y-83865286D01*
X139087590Y-83772416D01*
X139087585Y-83772414D01*
X139082170Y-83769486D01*
X138883871Y-83708102D01*
X138877746Y-83707458D01*
X138877745Y-83707458D01*
X138683554Y-83687048D01*
X138683552Y-83687048D01*
X138677425Y-83686404D01*
X138621156Y-83691525D01*
X138476836Y-83704659D01*
X138476833Y-83704660D01*
X138470697Y-83705218D01*
X138464791Y-83706956D01*
X138464787Y-83706957D01*
X138316932Y-83750473D01*
X138271560Y-83763827D01*
X138087600Y-83859999D01*
X137925823Y-83990071D01*
X137921865Y-83994788D01*
X137921863Y-83994790D01*
X137917042Y-84000536D01*
X137792391Y-84149089D01*
X137789427Y-84154481D01*
X137789424Y-84154485D01*
X137704156Y-84309587D01*
X137692387Y-84330995D01*
X137629621Y-84528861D01*
X137628935Y-84534978D01*
X137628934Y-84534982D01*
X137621806Y-84598531D01*
X137611500Y-84690413D01*
X137611500Y-85402237D01*
X133985000Y-85402237D01*
X133985000Y-78959500D01*
X134005002Y-78891379D01*
X134058658Y-78844886D01*
X134111000Y-78833500D01*
X135523134Y-78833500D01*
X135585316Y-78826745D01*
X135721705Y-78775615D01*
X135838261Y-78688261D01*
X135925615Y-78571705D01*
X135976745Y-78435316D01*
X135983500Y-78373134D01*
X135983500Y-76576866D01*
X135976745Y-76514684D01*
X135925615Y-76378295D01*
X135838261Y-76261739D01*
X135721705Y-76174385D01*
X135694905Y-76164338D01*
X135603203Y-76129960D01*
X135546439Y-76087318D01*
X135521739Y-76020756D01*
X135536947Y-75951408D01*
X135558493Y-75922727D01*
X135659435Y-75822137D01*
X135663096Y-75818489D01*
X135722594Y-75735689D01*
X135790435Y-75641277D01*
X135793453Y-75637077D01*
X135892430Y-75436811D01*
X135957370Y-75223069D01*
X135986529Y-75001590D01*
X135988156Y-74935000D01*
X135969852Y-74712361D01*
X135915431Y-74495702D01*
X135826354Y-74290840D01*
X135705014Y-74103277D01*
X135554670Y-73938051D01*
X135550619Y-73934852D01*
X135550615Y-73934848D01*
X135383414Y-73802800D01*
X135383410Y-73802798D01*
X135379359Y-73799598D01*
X135183789Y-73691638D01*
X135178920Y-73689914D01*
X135178916Y-73689912D01*
X134978087Y-73618795D01*
X134978083Y-73618794D01*
X134973212Y-73617069D01*
X134968119Y-73616162D01*
X134968116Y-73616161D01*
X134758373Y-73578800D01*
X134758367Y-73578799D01*
X134753284Y-73577894D01*
X134679452Y-73576992D01*
X134535081Y-73575228D01*
X134535079Y-73575228D01*
X134529911Y-73575165D01*
X134309091Y-73608955D01*
X134150144Y-73660907D01*
X134079182Y-73663058D01*
X134018320Y-73626502D01*
X133986883Y-73562845D01*
X133985000Y-73541142D01*
X133985000Y-72390000D01*
X132715000Y-72390000D01*
X132715000Y-73538569D01*
X132694998Y-73606690D01*
X132641342Y-73653183D01*
X132571068Y-73663287D01*
X132546941Y-73657342D01*
X132438091Y-73618796D01*
X132438083Y-73618794D01*
X132433212Y-73617069D01*
X132428119Y-73616162D01*
X132428116Y-73616161D01*
X132218373Y-73578800D01*
X132218367Y-73578799D01*
X132213284Y-73577894D01*
X132139452Y-73576992D01*
X131995081Y-73575228D01*
X131995079Y-73575228D01*
X131989911Y-73575165D01*
X131769091Y-73608955D01*
X131556756Y-73678357D01*
X131358607Y-73781507D01*
X131354474Y-73784610D01*
X131354471Y-73784612D01*
X131330247Y-73802800D01*
X131179965Y-73915635D01*
X131025629Y-74077138D01*
X130899743Y-74261680D01*
X130805688Y-74464305D01*
X130745989Y-74679570D01*
X130722251Y-74901695D01*
X130722548Y-74906848D01*
X130722548Y-74906851D01*
X130728011Y-75001590D01*
X130735110Y-75124715D01*
X130736247Y-75129761D01*
X130736248Y-75129767D01*
X130756119Y-75217939D01*
X130784222Y-75342639D01*
X130868266Y-75549616D01*
X130984987Y-75740088D01*
X131131250Y-75908938D01*
X131303126Y-76051632D01*
X131364196Y-76087318D01*
X131376445Y-76094476D01*
X131425169Y-76146114D01*
X131438240Y-76215897D01*
X131411509Y-76281669D01*
X131371055Y-76315027D01*
X131358607Y-76321507D01*
X131354474Y-76324610D01*
X131354471Y-76324612D01*
X131184100Y-76452530D01*
X131179965Y-76455635D01*
X131025629Y-76617138D01*
X130899743Y-76801680D01*
X130805688Y-77004305D01*
X130745989Y-77219570D01*
X130722251Y-77441695D01*
X130722548Y-77446848D01*
X130722548Y-77446851D01*
X130731399Y-77600354D01*
X130735110Y-77664715D01*
X130736247Y-77669761D01*
X130736248Y-77669767D01*
X130760304Y-77776508D01*
X130784222Y-77882639D01*
X130868266Y-78089616D01*
X130984987Y-78280088D01*
X131131250Y-78448938D01*
X131303126Y-78591632D01*
X131496000Y-78704338D01*
X131704692Y-78784030D01*
X131709760Y-78785061D01*
X131709763Y-78785062D01*
X131817017Y-78806883D01*
X131923597Y-78828567D01*
X131928772Y-78828757D01*
X131928774Y-78828757D01*
X132141673Y-78836564D01*
X132141677Y-78836564D01*
X132146837Y-78836753D01*
X132151957Y-78836097D01*
X132151959Y-78836097D01*
X132363288Y-78809025D01*
X132363289Y-78809025D01*
X132368416Y-78808368D01*
X132552792Y-78753052D01*
X132623788Y-78752635D01*
X132683738Y-78790668D01*
X132713610Y-78855074D01*
X132715000Y-78873738D01*
X132715000Y-90679000D01*
X132694998Y-90747121D01*
X132641342Y-90793614D01*
X132589000Y-90805000D01*
X122033682Y-90805000D01*
X121973754Y-90789836D01*
X121942393Y-90772879D01*
X121931093Y-90768129D01*
X121796307Y-90726405D01*
X121782205Y-90726199D01*
X121778975Y-90733008D01*
X121731705Y-90785980D01*
X121665137Y-90805000D01*
X121384422Y-90805000D01*
X121316301Y-90784998D01*
X121269808Y-90731342D01*
X121268027Y-90726566D01*
X121259232Y-90725302D01*
X121132658Y-90762554D01*
X121121294Y-90767145D01*
X121076311Y-90790662D01*
X121017935Y-90805000D01*
X120015000Y-90805000D01*
X120015000Y-94615500D01*
X119994998Y-94683621D01*
X119941342Y-94730114D01*
X119889000Y-94741500D01*
X115292417Y-94741500D01*
X115224296Y-94721498D01*
X115177803Y-94667842D01*
X115167699Y-94597568D01*
X115201933Y-94527815D01*
X115278089Y-94449229D01*
X115278091Y-94449226D01*
X115281992Y-94445201D01*
X115407290Y-94258738D01*
X115497588Y-94053033D01*
X115550032Y-93834589D01*
X115562963Y-93610310D01*
X115535975Y-93387285D01*
X115469918Y-93172565D01*
X115439398Y-93113432D01*
X115369454Y-92977919D01*
X115369454Y-92977918D01*
X115366882Y-92972936D01*
X115230123Y-92794708D01*
X115063964Y-92643515D01*
X115059217Y-92640537D01*
X115059214Y-92640535D01*
X114878405Y-92527115D01*
X114873656Y-92524136D01*
X114665217Y-92440344D01*
X114445233Y-92394787D01*
X114440622Y-92394521D01*
X114440621Y-92394521D01*
X114390048Y-92391605D01*
X114390044Y-92391605D01*
X114388225Y-92391500D01*
X114243001Y-92391500D01*
X114240214Y-92391749D01*
X114240208Y-92391749D01*
X114170071Y-92398009D01*
X114076238Y-92406383D01*
X114070824Y-92407864D01*
X114070819Y-92407865D01*
X113956262Y-92439205D01*
X113859549Y-92465663D01*
X113854491Y-92468075D01*
X113854487Y-92468077D01*
X113758166Y-92514020D01*
X113656782Y-92562378D01*
X113474346Y-92693471D01*
X113318008Y-92854799D01*
X113192710Y-93041262D01*
X113102412Y-93246967D01*
X113101103Y-93252418D01*
X113101102Y-93252422D01*
X113071746Y-93374698D01*
X113049968Y-93465411D01*
X113037037Y-93689690D01*
X113064025Y-93912715D01*
X113130082Y-94127435D01*
X113132652Y-94132415D01*
X113132654Y-94132419D01*
X113197852Y-94258738D01*
X113233118Y-94327064D01*
X113369877Y-94505292D01*
X113374016Y-94509058D01*
X113374025Y-94509068D01*
X113388575Y-94522307D01*
X113425497Y-94582947D01*
X113423774Y-94653923D01*
X113383951Y-94712700D01*
X113318674Y-94740616D01*
X113303775Y-94741500D01*
X83184500Y-94741500D01*
X83116379Y-94721498D01*
X83069886Y-94667842D01*
X83058500Y-94615500D01*
X83058500Y-91572703D01*
X84250743Y-91572703D01*
X84288268Y-91857734D01*
X84364129Y-92135036D01*
X84365813Y-92138984D01*
X84473566Y-92391605D01*
X84476923Y-92399476D01*
X84624561Y-92646161D01*
X84804313Y-92870528D01*
X85012851Y-93068423D01*
X85246317Y-93236186D01*
X85250112Y-93238195D01*
X85250113Y-93238196D01*
X85271869Y-93249715D01*
X85500392Y-93370712D01*
X85770373Y-93469511D01*
X86051264Y-93530755D01*
X86079841Y-93533004D01*
X86274282Y-93548307D01*
X86274291Y-93548307D01*
X86276739Y-93548500D01*
X86432271Y-93548500D01*
X86434407Y-93548354D01*
X86434418Y-93548354D01*
X86642548Y-93534165D01*
X86642554Y-93534164D01*
X86646825Y-93533873D01*
X86651020Y-93533004D01*
X86651022Y-93533004D01*
X86787583Y-93504724D01*
X86928342Y-93475574D01*
X87199343Y-93379607D01*
X87454812Y-93247750D01*
X87458313Y-93245289D01*
X87458317Y-93245287D01*
X87660715Y-93103039D01*
X87690023Y-93082441D01*
X87812651Y-92968488D01*
X87897479Y-92889661D01*
X87897481Y-92889658D01*
X87900622Y-92886740D01*
X88082713Y-92664268D01*
X88232927Y-92419142D01*
X88241714Y-92399124D01*
X110942000Y-92399124D01*
X110942301Y-92405272D01*
X110956527Y-92550361D01*
X110958910Y-92562396D01*
X111015317Y-92749223D01*
X111019992Y-92760565D01*
X111111612Y-92932879D01*
X111118399Y-92943095D01*
X111241747Y-93094335D01*
X111250391Y-93103039D01*
X111400763Y-93227438D01*
X111410931Y-93234297D01*
X111582607Y-93327121D01*
X111593907Y-93331871D01*
X111728693Y-93373595D01*
X111742795Y-93373801D01*
X111746000Y-93367045D01*
X111746000Y-93360047D01*
X112254000Y-93360047D01*
X112257973Y-93373578D01*
X112265768Y-93374698D01*
X112392342Y-93337446D01*
X112403710Y-93332853D01*
X112576666Y-93242434D01*
X112586928Y-93235718D01*
X112739020Y-93113432D01*
X112747786Y-93104848D01*
X112873236Y-92955344D01*
X112880160Y-92945233D01*
X112974184Y-92774202D01*
X112979012Y-92762938D01*
X113038025Y-92576905D01*
X113040573Y-92564916D01*
X113057607Y-92413053D01*
X113058000Y-92406029D01*
X113058000Y-92322115D01*
X113053525Y-92306876D01*
X113052135Y-92305671D01*
X113044452Y-92304000D01*
X112272115Y-92304000D01*
X112256876Y-92308475D01*
X112255671Y-92309865D01*
X112254000Y-92317548D01*
X112254000Y-93360047D01*
X111746000Y-93360047D01*
X111746000Y-92322115D01*
X111741525Y-92306876D01*
X111740135Y-92305671D01*
X111732452Y-92304000D01*
X110960115Y-92304000D01*
X110944876Y-92308475D01*
X110943671Y-92309865D01*
X110942000Y-92317548D01*
X110942000Y-92399124D01*
X88241714Y-92399124D01*
X88348483Y-92155898D01*
X88427244Y-91879406D01*
X88441692Y-91777885D01*
X110942000Y-91777885D01*
X110946475Y-91793124D01*
X110947865Y-91794329D01*
X110955548Y-91796000D01*
X111727885Y-91796000D01*
X111743124Y-91791525D01*
X111744329Y-91790135D01*
X111746000Y-91782452D01*
X111746000Y-91777885D01*
X112254000Y-91777885D01*
X112258475Y-91793124D01*
X112259865Y-91794329D01*
X112267548Y-91796000D01*
X113039885Y-91796000D01*
X113055124Y-91791525D01*
X113056329Y-91790135D01*
X113058000Y-91782452D01*
X113058000Y-91700876D01*
X113057699Y-91694728D01*
X113043473Y-91549639D01*
X113041090Y-91537604D01*
X112984683Y-91350777D01*
X112980008Y-91339435D01*
X112888388Y-91167121D01*
X112881601Y-91156905D01*
X112758253Y-91005665D01*
X112749609Y-90996961D01*
X112599237Y-90872562D01*
X112589069Y-90865703D01*
X112417393Y-90772879D01*
X112406093Y-90768129D01*
X112271307Y-90726405D01*
X112257205Y-90726199D01*
X112254000Y-90732955D01*
X112254000Y-91777885D01*
X111746000Y-91777885D01*
X111746000Y-90739953D01*
X111742027Y-90726422D01*
X111734232Y-90725302D01*
X111607658Y-90762554D01*
X111596290Y-90767147D01*
X111423334Y-90857566D01*
X111413072Y-90864282D01*
X111260980Y-90986568D01*
X111252214Y-90995152D01*
X111126764Y-91144656D01*
X111119840Y-91154767D01*
X111025816Y-91325798D01*
X111020988Y-91337062D01*
X110961975Y-91523095D01*
X110959427Y-91535084D01*
X110942393Y-91686947D01*
X110942000Y-91693971D01*
X110942000Y-91777885D01*
X88441692Y-91777885D01*
X88467751Y-91594784D01*
X88467829Y-91580044D01*
X88469235Y-91311583D01*
X88469235Y-91311576D01*
X88469257Y-91307297D01*
X88431732Y-91022266D01*
X88427191Y-91005665D01*
X88388901Y-90865703D01*
X88355871Y-90744964D01*
X88325324Y-90673348D01*
X102946819Y-90673348D01*
X102954209Y-90683650D01*
X103002808Y-90723217D01*
X103010084Y-90728330D01*
X103239999Y-90866750D01*
X103247913Y-90870783D01*
X103495048Y-90975431D01*
X103503453Y-90978308D01*
X103762873Y-91047093D01*
X103771585Y-91048755D01*
X104038114Y-91080300D01*
X104046979Y-91080718D01*
X104315278Y-91074395D01*
X104324133Y-91073558D01*
X104588864Y-91029495D01*
X104597498Y-91027422D01*
X104853383Y-90946496D01*
X104861644Y-90943225D01*
X105103567Y-90827055D01*
X105111292Y-90822649D01*
X105316318Y-90685656D01*
X105324606Y-90675738D01*
X105317350Y-90661560D01*
X104147812Y-89492022D01*
X104133868Y-89484408D01*
X104132035Y-89484539D01*
X104125420Y-89488790D01*
X102953985Y-90660225D01*
X102946819Y-90673348D01*
X88325324Y-90673348D01*
X88243077Y-90480524D01*
X88095439Y-90233839D01*
X87915687Y-90009472D01*
X87792289Y-89892372D01*
X87710258Y-89814527D01*
X87710255Y-89814525D01*
X87707149Y-89811577D01*
X87473683Y-89643814D01*
X87451843Y-89632250D01*
X87324863Y-89565018D01*
X87219608Y-89509288D01*
X87084617Y-89459888D01*
X86953658Y-89411964D01*
X86953656Y-89411963D01*
X86949627Y-89410489D01*
X86668736Y-89349245D01*
X86637685Y-89346801D01*
X86445718Y-89331693D01*
X86445709Y-89331693D01*
X86443261Y-89331500D01*
X86287729Y-89331500D01*
X86285593Y-89331646D01*
X86285582Y-89331646D01*
X86077452Y-89345835D01*
X86077446Y-89345836D01*
X86073175Y-89346127D01*
X86068980Y-89346996D01*
X86068978Y-89346996D01*
X85932416Y-89375277D01*
X85791658Y-89404426D01*
X85520657Y-89500393D01*
X85265188Y-89632250D01*
X85261687Y-89634711D01*
X85261683Y-89634713D01*
X85251594Y-89641804D01*
X85029977Y-89797559D01*
X85014892Y-89811577D01*
X84859874Y-89955629D01*
X84819378Y-89993260D01*
X84637287Y-90215732D01*
X84487073Y-90460858D01*
X84371517Y-90724102D01*
X84370342Y-90728229D01*
X84370341Y-90728230D01*
X84352792Y-90789836D01*
X84292756Y-91000594D01*
X84252249Y-91285216D01*
X84252227Y-91289505D01*
X84252226Y-91289512D01*
X84250778Y-91566000D01*
X84250743Y-91572703D01*
X83058500Y-91572703D01*
X83058500Y-89062793D01*
X102173142Y-89062793D01*
X102183678Y-89330960D01*
X102184653Y-89339789D01*
X102232869Y-89603799D01*
X102235078Y-89612401D01*
X102320012Y-89866979D01*
X102323416Y-89875196D01*
X102443374Y-90115270D01*
X102447893Y-90122910D01*
X102570408Y-90300176D01*
X102580730Y-90308531D01*
X102594383Y-90301407D01*
X103762978Y-89132812D01*
X103769356Y-89121132D01*
X104499408Y-89121132D01*
X104499539Y-89122965D01*
X104503790Y-89129580D01*
X105676007Y-90301797D01*
X105689407Y-90309114D01*
X105699311Y-90302127D01*
X105720237Y-90277233D01*
X105725457Y-90270047D01*
X105867480Y-90042321D01*
X105871632Y-90034481D01*
X105980151Y-89789014D01*
X105983161Y-89780653D01*
X106056005Y-89522365D01*
X106057809Y-89513657D01*
X106073193Y-89399124D01*
X110942000Y-89399124D01*
X110942301Y-89405272D01*
X110956527Y-89550361D01*
X110958910Y-89562396D01*
X111015317Y-89749223D01*
X111019992Y-89760565D01*
X111111612Y-89932879D01*
X111118399Y-89943095D01*
X111241747Y-90094335D01*
X111250391Y-90103039D01*
X111400763Y-90227438D01*
X111410931Y-90234297D01*
X111582607Y-90327121D01*
X111593907Y-90331871D01*
X111728693Y-90373595D01*
X111742795Y-90373801D01*
X111746000Y-90367045D01*
X111746000Y-90360047D01*
X112254000Y-90360047D01*
X112257973Y-90373578D01*
X112265768Y-90374698D01*
X112392342Y-90337446D01*
X112403710Y-90332853D01*
X112576666Y-90242434D01*
X112586928Y-90235718D01*
X112739020Y-90113432D01*
X112747786Y-90104848D01*
X112873236Y-89955344D01*
X112880160Y-89945233D01*
X112974184Y-89774202D01*
X112979012Y-89762938D01*
X113038025Y-89576905D01*
X113040573Y-89564916D01*
X113057607Y-89413053D01*
X113058000Y-89406029D01*
X113058000Y-89402237D01*
X120466500Y-89402237D01*
X120466800Y-89405293D01*
X120466800Y-89405300D01*
X120477194Y-89511299D01*
X120481635Y-89556592D01*
X120521474Y-89688546D01*
X120539793Y-89749223D01*
X120541632Y-89755315D01*
X120544527Y-89760760D01*
X120544528Y-89760762D01*
X120636046Y-89932879D01*
X120639087Y-89938599D01*
X120681285Y-89990339D01*
X120766390Y-90094689D01*
X120766393Y-90094692D01*
X120770285Y-90099464D01*
X120775033Y-90103392D01*
X120775034Y-90103393D01*
X120789391Y-90115270D01*
X120930230Y-90231783D01*
X120935647Y-90234712D01*
X120935650Y-90234714D01*
X121107410Y-90327584D01*
X121107415Y-90327586D01*
X121112830Y-90330514D01*
X121311129Y-90391898D01*
X121317254Y-90392542D01*
X121317255Y-90392542D01*
X121511446Y-90412952D01*
X121511448Y-90412952D01*
X121517575Y-90413596D01*
X121603485Y-90405777D01*
X121718164Y-90395341D01*
X121718167Y-90395340D01*
X121724303Y-90394782D01*
X121730209Y-90393044D01*
X121730213Y-90393043D01*
X121917531Y-90337912D01*
X121917530Y-90337912D01*
X121923440Y-90336173D01*
X122107400Y-90240001D01*
X122269177Y-90109929D01*
X122273441Y-90104848D01*
X122398650Y-89955629D01*
X122402609Y-89950911D01*
X122405573Y-89945519D01*
X122405576Y-89945515D01*
X122499646Y-89774402D01*
X122502613Y-89769005D01*
X122565379Y-89571139D01*
X122566350Y-89562489D01*
X122583107Y-89413087D01*
X122583500Y-89409587D01*
X122583500Y-88697763D01*
X122583129Y-88693971D01*
X122568966Y-88549534D01*
X122568965Y-88549531D01*
X122568365Y-88543408D01*
X122528526Y-88411454D01*
X122510152Y-88350593D01*
X122510151Y-88350590D01*
X122508368Y-88344685D01*
X122501089Y-88330995D01*
X122413809Y-88166847D01*
X122413808Y-88166845D01*
X122410913Y-88161401D01*
X122362083Y-88101529D01*
X122283610Y-88005311D01*
X122283607Y-88005308D01*
X122279715Y-88000536D01*
X122272770Y-87994790D01*
X122124518Y-87872145D01*
X122124519Y-87872145D01*
X122119770Y-87868217D01*
X122114353Y-87865288D01*
X122114350Y-87865286D01*
X121942590Y-87772416D01*
X121942585Y-87772414D01*
X121937170Y-87769486D01*
X121738871Y-87708102D01*
X121732746Y-87707458D01*
X121732745Y-87707458D01*
X121538554Y-87687048D01*
X121538552Y-87687048D01*
X121532425Y-87686404D01*
X121446515Y-87694223D01*
X121331836Y-87704659D01*
X121331833Y-87704660D01*
X121325697Y-87705218D01*
X121319791Y-87706956D01*
X121319787Y-87706957D01*
X121215597Y-87737622D01*
X121126560Y-87763827D01*
X120942600Y-87859999D01*
X120780823Y-87990071D01*
X120776865Y-87994788D01*
X120776863Y-87994790D01*
X120772042Y-88000536D01*
X120647391Y-88149089D01*
X120644427Y-88154481D01*
X120644424Y-88154485D01*
X120550354Y-88325598D01*
X120547387Y-88330995D01*
X120484621Y-88528861D01*
X120483935Y-88534978D01*
X120483934Y-88534982D01*
X120483640Y-88537604D01*
X120466500Y-88690413D01*
X120466500Y-89402237D01*
X113058000Y-89402237D01*
X113058000Y-89322115D01*
X113053525Y-89306876D01*
X113052135Y-89305671D01*
X113044452Y-89304000D01*
X112272115Y-89304000D01*
X112256876Y-89308475D01*
X112255671Y-89309865D01*
X112254000Y-89317548D01*
X112254000Y-90360047D01*
X111746000Y-90360047D01*
X111746000Y-89322115D01*
X111741525Y-89306876D01*
X111740135Y-89305671D01*
X111732452Y-89304000D01*
X110960115Y-89304000D01*
X110944876Y-89308475D01*
X110943671Y-89309865D01*
X110942000Y-89317548D01*
X110942000Y-89399124D01*
X106073193Y-89399124D01*
X106093701Y-89246440D01*
X106094229Y-89240047D01*
X106097901Y-89123222D01*
X106097774Y-89116779D01*
X106078733Y-88847863D01*
X106077480Y-88839053D01*
X106064311Y-88777885D01*
X110942000Y-88777885D01*
X110946475Y-88793124D01*
X110947865Y-88794329D01*
X110955548Y-88796000D01*
X111727885Y-88796000D01*
X111743124Y-88791525D01*
X111744329Y-88790135D01*
X111746000Y-88782452D01*
X111746000Y-88777885D01*
X112254000Y-88777885D01*
X112258475Y-88793124D01*
X112259865Y-88794329D01*
X112267548Y-88796000D01*
X113039885Y-88796000D01*
X113055124Y-88791525D01*
X113056329Y-88790135D01*
X113058000Y-88782452D01*
X113058000Y-88700876D01*
X113057699Y-88694728D01*
X113043473Y-88549639D01*
X113041090Y-88537604D01*
X112984683Y-88350777D01*
X112980008Y-88339435D01*
X112888388Y-88167121D01*
X112881601Y-88156905D01*
X112758253Y-88005665D01*
X112749609Y-87996961D01*
X112599237Y-87872562D01*
X112589069Y-87865703D01*
X112417393Y-87772879D01*
X112406093Y-87768129D01*
X112271307Y-87726405D01*
X112257205Y-87726199D01*
X112254000Y-87732955D01*
X112254000Y-88777885D01*
X111746000Y-88777885D01*
X111746000Y-87739953D01*
X111742027Y-87726422D01*
X111734232Y-87725302D01*
X111607658Y-87762554D01*
X111596290Y-87767147D01*
X111423334Y-87857566D01*
X111413072Y-87864282D01*
X111260980Y-87986568D01*
X111252214Y-87995152D01*
X111126764Y-88144656D01*
X111119840Y-88154767D01*
X111025816Y-88325798D01*
X111020988Y-88337062D01*
X110961975Y-88523095D01*
X110959427Y-88535084D01*
X110942393Y-88686947D01*
X110942000Y-88693971D01*
X110942000Y-88777885D01*
X106064311Y-88777885D01*
X106020994Y-88576687D01*
X106018518Y-88568166D01*
X105925627Y-88316373D01*
X105921967Y-88308268D01*
X105794533Y-88072093D01*
X105789771Y-88064588D01*
X105698512Y-87941033D01*
X105687387Y-87932593D01*
X105674791Y-87939419D01*
X104507022Y-89107188D01*
X104499408Y-89121132D01*
X103769356Y-89121132D01*
X103770592Y-89118868D01*
X103770461Y-89117035D01*
X103766210Y-89110420D01*
X102595215Y-87939425D01*
X102582374Y-87932413D01*
X102571685Y-87940208D01*
X102514194Y-88013134D01*
X102509203Y-88020478D01*
X102374404Y-88252552D01*
X102370500Y-88260522D01*
X102269745Y-88509273D01*
X102267001Y-88517717D01*
X102202301Y-88778182D01*
X102200774Y-88786933D01*
X102173421Y-89053909D01*
X102173142Y-89062793D01*
X83058500Y-89062793D01*
X83058500Y-87566845D01*
X102947200Y-87566845D01*
X102954180Y-87579970D01*
X104122188Y-88747978D01*
X104136132Y-88755592D01*
X104137965Y-88755461D01*
X104144580Y-88751210D01*
X105315479Y-87580311D01*
X105322333Y-87567759D01*
X105314126Y-87556689D01*
X105216274Y-87482010D01*
X105208849Y-87477133D01*
X104974696Y-87346001D01*
X104966643Y-87342212D01*
X104716357Y-87245383D01*
X104707867Y-87242771D01*
X104446420Y-87182172D01*
X104437642Y-87180782D01*
X104170265Y-87157624D01*
X104161394Y-87157484D01*
X103893414Y-87172232D01*
X103884604Y-87173346D01*
X103621381Y-87225704D01*
X103612823Y-87228045D01*
X103359588Y-87316975D01*
X103351454Y-87320495D01*
X103113285Y-87444214D01*
X103105713Y-87448854D01*
X102955603Y-87556123D01*
X102947200Y-87566845D01*
X83058500Y-87566845D01*
X83058500Y-86689690D01*
X113037037Y-86689690D01*
X113064025Y-86912715D01*
X113130082Y-87127435D01*
X113132652Y-87132415D01*
X113132654Y-87132419D01*
X113197852Y-87258738D01*
X113233118Y-87327064D01*
X113369877Y-87505292D01*
X113536036Y-87656485D01*
X113540783Y-87659463D01*
X113540786Y-87659465D01*
X113720847Y-87772416D01*
X113726344Y-87775864D01*
X113934783Y-87859656D01*
X114154767Y-87905213D01*
X114159378Y-87905479D01*
X114159379Y-87905479D01*
X114209952Y-87908395D01*
X114209956Y-87908395D01*
X114211775Y-87908500D01*
X114356999Y-87908500D01*
X114359786Y-87908251D01*
X114359792Y-87908251D01*
X114429929Y-87901991D01*
X114523762Y-87893617D01*
X114529176Y-87892136D01*
X114529181Y-87892135D01*
X114657080Y-87857145D01*
X114740451Y-87834337D01*
X114745509Y-87831925D01*
X114745513Y-87831923D01*
X114863042Y-87775864D01*
X114943218Y-87737622D01*
X115125654Y-87606529D01*
X115281992Y-87445201D01*
X115407290Y-87258738D01*
X115497588Y-87053033D01*
X115550032Y-86834589D01*
X115558386Y-86689690D01*
X122562037Y-86689690D01*
X122589025Y-86912715D01*
X122655082Y-87127435D01*
X122657652Y-87132415D01*
X122657654Y-87132419D01*
X122722852Y-87258738D01*
X122758118Y-87327064D01*
X122894877Y-87505292D01*
X123061036Y-87656485D01*
X123065783Y-87659463D01*
X123065786Y-87659465D01*
X123245847Y-87772416D01*
X123251344Y-87775864D01*
X123459783Y-87859656D01*
X123679767Y-87905213D01*
X123684378Y-87905479D01*
X123684379Y-87905479D01*
X123734952Y-87908395D01*
X123734956Y-87908395D01*
X123736775Y-87908500D01*
X123881999Y-87908500D01*
X123884786Y-87908251D01*
X123884792Y-87908251D01*
X123954929Y-87901991D01*
X124048762Y-87893617D01*
X124054176Y-87892136D01*
X124054181Y-87892135D01*
X124182080Y-87857145D01*
X124265451Y-87834337D01*
X124270509Y-87831925D01*
X124270513Y-87831923D01*
X124388042Y-87775864D01*
X124468218Y-87737622D01*
X124650654Y-87606529D01*
X124806992Y-87445201D01*
X124932290Y-87258738D01*
X125022588Y-87053033D01*
X125075032Y-86834589D01*
X125087963Y-86610310D01*
X125060975Y-86387285D01*
X124994918Y-86172565D01*
X124962590Y-86109929D01*
X124894454Y-85977919D01*
X124894454Y-85977918D01*
X124891882Y-85972936D01*
X124755123Y-85794708D01*
X124588964Y-85643515D01*
X124584217Y-85640537D01*
X124584214Y-85640535D01*
X124403405Y-85527115D01*
X124398656Y-85524136D01*
X124190217Y-85440344D01*
X123970233Y-85394787D01*
X123965622Y-85394521D01*
X123965621Y-85394521D01*
X123915048Y-85391605D01*
X123915044Y-85391605D01*
X123913225Y-85391500D01*
X123768001Y-85391500D01*
X123765214Y-85391749D01*
X123765208Y-85391749D01*
X123695071Y-85398009D01*
X123601238Y-85406383D01*
X123595824Y-85407864D01*
X123595819Y-85407865D01*
X123481262Y-85439205D01*
X123384549Y-85465663D01*
X123379491Y-85468075D01*
X123379487Y-85468077D01*
X123283165Y-85514021D01*
X123181782Y-85562378D01*
X122999346Y-85693471D01*
X122843008Y-85854799D01*
X122717710Y-86041262D01*
X122627412Y-86246967D01*
X122626103Y-86252418D01*
X122626102Y-86252422D01*
X122591790Y-86395341D01*
X122574968Y-86465411D01*
X122562037Y-86689690D01*
X115558386Y-86689690D01*
X115562963Y-86610310D01*
X115535975Y-86387285D01*
X115469918Y-86172565D01*
X115437590Y-86109929D01*
X115369454Y-85977919D01*
X115369454Y-85977918D01*
X115366882Y-85972936D01*
X115230123Y-85794708D01*
X115063964Y-85643515D01*
X115059217Y-85640537D01*
X115059214Y-85640535D01*
X114878405Y-85527115D01*
X114873656Y-85524136D01*
X114665217Y-85440344D01*
X114481207Y-85402237D01*
X120466500Y-85402237D01*
X120466800Y-85405293D01*
X120466800Y-85405300D01*
X120481034Y-85550466D01*
X120481635Y-85556592D01*
X120507878Y-85643515D01*
X120522961Y-85693471D01*
X120541632Y-85755315D01*
X120639087Y-85938599D01*
X120663464Y-85968488D01*
X120766390Y-86094689D01*
X120766393Y-86094692D01*
X120770285Y-86099464D01*
X120775033Y-86103392D01*
X120775034Y-86103393D01*
X120852624Y-86167581D01*
X120930230Y-86231783D01*
X120935647Y-86234712D01*
X120935650Y-86234714D01*
X121107410Y-86327584D01*
X121107415Y-86327586D01*
X121112830Y-86330514D01*
X121311129Y-86391898D01*
X121317254Y-86392542D01*
X121317255Y-86392542D01*
X121511446Y-86412952D01*
X121511448Y-86412952D01*
X121517575Y-86413596D01*
X121603485Y-86405777D01*
X121718164Y-86395341D01*
X121718167Y-86395340D01*
X121724303Y-86394782D01*
X121730209Y-86393044D01*
X121730213Y-86393043D01*
X121917531Y-86337912D01*
X121917530Y-86337912D01*
X121923440Y-86336173D01*
X122107400Y-86240001D01*
X122269177Y-86109929D01*
X122274662Y-86103393D01*
X122398650Y-85955629D01*
X122402609Y-85950911D01*
X122405573Y-85945519D01*
X122405576Y-85945515D01*
X122499646Y-85774402D01*
X122502613Y-85769005D01*
X122565379Y-85571139D01*
X122566350Y-85562489D01*
X122583107Y-85413087D01*
X122583500Y-85409587D01*
X122583500Y-84697763D01*
X122582780Y-84690413D01*
X122568966Y-84549534D01*
X122568965Y-84549531D01*
X122568365Y-84543408D01*
X122508368Y-84344685D01*
X122487814Y-84306029D01*
X122485798Y-84302237D01*
X125066500Y-84302237D01*
X125066800Y-84305293D01*
X125066800Y-84305300D01*
X125077352Y-84412910D01*
X125081635Y-84456592D01*
X125115039Y-84567233D01*
X125139793Y-84649223D01*
X125141632Y-84655315D01*
X125144527Y-84660760D01*
X125144528Y-84660762D01*
X125236046Y-84832879D01*
X125239087Y-84838599D01*
X125287917Y-84898471D01*
X125366390Y-84994689D01*
X125366393Y-84994692D01*
X125370285Y-84999464D01*
X125375033Y-85003392D01*
X125375034Y-85003393D01*
X125393090Y-85018330D01*
X125530230Y-85131783D01*
X125535647Y-85134712D01*
X125535650Y-85134714D01*
X125707410Y-85227584D01*
X125707415Y-85227586D01*
X125712830Y-85230514D01*
X125911129Y-85291898D01*
X125917254Y-85292542D01*
X125917255Y-85292542D01*
X126111446Y-85312952D01*
X126111448Y-85312952D01*
X126117575Y-85313596D01*
X126203485Y-85305777D01*
X126318164Y-85295341D01*
X126318167Y-85295340D01*
X126324303Y-85294782D01*
X126330209Y-85293044D01*
X126330213Y-85293043D01*
X126517531Y-85237912D01*
X126517530Y-85237912D01*
X126523440Y-85236173D01*
X126707400Y-85140001D01*
X126869177Y-85009929D01*
X126873441Y-85004848D01*
X126998650Y-84855629D01*
X127002609Y-84850911D01*
X127005573Y-84845519D01*
X127005576Y-84845515D01*
X127099646Y-84674402D01*
X127102613Y-84669005D01*
X127165379Y-84471139D01*
X127166350Y-84462489D01*
X127180950Y-84332321D01*
X127183500Y-84309587D01*
X127183500Y-83597763D01*
X127183129Y-83593971D01*
X127168966Y-83449534D01*
X127168965Y-83449531D01*
X127168365Y-83443408D01*
X127128526Y-83311454D01*
X127110152Y-83250593D01*
X127110151Y-83250590D01*
X127108368Y-83244685D01*
X127101089Y-83230995D01*
X127013809Y-83066847D01*
X127013808Y-83066845D01*
X127010913Y-83061401D01*
X126962083Y-83001529D01*
X126883610Y-82905311D01*
X126883607Y-82905308D01*
X126879715Y-82900536D01*
X126872770Y-82894790D01*
X126724518Y-82772145D01*
X126724519Y-82772145D01*
X126719770Y-82768217D01*
X126714353Y-82765288D01*
X126714350Y-82765286D01*
X126542590Y-82672416D01*
X126542585Y-82672414D01*
X126537170Y-82669486D01*
X126338871Y-82608102D01*
X126332746Y-82607458D01*
X126332745Y-82607458D01*
X126138554Y-82587048D01*
X126138552Y-82587048D01*
X126132425Y-82586404D01*
X126046515Y-82594223D01*
X125931836Y-82604659D01*
X125931833Y-82604660D01*
X125925697Y-82605218D01*
X125919791Y-82606956D01*
X125919787Y-82606957D01*
X125831454Y-82632955D01*
X125726560Y-82663827D01*
X125542600Y-82759999D01*
X125380823Y-82890071D01*
X125376865Y-82894788D01*
X125376863Y-82894790D01*
X125372042Y-82900536D01*
X125247391Y-83049089D01*
X125244427Y-83054481D01*
X125244424Y-83054485D01*
X125203430Y-83129053D01*
X125147387Y-83230995D01*
X125084621Y-83428861D01*
X125083935Y-83434978D01*
X125083934Y-83434982D01*
X125083640Y-83437604D01*
X125066500Y-83590413D01*
X125066500Y-84302237D01*
X122485798Y-84302237D01*
X122413809Y-84166847D01*
X122413808Y-84166845D01*
X122410913Y-84161401D01*
X122336901Y-84070653D01*
X122283610Y-84005311D01*
X122283607Y-84005308D01*
X122279715Y-84000536D01*
X122272770Y-83994790D01*
X122124518Y-83872145D01*
X122124519Y-83872145D01*
X122119770Y-83868217D01*
X122114353Y-83865288D01*
X122114350Y-83865286D01*
X121942590Y-83772416D01*
X121942585Y-83772414D01*
X121937170Y-83769486D01*
X121738871Y-83708102D01*
X121732746Y-83707458D01*
X121732745Y-83707458D01*
X121538554Y-83687048D01*
X121538552Y-83687048D01*
X121532425Y-83686404D01*
X121476156Y-83691525D01*
X121331836Y-83704659D01*
X121331833Y-83704660D01*
X121325697Y-83705218D01*
X121319791Y-83706956D01*
X121319787Y-83706957D01*
X121171932Y-83750473D01*
X121126560Y-83763827D01*
X120942600Y-83859999D01*
X120780823Y-83990071D01*
X120776865Y-83994788D01*
X120776863Y-83994790D01*
X120772042Y-84000536D01*
X120647391Y-84149089D01*
X120644427Y-84154481D01*
X120644424Y-84154485D01*
X120559156Y-84309587D01*
X120547387Y-84330995D01*
X120484621Y-84528861D01*
X120483935Y-84534978D01*
X120483934Y-84534982D01*
X120476806Y-84598531D01*
X120466500Y-84690413D01*
X120466500Y-85402237D01*
X114481207Y-85402237D01*
X114445233Y-85394787D01*
X114440622Y-85394521D01*
X114440621Y-85394521D01*
X114390048Y-85391605D01*
X114390044Y-85391605D01*
X114388225Y-85391500D01*
X114243001Y-85391500D01*
X114240214Y-85391749D01*
X114240208Y-85391749D01*
X114170071Y-85398009D01*
X114076238Y-85406383D01*
X114070824Y-85407864D01*
X114070819Y-85407865D01*
X113956262Y-85439205D01*
X113859549Y-85465663D01*
X113854491Y-85468075D01*
X113854487Y-85468077D01*
X113758165Y-85514021D01*
X113656782Y-85562378D01*
X113474346Y-85693471D01*
X113318008Y-85854799D01*
X113192710Y-86041262D01*
X113102412Y-86246967D01*
X113101103Y-86252418D01*
X113101102Y-86252422D01*
X113066790Y-86395341D01*
X113049968Y-86465411D01*
X113037037Y-86689690D01*
X83058500Y-86689690D01*
X83058500Y-85402237D01*
X110941500Y-85402237D01*
X110941800Y-85405293D01*
X110941800Y-85405300D01*
X110956034Y-85550466D01*
X110956635Y-85556592D01*
X110982878Y-85643515D01*
X110997961Y-85693471D01*
X111016632Y-85755315D01*
X111114087Y-85938599D01*
X111138464Y-85968488D01*
X111241390Y-86094689D01*
X111241393Y-86094692D01*
X111245285Y-86099464D01*
X111250033Y-86103392D01*
X111250034Y-86103393D01*
X111327624Y-86167581D01*
X111405230Y-86231783D01*
X111410647Y-86234712D01*
X111410650Y-86234714D01*
X111582410Y-86327584D01*
X111582415Y-86327586D01*
X111587830Y-86330514D01*
X111786129Y-86391898D01*
X111792254Y-86392542D01*
X111792255Y-86392542D01*
X111986446Y-86412952D01*
X111986448Y-86412952D01*
X111992575Y-86413596D01*
X112078485Y-86405777D01*
X112193164Y-86395341D01*
X112193167Y-86395340D01*
X112199303Y-86394782D01*
X112205209Y-86393044D01*
X112205213Y-86393043D01*
X112392531Y-86337912D01*
X112392530Y-86337912D01*
X112398440Y-86336173D01*
X112582400Y-86240001D01*
X112744177Y-86109929D01*
X112749662Y-86103393D01*
X112873650Y-85955629D01*
X112877609Y-85950911D01*
X112880573Y-85945519D01*
X112880576Y-85945515D01*
X112974646Y-85774402D01*
X112977613Y-85769005D01*
X113040379Y-85571139D01*
X113041350Y-85562489D01*
X113058107Y-85413087D01*
X113058500Y-85409587D01*
X113058500Y-84697763D01*
X113057780Y-84690413D01*
X113043966Y-84549534D01*
X113043965Y-84549531D01*
X113043365Y-84543408D01*
X112983368Y-84344685D01*
X112962814Y-84306029D01*
X112959143Y-84299124D01*
X115542000Y-84299124D01*
X115542301Y-84305272D01*
X115556527Y-84450361D01*
X115558910Y-84462396D01*
X115615317Y-84649223D01*
X115619992Y-84660565D01*
X115711612Y-84832879D01*
X115718399Y-84843095D01*
X115841747Y-84994335D01*
X115850391Y-85003039D01*
X116000763Y-85127438D01*
X116010931Y-85134297D01*
X116182607Y-85227121D01*
X116193907Y-85231871D01*
X116328693Y-85273595D01*
X116342795Y-85273801D01*
X116346000Y-85267045D01*
X116346000Y-85260047D01*
X116854000Y-85260047D01*
X116857973Y-85273578D01*
X116865768Y-85274698D01*
X116992342Y-85237446D01*
X117003710Y-85232853D01*
X117176666Y-85142434D01*
X117186928Y-85135718D01*
X117339020Y-85013432D01*
X117347786Y-85004848D01*
X117473236Y-84855344D01*
X117480160Y-84845233D01*
X117574184Y-84674202D01*
X117579012Y-84662938D01*
X117638025Y-84476905D01*
X117640573Y-84464916D01*
X117657607Y-84313053D01*
X117658000Y-84306029D01*
X117658000Y-84222115D01*
X117653525Y-84206876D01*
X117652135Y-84205671D01*
X117644452Y-84204000D01*
X116872115Y-84204000D01*
X116856876Y-84208475D01*
X116855671Y-84209865D01*
X116854000Y-84217548D01*
X116854000Y-85260047D01*
X116346000Y-85260047D01*
X116346000Y-84222115D01*
X116341525Y-84206876D01*
X116340135Y-84205671D01*
X116332452Y-84204000D01*
X115560115Y-84204000D01*
X115544876Y-84208475D01*
X115543671Y-84209865D01*
X115542000Y-84217548D01*
X115542000Y-84299124D01*
X112959143Y-84299124D01*
X112888809Y-84166847D01*
X112888808Y-84166845D01*
X112885913Y-84161401D01*
X112811901Y-84070653D01*
X112758610Y-84005311D01*
X112758607Y-84005308D01*
X112754715Y-84000536D01*
X112747770Y-83994790D01*
X112599518Y-83872145D01*
X112599519Y-83872145D01*
X112594770Y-83868217D01*
X112589353Y-83865288D01*
X112589350Y-83865286D01*
X112417590Y-83772416D01*
X112417585Y-83772414D01*
X112412170Y-83769486D01*
X112213871Y-83708102D01*
X112207746Y-83707458D01*
X112207745Y-83707458D01*
X112013554Y-83687048D01*
X112013552Y-83687048D01*
X112007425Y-83686404D01*
X111951156Y-83691525D01*
X111806836Y-83704659D01*
X111806833Y-83704660D01*
X111800697Y-83705218D01*
X111794791Y-83706956D01*
X111794787Y-83706957D01*
X111646932Y-83750473D01*
X111601560Y-83763827D01*
X111417600Y-83859999D01*
X111255823Y-83990071D01*
X111251865Y-83994788D01*
X111251863Y-83994790D01*
X111247042Y-84000536D01*
X111122391Y-84149089D01*
X111119427Y-84154481D01*
X111119424Y-84154485D01*
X111034156Y-84309587D01*
X111022387Y-84330995D01*
X110959621Y-84528861D01*
X110958935Y-84534978D01*
X110958934Y-84534982D01*
X110951806Y-84598531D01*
X110941500Y-84690413D01*
X110941500Y-85402237D01*
X83058500Y-85402237D01*
X83058500Y-84963348D01*
X94696819Y-84963348D01*
X94704209Y-84973650D01*
X94752808Y-85013217D01*
X94760084Y-85018330D01*
X94989999Y-85156750D01*
X94997913Y-85160783D01*
X95245048Y-85265431D01*
X95253453Y-85268308D01*
X95512873Y-85337093D01*
X95521585Y-85338755D01*
X95788114Y-85370300D01*
X95796979Y-85370718D01*
X96065278Y-85364395D01*
X96074133Y-85363558D01*
X96338864Y-85319495D01*
X96347498Y-85317422D01*
X96603383Y-85236496D01*
X96611644Y-85233225D01*
X96853567Y-85117055D01*
X96861292Y-85112649D01*
X97066318Y-84975656D01*
X97074606Y-84965738D01*
X97067350Y-84951560D01*
X95897812Y-83782022D01*
X95883868Y-83774408D01*
X95882035Y-83774539D01*
X95875420Y-83778790D01*
X94703985Y-84950225D01*
X94696819Y-84963348D01*
X83058500Y-84963348D01*
X83058500Y-83352793D01*
X93923142Y-83352793D01*
X93933678Y-83620960D01*
X93934653Y-83629789D01*
X93982869Y-83893799D01*
X93985078Y-83902401D01*
X94070012Y-84156979D01*
X94073416Y-84165196D01*
X94193374Y-84405270D01*
X94197893Y-84412910D01*
X94320408Y-84590176D01*
X94330730Y-84598531D01*
X94344383Y-84591407D01*
X95512978Y-83422812D01*
X95519356Y-83411132D01*
X96249408Y-83411132D01*
X96249539Y-83412965D01*
X96253790Y-83419580D01*
X97426007Y-84591797D01*
X97439407Y-84599114D01*
X97449311Y-84592127D01*
X97470237Y-84567233D01*
X97475457Y-84560047D01*
X97617480Y-84332321D01*
X97621632Y-84324481D01*
X97730151Y-84079014D01*
X97733161Y-84070653D01*
X97806005Y-83812365D01*
X97807809Y-83803657D01*
X97824702Y-83677885D01*
X115542000Y-83677885D01*
X115546475Y-83693124D01*
X115547865Y-83694329D01*
X115555548Y-83696000D01*
X116327885Y-83696000D01*
X116343124Y-83691525D01*
X116344329Y-83690135D01*
X116346000Y-83682452D01*
X116346000Y-83677885D01*
X116854000Y-83677885D01*
X116858475Y-83693124D01*
X116859865Y-83694329D01*
X116867548Y-83696000D01*
X117639885Y-83696000D01*
X117655124Y-83691525D01*
X117656329Y-83690135D01*
X117658000Y-83682452D01*
X117658000Y-83600876D01*
X117657699Y-83594728D01*
X117643473Y-83449639D01*
X117641090Y-83437604D01*
X117584683Y-83250777D01*
X117580008Y-83239435D01*
X117488388Y-83067121D01*
X117481601Y-83056905D01*
X117358253Y-82905665D01*
X117349609Y-82896961D01*
X117199237Y-82772562D01*
X117189069Y-82765703D01*
X117017393Y-82672879D01*
X117006093Y-82668129D01*
X116871307Y-82626405D01*
X116857205Y-82626199D01*
X116854000Y-82632955D01*
X116854000Y-83677885D01*
X116346000Y-83677885D01*
X116346000Y-82639953D01*
X116342027Y-82626422D01*
X116334232Y-82625302D01*
X116207658Y-82662554D01*
X116196290Y-82667147D01*
X116023334Y-82757566D01*
X116013072Y-82764282D01*
X115860980Y-82886568D01*
X115852214Y-82895152D01*
X115726764Y-83044656D01*
X115719840Y-83054767D01*
X115625816Y-83225798D01*
X115620988Y-83237062D01*
X115561975Y-83423095D01*
X115559427Y-83435084D01*
X115542393Y-83586947D01*
X115542000Y-83593971D01*
X115542000Y-83677885D01*
X97824702Y-83677885D01*
X97843701Y-83536440D01*
X97844229Y-83530047D01*
X97847901Y-83413222D01*
X97847774Y-83406779D01*
X97828733Y-83137863D01*
X97827480Y-83129053D01*
X97770994Y-82866687D01*
X97768518Y-82858166D01*
X97675627Y-82606373D01*
X97671972Y-82598278D01*
X97544533Y-82362093D01*
X97539771Y-82354588D01*
X97448512Y-82231033D01*
X97437387Y-82222593D01*
X97424791Y-82229419D01*
X96257022Y-83397188D01*
X96249408Y-83411132D01*
X95519356Y-83411132D01*
X95520592Y-83408868D01*
X95520461Y-83407035D01*
X95516210Y-83400420D01*
X94345215Y-82229425D01*
X94332374Y-82222413D01*
X94321685Y-82230208D01*
X94264194Y-82303134D01*
X94259203Y-82310478D01*
X94124404Y-82542552D01*
X94120500Y-82550522D01*
X94019745Y-82799273D01*
X94017001Y-82807717D01*
X93952301Y-83068182D01*
X93950774Y-83076933D01*
X93923421Y-83343909D01*
X93923142Y-83352793D01*
X83058500Y-83352793D01*
X83058500Y-81856845D01*
X94697200Y-81856845D01*
X94704180Y-81869970D01*
X95872188Y-83037978D01*
X95886132Y-83045592D01*
X95887965Y-83045461D01*
X95894580Y-83041210D01*
X97065479Y-81870311D01*
X97072333Y-81857759D01*
X97064126Y-81846689D01*
X96966274Y-81772010D01*
X96958849Y-81767133D01*
X96724696Y-81636001D01*
X96716643Y-81632212D01*
X96466357Y-81535383D01*
X96457867Y-81532771D01*
X96196420Y-81472172D01*
X96187642Y-81470782D01*
X95920265Y-81447624D01*
X95911394Y-81447484D01*
X95643414Y-81462232D01*
X95634604Y-81463346D01*
X95371381Y-81515704D01*
X95362823Y-81518045D01*
X95109588Y-81606975D01*
X95101454Y-81610495D01*
X94863285Y-81734214D01*
X94855713Y-81738854D01*
X94705603Y-81846123D01*
X94697200Y-81856845D01*
X83058500Y-81856845D01*
X83058500Y-78960000D01*
X89861761Y-78960000D01*
X89880696Y-79248886D01*
X89881500Y-79252926D01*
X89881500Y-79252929D01*
X89936344Y-79528649D01*
X89937175Y-79532828D01*
X90030234Y-79806970D01*
X90158279Y-80066619D01*
X90319119Y-80307335D01*
X90321831Y-80310427D01*
X90321836Y-80310434D01*
X90507167Y-80521761D01*
X90510004Y-80524996D01*
X90513093Y-80527705D01*
X90724565Y-80713163D01*
X90724571Y-80713168D01*
X90727665Y-80715881D01*
X90968380Y-80876721D01*
X90972079Y-80878545D01*
X90972084Y-80878548D01*
X91223396Y-81002481D01*
X91228030Y-81004766D01*
X91231928Y-81006089D01*
X91231930Y-81006090D01*
X91498262Y-81096498D01*
X91498266Y-81096499D01*
X91502172Y-81097825D01*
X91506216Y-81098629D01*
X91506222Y-81098631D01*
X91782071Y-81153500D01*
X91782074Y-81153500D01*
X91786114Y-81154304D01*
X91790225Y-81154573D01*
X91790229Y-81154574D01*
X92070881Y-81172969D01*
X92075000Y-81173239D01*
X92079119Y-81172969D01*
X92359771Y-81154574D01*
X92359775Y-81154573D01*
X92363886Y-81154304D01*
X92367926Y-81153500D01*
X92367929Y-81153500D01*
X92643778Y-81098631D01*
X92643784Y-81098629D01*
X92647828Y-81097825D01*
X92651734Y-81096499D01*
X92651738Y-81096498D01*
X92918070Y-81006090D01*
X92918072Y-81006089D01*
X92921970Y-81004766D01*
X92926604Y-81002481D01*
X93177916Y-80878548D01*
X93177921Y-80878545D01*
X93181620Y-80876721D01*
X93422335Y-80715881D01*
X93425429Y-80713168D01*
X93425435Y-80713163D01*
X93447943Y-80693424D01*
X98327032Y-80693424D01*
X98333489Y-80702783D01*
X98344871Y-80712765D01*
X98351399Y-80717774D01*
X98585198Y-80873993D01*
X98592335Y-80878114D01*
X98844527Y-81002481D01*
X98852122Y-81005627D01*
X99118391Y-81096014D01*
X99126351Y-81098147D01*
X99402137Y-81153004D01*
X99410295Y-81154078D01*
X99690881Y-81172468D01*
X99699119Y-81172468D01*
X99979705Y-81154078D01*
X99987863Y-81153004D01*
X100263649Y-81098147D01*
X100271609Y-81096014D01*
X100537878Y-81005627D01*
X100545473Y-81002481D01*
X100797665Y-80878114D01*
X100804802Y-80873993D01*
X101038601Y-80717774D01*
X101045129Y-80712765D01*
X101054646Y-80704419D01*
X101063041Y-80691183D01*
X101057206Y-80681416D01*
X99707812Y-79332022D01*
X99693868Y-79324408D01*
X99692035Y-79324539D01*
X99685420Y-79328790D01*
X98334547Y-80679663D01*
X98327032Y-80693424D01*
X93447943Y-80693424D01*
X93636907Y-80527705D01*
X93639996Y-80524996D01*
X93642833Y-80521761D01*
X93828164Y-80310434D01*
X93828169Y-80310427D01*
X93830881Y-80307335D01*
X93991721Y-80066619D01*
X94119766Y-79806970D01*
X94212825Y-79532828D01*
X94213657Y-79528649D01*
X94268500Y-79252929D01*
X94268500Y-79252926D01*
X94269304Y-79248886D01*
X94287969Y-78964119D01*
X97482532Y-78964119D01*
X97500922Y-79244705D01*
X97501996Y-79252863D01*
X97556853Y-79528649D01*
X97558986Y-79536609D01*
X97649373Y-79802878D01*
X97652519Y-79810473D01*
X97776886Y-80062665D01*
X97781007Y-80069802D01*
X97937226Y-80303601D01*
X97942235Y-80310129D01*
X97950581Y-80319646D01*
X97963817Y-80328041D01*
X97973584Y-80322206D01*
X99322978Y-78972812D01*
X99329356Y-78961132D01*
X100059408Y-78961132D01*
X100059539Y-78962965D01*
X100063790Y-78969580D01*
X101414663Y-80320453D01*
X101428424Y-80327968D01*
X101437783Y-80321511D01*
X101447765Y-80310129D01*
X101452774Y-80303601D01*
X101608993Y-80069802D01*
X101613114Y-80062665D01*
X101737481Y-79810473D01*
X101740627Y-79802878D01*
X101831014Y-79536609D01*
X101833147Y-79528649D01*
X101888004Y-79252863D01*
X101889078Y-79244705D01*
X101907468Y-78964119D01*
X101907468Y-78955881D01*
X101889078Y-78675295D01*
X101888004Y-78667137D01*
X101833147Y-78391351D01*
X101831014Y-78383391D01*
X101740627Y-78117122D01*
X101737481Y-78109527D01*
X101613114Y-77857335D01*
X101608993Y-77850198D01*
X101452774Y-77616399D01*
X101447765Y-77609871D01*
X101439419Y-77600354D01*
X101426183Y-77591959D01*
X101416416Y-77597794D01*
X100067022Y-78947188D01*
X100059408Y-78961132D01*
X99329356Y-78961132D01*
X99330592Y-78958868D01*
X99330461Y-78957035D01*
X99326210Y-78950420D01*
X97975337Y-77599547D01*
X97961576Y-77592032D01*
X97952217Y-77598489D01*
X97942235Y-77609871D01*
X97937226Y-77616399D01*
X97781007Y-77850198D01*
X97776886Y-77857335D01*
X97652519Y-78109527D01*
X97649373Y-78117122D01*
X97558986Y-78383391D01*
X97556853Y-78391351D01*
X97501996Y-78667137D01*
X97500922Y-78675295D01*
X97482532Y-78955881D01*
X97482532Y-78964119D01*
X94287969Y-78964119D01*
X94288239Y-78960000D01*
X94280161Y-78836753D01*
X94269574Y-78675229D01*
X94269573Y-78675225D01*
X94269304Y-78671114D01*
X94254256Y-78595461D01*
X94213631Y-78391222D01*
X94213629Y-78391216D01*
X94212825Y-78387172D01*
X94177800Y-78283990D01*
X94121090Y-78116930D01*
X94121089Y-78116928D01*
X94119766Y-78113030D01*
X94108220Y-78089616D01*
X94006149Y-77882639D01*
X93991721Y-77853381D01*
X93830881Y-77612665D01*
X93828169Y-77609573D01*
X93828164Y-77609566D01*
X93642705Y-77398093D01*
X93639996Y-77395004D01*
X93636733Y-77392142D01*
X93450498Y-77228817D01*
X98326959Y-77228817D01*
X98332794Y-77238584D01*
X99682188Y-78587978D01*
X99696132Y-78595592D01*
X99697965Y-78595461D01*
X99704580Y-78591210D01*
X101055453Y-77240337D01*
X101062968Y-77226576D01*
X101056511Y-77217217D01*
X101045129Y-77207235D01*
X101038601Y-77202226D01*
X100804802Y-77046007D01*
X100797665Y-77041886D01*
X100545473Y-76917519D01*
X100537878Y-76914373D01*
X100271609Y-76823986D01*
X100263649Y-76821853D01*
X99987863Y-76766996D01*
X99979705Y-76765922D01*
X99699119Y-76747532D01*
X99690881Y-76747532D01*
X99410295Y-76765922D01*
X99402137Y-76766996D01*
X99126351Y-76821853D01*
X99118391Y-76823986D01*
X98852122Y-76914373D01*
X98844527Y-76917519D01*
X98592335Y-77041886D01*
X98585198Y-77046007D01*
X98351399Y-77202226D01*
X98344871Y-77207235D01*
X98335354Y-77215581D01*
X98326959Y-77228817D01*
X93450498Y-77228817D01*
X93425435Y-77206837D01*
X93425429Y-77206832D01*
X93422335Y-77204119D01*
X93181620Y-77043279D01*
X93177921Y-77041455D01*
X93177916Y-77041452D01*
X92925665Y-76917056D01*
X92925663Y-76917055D01*
X92921970Y-76915234D01*
X92918070Y-76913910D01*
X92651738Y-76823502D01*
X92651734Y-76823501D01*
X92647828Y-76822175D01*
X92643784Y-76821371D01*
X92643778Y-76821369D01*
X92367929Y-76766500D01*
X92367926Y-76766500D01*
X92363886Y-76765696D01*
X92359775Y-76765427D01*
X92359771Y-76765426D01*
X92079119Y-76747031D01*
X92075000Y-76746761D01*
X92070881Y-76747031D01*
X91790229Y-76765426D01*
X91790225Y-76765427D01*
X91786114Y-76765696D01*
X91782074Y-76766500D01*
X91782071Y-76766500D01*
X91506222Y-76821369D01*
X91506216Y-76821371D01*
X91502172Y-76822175D01*
X91498266Y-76823501D01*
X91498262Y-76823502D01*
X91231930Y-76913910D01*
X91228030Y-76915234D01*
X90968381Y-77043279D01*
X90727665Y-77204119D01*
X90724573Y-77206831D01*
X90724566Y-77206836D01*
X90513239Y-77392167D01*
X90510004Y-77395004D01*
X90507295Y-77398093D01*
X90321836Y-77609566D01*
X90321831Y-77609573D01*
X90319119Y-77612665D01*
X90158279Y-77853381D01*
X90143851Y-77882639D01*
X90041781Y-78089616D01*
X90030234Y-78113030D01*
X90028911Y-78116928D01*
X90028910Y-78116930D01*
X89972201Y-78283990D01*
X89937175Y-78387172D01*
X89936371Y-78391216D01*
X89936369Y-78391222D01*
X89895744Y-78595461D01*
X89880696Y-78671114D01*
X89880427Y-78675225D01*
X89880426Y-78675229D01*
X89869839Y-78836753D01*
X89861761Y-78960000D01*
X83058500Y-78960000D01*
X83058500Y-61092703D01*
X84250743Y-61092703D01*
X84288268Y-61377734D01*
X84364129Y-61655036D01*
X84476923Y-61919476D01*
X84624561Y-62166161D01*
X84804313Y-62390528D01*
X85012851Y-62588423D01*
X85246317Y-62756186D01*
X85250112Y-62758195D01*
X85250113Y-62758196D01*
X85271869Y-62769715D01*
X85500392Y-62890712D01*
X85770373Y-62989511D01*
X86051264Y-63050755D01*
X86079841Y-63053004D01*
X86274282Y-63068307D01*
X86274291Y-63068307D01*
X86276739Y-63068500D01*
X86432271Y-63068500D01*
X86434407Y-63068354D01*
X86434418Y-63068354D01*
X86642548Y-63054165D01*
X86642554Y-63054164D01*
X86646825Y-63053873D01*
X86651020Y-63053004D01*
X86651022Y-63053004D01*
X86787584Y-63024723D01*
X86928342Y-62995574D01*
X87199343Y-62899607D01*
X87454812Y-62767750D01*
X87458313Y-62765289D01*
X87458317Y-62765287D01*
X87572418Y-62685095D01*
X87690023Y-62602441D01*
X87900622Y-62406740D01*
X88082713Y-62184268D01*
X88232927Y-61939142D01*
X88348483Y-61675898D01*
X88427244Y-61399406D01*
X88467751Y-61114784D01*
X88467845Y-61096951D01*
X88467867Y-61092703D01*
X146480743Y-61092703D01*
X146518268Y-61377734D01*
X146594129Y-61655036D01*
X146706923Y-61919476D01*
X146854561Y-62166161D01*
X147034313Y-62390528D01*
X147242851Y-62588423D01*
X147476317Y-62756186D01*
X147480112Y-62758195D01*
X147480113Y-62758196D01*
X147501869Y-62769715D01*
X147730392Y-62890712D01*
X148000373Y-62989511D01*
X148281264Y-63050755D01*
X148309841Y-63053004D01*
X148504282Y-63068307D01*
X148504291Y-63068307D01*
X148506739Y-63068500D01*
X148662271Y-63068500D01*
X148664407Y-63068354D01*
X148664418Y-63068354D01*
X148872548Y-63054165D01*
X148872554Y-63054164D01*
X148876825Y-63053873D01*
X148881020Y-63053004D01*
X148881022Y-63053004D01*
X149017584Y-63024723D01*
X149158342Y-62995574D01*
X149429343Y-62899607D01*
X149684812Y-62767750D01*
X149688313Y-62765289D01*
X149688317Y-62765287D01*
X149802418Y-62685095D01*
X149920023Y-62602441D01*
X150130622Y-62406740D01*
X150312713Y-62184268D01*
X150462927Y-61939142D01*
X150578483Y-61675898D01*
X150657244Y-61399406D01*
X150697751Y-61114784D01*
X150697845Y-61096951D01*
X150699235Y-60831583D01*
X150699235Y-60831576D01*
X150699257Y-60827297D01*
X150661732Y-60542266D01*
X150585871Y-60264964D01*
X150473077Y-60000524D01*
X150325439Y-59753839D01*
X150145687Y-59529472D01*
X149937149Y-59331577D01*
X149703683Y-59163814D01*
X149681843Y-59152250D01*
X149658654Y-59139972D01*
X149449608Y-59029288D01*
X149179627Y-58930489D01*
X148898736Y-58869245D01*
X148867685Y-58866801D01*
X148675718Y-58851693D01*
X148675709Y-58851693D01*
X148673261Y-58851500D01*
X148517729Y-58851500D01*
X148515593Y-58851646D01*
X148515582Y-58851646D01*
X148307452Y-58865835D01*
X148307446Y-58865836D01*
X148303175Y-58866127D01*
X148298980Y-58866996D01*
X148298978Y-58866996D01*
X148162416Y-58895277D01*
X148021658Y-58924426D01*
X147750657Y-59020393D01*
X147495188Y-59152250D01*
X147491687Y-59154711D01*
X147491683Y-59154713D01*
X147481594Y-59161804D01*
X147259977Y-59317559D01*
X147049378Y-59513260D01*
X146867287Y-59735732D01*
X146717073Y-59980858D01*
X146601517Y-60244102D01*
X146522756Y-60520594D01*
X146482249Y-60805216D01*
X146482227Y-60809505D01*
X146482226Y-60809512D01*
X146480765Y-61088417D01*
X146480743Y-61092703D01*
X88467867Y-61092703D01*
X88469235Y-60831583D01*
X88469235Y-60831576D01*
X88469257Y-60827297D01*
X88431732Y-60542266D01*
X88355871Y-60264964D01*
X88243077Y-60000524D01*
X88095439Y-59753839D01*
X87915687Y-59529472D01*
X87707149Y-59331577D01*
X87473683Y-59163814D01*
X87451843Y-59152250D01*
X87428654Y-59139972D01*
X87219608Y-59029288D01*
X86949627Y-58930489D01*
X86668736Y-58869245D01*
X86637685Y-58866801D01*
X86445718Y-58851693D01*
X86445709Y-58851693D01*
X86443261Y-58851500D01*
X86287729Y-58851500D01*
X86285593Y-58851646D01*
X86285582Y-58851646D01*
X86077452Y-58865835D01*
X86077446Y-58865836D01*
X86073175Y-58866127D01*
X86068980Y-58866996D01*
X86068978Y-58866996D01*
X85932416Y-58895277D01*
X85791658Y-58924426D01*
X85520657Y-59020393D01*
X85265188Y-59152250D01*
X85261687Y-59154711D01*
X85261683Y-59154713D01*
X85251594Y-59161804D01*
X85029977Y-59317559D01*
X84819378Y-59513260D01*
X84637287Y-59735732D01*
X84487073Y-59980858D01*
X84371517Y-60244102D01*
X84292756Y-60520594D01*
X84252249Y-60805216D01*
X84252227Y-60809505D01*
X84252226Y-60809512D01*
X84250765Y-61088417D01*
X84250743Y-61092703D01*
X83058500Y-61092703D01*
X83058500Y-57784500D01*
X83078502Y-57716379D01*
X83132158Y-57669886D01*
X83184500Y-57658500D01*
X151765500Y-57658500D01*
X151833621Y-57678502D01*
G37*
%TD.AperFunction*%
%TD*%
M02*
