%TF.GenerationSoftware,KiCad,Pcbnew,6.0.7-f9a2dced07~116~ubuntu20.04.1*%
%TF.CreationDate,2022-08-02T17:22:42-07:00*%
%TF.ProjectId,MicPreampTest,4d696350-7265-4616-9d70-546573742e6b,rev?*%
%TF.SameCoordinates,Original*%
%TF.FileFunction,Legend,Top*%
%TF.FilePolarity,Positive*%
%FSLAX46Y46*%
G04 Gerber Fmt 4.6, Leading zero omitted, Abs format (unit mm)*
G04 Created by KiCad (PCBNEW 6.0.7-f9a2dced07~116~ubuntu20.04.1) date 2022-08-02 17:22:42*
%MOMM*%
%LPD*%
G01*
G04 APERTURE LIST*
G04 Aperture macros list*
%AMRoundRect*
0 Rectangle with rounded corners*
0 $1 Rounding radius*
0 $2 $3 $4 $5 $6 $7 $8 $9 X,Y pos of 4 corners*
0 Add a 4 corners polygon primitive as box body*
4,1,4,$2,$3,$4,$5,$6,$7,$8,$9,$2,$3,0*
0 Add four circle primitives for the rounded corners*
1,1,$1+$1,$2,$3*
1,1,$1+$1,$4,$5*
1,1,$1+$1,$6,$7*
1,1,$1+$1,$8,$9*
0 Add four rect primitives between the rounded corners*
20,1,$1+$1,$2,$3,$4,$5,0*
20,1,$1+$1,$4,$5,$6,$7,0*
20,1,$1+$1,$6,$7,$8,$9,0*
20,1,$1+$1,$8,$9,$2,$3,0*%
G04 Aperture macros list end*
%ADD10C,0.190500*%
%ADD11C,0.150000*%
%ADD12C,0.120000*%
%ADD13C,3.200000*%
%ADD14R,1.700000X1.700000*%
%ADD15O,1.700000X1.700000*%
%ADD16RoundRect,0.237500X-0.237500X0.250000X-0.237500X-0.250000X0.237500X-0.250000X0.237500X0.250000X0*%
%ADD17RoundRect,0.150000X0.150000X-0.587500X0.150000X0.587500X-0.150000X0.587500X-0.150000X-0.587500X0*%
%ADD18O,1.100000X1.700000*%
%ADD19C,1.500000*%
%ADD20C,3.400000*%
%ADD21C,2.900000*%
%ADD22RoundRect,0.237500X-0.300000X-0.237500X0.300000X-0.237500X0.300000X0.237500X-0.300000X0.237500X0*%
G04 APERTURE END LIST*
D10*
X91231205Y-59489823D02*
X91231205Y-58219823D01*
X91231205Y-58824585D02*
X91956920Y-58824585D01*
X91956920Y-59489823D02*
X91956920Y-58219823D01*
X93045491Y-59429347D02*
X92924539Y-59489823D01*
X92682634Y-59489823D01*
X92561682Y-59429347D01*
X92501205Y-59308395D01*
X92501205Y-58824585D01*
X92561682Y-58703633D01*
X92682634Y-58643157D01*
X92924539Y-58643157D01*
X93045491Y-58703633D01*
X93105967Y-58824585D01*
X93105967Y-58945538D01*
X92501205Y-59066490D01*
X94194539Y-59489823D02*
X94194539Y-58824585D01*
X94134063Y-58703633D01*
X94013110Y-58643157D01*
X93771205Y-58643157D01*
X93650253Y-58703633D01*
X94194539Y-59429347D02*
X94073586Y-59489823D01*
X93771205Y-59489823D01*
X93650253Y-59429347D01*
X93589777Y-59308395D01*
X93589777Y-59187442D01*
X93650253Y-59066490D01*
X93771205Y-59006014D01*
X94073586Y-59006014D01*
X94194539Y-58945538D01*
X95343586Y-59489823D02*
X95343586Y-58219823D01*
X95343586Y-59429347D02*
X95222634Y-59489823D01*
X94980729Y-59489823D01*
X94859777Y-59429347D01*
X94799301Y-59368871D01*
X94738825Y-59247919D01*
X94738825Y-58885061D01*
X94799301Y-58764109D01*
X94859777Y-58703633D01*
X94980729Y-58643157D01*
X95222634Y-58643157D01*
X95343586Y-58703633D01*
X95887872Y-59429347D02*
X96008825Y-59489823D01*
X96250729Y-59489823D01*
X96371682Y-59429347D01*
X96432158Y-59308395D01*
X96432158Y-59247919D01*
X96371682Y-59126966D01*
X96250729Y-59066490D01*
X96069301Y-59066490D01*
X95948348Y-59006014D01*
X95887872Y-58885061D01*
X95887872Y-58824585D01*
X95948348Y-58703633D01*
X96069301Y-58643157D01*
X96250729Y-58643157D01*
X96371682Y-58703633D01*
X97460253Y-59429347D02*
X97339301Y-59489823D01*
X97097396Y-59489823D01*
X96976444Y-59429347D01*
X96915967Y-59308395D01*
X96915967Y-58824585D01*
X96976444Y-58703633D01*
X97097396Y-58643157D01*
X97339301Y-58643157D01*
X97460253Y-58703633D01*
X97520729Y-58824585D01*
X97520729Y-58945538D01*
X96915967Y-59066490D01*
X97883586Y-58643157D02*
X98367396Y-58643157D01*
X98065015Y-58219823D02*
X98065015Y-59308395D01*
X98125491Y-59429347D01*
X98246444Y-59489823D01*
X98367396Y-59489823D01*
X99758348Y-59489823D02*
X99758348Y-58219823D01*
X100363110Y-58643157D02*
X100363110Y-59489823D01*
X100363110Y-58764109D02*
X100423586Y-58703633D01*
X100544539Y-58643157D01*
X100725967Y-58643157D01*
X100846920Y-58703633D01*
X100907396Y-58824585D01*
X100907396Y-59489823D01*
X101330729Y-58643157D02*
X101814539Y-58643157D01*
X101512158Y-58219823D02*
X101512158Y-59308395D01*
X101572634Y-59429347D01*
X101693586Y-59489823D01*
X101814539Y-59489823D01*
X102721682Y-59429347D02*
X102600729Y-59489823D01*
X102358825Y-59489823D01*
X102237872Y-59429347D01*
X102177396Y-59308395D01*
X102177396Y-58824585D01*
X102237872Y-58703633D01*
X102358825Y-58643157D01*
X102600729Y-58643157D01*
X102721682Y-58703633D01*
X102782158Y-58824585D01*
X102782158Y-58945538D01*
X102177396Y-59066490D01*
X103326444Y-59489823D02*
X103326444Y-58643157D01*
X103326444Y-58885061D02*
X103386920Y-58764109D01*
X103447396Y-58703633D01*
X103568348Y-58643157D01*
X103689301Y-58643157D01*
X104656920Y-59429347D02*
X104535967Y-59489823D01*
X104294063Y-59489823D01*
X104173110Y-59429347D01*
X104112634Y-59368871D01*
X104052158Y-59247919D01*
X104052158Y-58885061D01*
X104112634Y-58764109D01*
X104173110Y-58703633D01*
X104294063Y-58643157D01*
X104535967Y-58643157D01*
X104656920Y-58703633D01*
X105382634Y-59489823D02*
X105261682Y-59429347D01*
X105201205Y-59368871D01*
X105140729Y-59247919D01*
X105140729Y-58885061D01*
X105201205Y-58764109D01*
X105261682Y-58703633D01*
X105382634Y-58643157D01*
X105564063Y-58643157D01*
X105685015Y-58703633D01*
X105745491Y-58764109D01*
X105805967Y-58885061D01*
X105805967Y-59247919D01*
X105745491Y-59368871D01*
X105685015Y-59429347D01*
X105564063Y-59489823D01*
X105382634Y-59489823D01*
X106350253Y-58643157D02*
X106350253Y-59489823D01*
X106350253Y-58764109D02*
X106410729Y-58703633D01*
X106531682Y-58643157D01*
X106713110Y-58643157D01*
X106834063Y-58703633D01*
X106894539Y-58824585D01*
X106894539Y-59489823D01*
X107499301Y-58643157D02*
X107499301Y-59489823D01*
X107499301Y-58764109D02*
X107559777Y-58703633D01*
X107680729Y-58643157D01*
X107862158Y-58643157D01*
X107983110Y-58703633D01*
X108043586Y-58824585D01*
X108043586Y-59489823D01*
X109132158Y-59429347D02*
X109011205Y-59489823D01*
X108769301Y-59489823D01*
X108648348Y-59429347D01*
X108587872Y-59308395D01*
X108587872Y-58824585D01*
X108648348Y-58703633D01*
X108769301Y-58643157D01*
X109011205Y-58643157D01*
X109132158Y-58703633D01*
X109192634Y-58824585D01*
X109192634Y-58945538D01*
X108587872Y-59066490D01*
X110281205Y-59429347D02*
X110160253Y-59489823D01*
X109918348Y-59489823D01*
X109797396Y-59429347D01*
X109736920Y-59368871D01*
X109676444Y-59247919D01*
X109676444Y-58885061D01*
X109736920Y-58764109D01*
X109797396Y-58703633D01*
X109918348Y-58643157D01*
X110160253Y-58643157D01*
X110281205Y-58703633D01*
X110644063Y-58643157D02*
X111127872Y-58643157D01*
X110825491Y-58219823D02*
X110825491Y-59308395D01*
X110885967Y-59429347D01*
X111006920Y-59489823D01*
X111127872Y-59489823D01*
X112458348Y-59429347D02*
X112639777Y-59489823D01*
X112942158Y-59489823D01*
X113063110Y-59429347D01*
X113123586Y-59368871D01*
X113184063Y-59247919D01*
X113184063Y-59126966D01*
X113123586Y-59006014D01*
X113063110Y-58945538D01*
X112942158Y-58885061D01*
X112700253Y-58824585D01*
X112579301Y-58764109D01*
X112518825Y-58703633D01*
X112458348Y-58582680D01*
X112458348Y-58461728D01*
X112518825Y-58340776D01*
X112579301Y-58280300D01*
X112700253Y-58219823D01*
X113002634Y-58219823D01*
X113184063Y-58280300D01*
X113546920Y-58643157D02*
X114030729Y-58643157D01*
X113728348Y-58219823D02*
X113728348Y-59308395D01*
X113788825Y-59429347D01*
X113909777Y-59489823D01*
X114030729Y-59489823D01*
X114998348Y-59489823D02*
X114998348Y-58824585D01*
X114937872Y-58703633D01*
X114816920Y-58643157D01*
X114575015Y-58643157D01*
X114454063Y-58703633D01*
X114998348Y-59429347D02*
X114877396Y-59489823D01*
X114575015Y-59489823D01*
X114454063Y-59429347D01*
X114393586Y-59308395D01*
X114393586Y-59187442D01*
X114454063Y-59066490D01*
X114575015Y-59006014D01*
X114877396Y-59006014D01*
X114998348Y-58945538D01*
X115603110Y-58643157D02*
X115603110Y-59489823D01*
X115603110Y-58764109D02*
X115663586Y-58703633D01*
X115784539Y-58643157D01*
X115965967Y-58643157D01*
X116086920Y-58703633D01*
X116147396Y-58824585D01*
X116147396Y-59489823D01*
X117296444Y-59489823D02*
X117296444Y-58219823D01*
X117296444Y-59429347D02*
X117175491Y-59489823D01*
X116933586Y-59489823D01*
X116812634Y-59429347D01*
X116752158Y-59368871D01*
X116691682Y-59247919D01*
X116691682Y-58885061D01*
X116752158Y-58764109D01*
X116812634Y-58703633D01*
X116933586Y-58643157D01*
X117175491Y-58643157D01*
X117296444Y-58703633D01*
X118445491Y-59489823D02*
X118445491Y-58824585D01*
X118385015Y-58703633D01*
X118264063Y-58643157D01*
X118022158Y-58643157D01*
X117901205Y-58703633D01*
X118445491Y-59429347D02*
X118324539Y-59489823D01*
X118022158Y-59489823D01*
X117901205Y-59429347D01*
X117840729Y-59308395D01*
X117840729Y-59187442D01*
X117901205Y-59066490D01*
X118022158Y-59006014D01*
X118324539Y-59006014D01*
X118445491Y-58945538D01*
X119050253Y-59489823D02*
X119050253Y-58643157D01*
X119050253Y-58885061D02*
X119110729Y-58764109D01*
X119171205Y-58703633D01*
X119292158Y-58643157D01*
X119413110Y-58643157D01*
X120380729Y-59489823D02*
X120380729Y-58219823D01*
X120380729Y-59429347D02*
X120259777Y-59489823D01*
X120017872Y-59489823D01*
X119896920Y-59429347D01*
X119836444Y-59368871D01*
X119775967Y-59247919D01*
X119775967Y-58885061D01*
X119836444Y-58764109D01*
X119896920Y-58703633D01*
X120017872Y-58643157D01*
X120259777Y-58643157D01*
X120380729Y-58703633D01*
X91231205Y-61534523D02*
X91231205Y-60264523D01*
X91654539Y-61171666D01*
X92077872Y-60264523D01*
X92077872Y-61534523D01*
X92682634Y-61534523D02*
X92682634Y-60687857D01*
X92682634Y-60264523D02*
X92622158Y-60325000D01*
X92682634Y-60385476D01*
X92743110Y-60325000D01*
X92682634Y-60264523D01*
X92682634Y-60385476D01*
X93831682Y-61474047D02*
X93710729Y-61534523D01*
X93468825Y-61534523D01*
X93347872Y-61474047D01*
X93287396Y-61413571D01*
X93226920Y-61292619D01*
X93226920Y-60929761D01*
X93287396Y-60808809D01*
X93347872Y-60748333D01*
X93468825Y-60687857D01*
X93710729Y-60687857D01*
X93831682Y-60748333D01*
X95343586Y-61534523D02*
X95343586Y-60264523D01*
X95827396Y-60264523D01*
X95948348Y-60325000D01*
X96008825Y-60385476D01*
X96069301Y-60506428D01*
X96069301Y-60687857D01*
X96008825Y-60808809D01*
X95948348Y-60869285D01*
X95827396Y-60929761D01*
X95343586Y-60929761D01*
X96613586Y-61534523D02*
X96613586Y-60687857D01*
X96613586Y-60929761D02*
X96674063Y-60808809D01*
X96734539Y-60748333D01*
X96855491Y-60687857D01*
X96976444Y-60687857D01*
X97883586Y-61474047D02*
X97762634Y-61534523D01*
X97520729Y-61534523D01*
X97399777Y-61474047D01*
X97339301Y-61353095D01*
X97339301Y-60869285D01*
X97399777Y-60748333D01*
X97520729Y-60687857D01*
X97762634Y-60687857D01*
X97883586Y-60748333D01*
X97944063Y-60869285D01*
X97944063Y-60990238D01*
X97339301Y-61111190D01*
X99032634Y-61534523D02*
X99032634Y-60869285D01*
X98972158Y-60748333D01*
X98851205Y-60687857D01*
X98609301Y-60687857D01*
X98488348Y-60748333D01*
X99032634Y-61474047D02*
X98911682Y-61534523D01*
X98609301Y-61534523D01*
X98488348Y-61474047D01*
X98427872Y-61353095D01*
X98427872Y-61232142D01*
X98488348Y-61111190D01*
X98609301Y-61050714D01*
X98911682Y-61050714D01*
X99032634Y-60990238D01*
X99637396Y-61534523D02*
X99637396Y-60687857D01*
X99637396Y-60808809D02*
X99697872Y-60748333D01*
X99818825Y-60687857D01*
X100000253Y-60687857D01*
X100121205Y-60748333D01*
X100181682Y-60869285D01*
X100181682Y-61534523D01*
X100181682Y-60869285D02*
X100242158Y-60748333D01*
X100363110Y-60687857D01*
X100544539Y-60687857D01*
X100665491Y-60748333D01*
X100725967Y-60869285D01*
X100725967Y-61534523D01*
X101330729Y-60687857D02*
X101330729Y-61957857D01*
X101330729Y-60748333D02*
X101451682Y-60687857D01*
X101693586Y-60687857D01*
X101814539Y-60748333D01*
X101875015Y-60808809D01*
X101935491Y-60929761D01*
X101935491Y-61292619D01*
X101875015Y-61413571D01*
X101814539Y-61474047D01*
X101693586Y-61534523D01*
X101451682Y-61534523D01*
X101330729Y-61474047D01*
X103447396Y-61050714D02*
X104415015Y-61050714D01*
X105987396Y-61534523D02*
X105987396Y-60264523D01*
X106471205Y-60264523D01*
X106592158Y-60325000D01*
X106652634Y-60385476D01*
X106713110Y-60506428D01*
X106713110Y-60687857D01*
X106652634Y-60808809D01*
X106592158Y-60869285D01*
X106471205Y-60929761D01*
X105987396Y-60929761D01*
X107499301Y-60264523D02*
X107741205Y-60264523D01*
X107862158Y-60325000D01*
X107983110Y-60445952D01*
X108043586Y-60687857D01*
X108043586Y-61111190D01*
X107983110Y-61353095D01*
X107862158Y-61474047D01*
X107741205Y-61534523D01*
X107499301Y-61534523D01*
X107378348Y-61474047D01*
X107257396Y-61353095D01*
X107196920Y-61111190D01*
X107196920Y-60687857D01*
X107257396Y-60445952D01*
X107378348Y-60325000D01*
X107499301Y-60264523D01*
X109313586Y-61413571D02*
X109253110Y-61474047D01*
X109071682Y-61534523D01*
X108950729Y-61534523D01*
X108769301Y-61474047D01*
X108648348Y-61353095D01*
X108587872Y-61232142D01*
X108527396Y-60990238D01*
X108527396Y-60808809D01*
X108587872Y-60566904D01*
X108648348Y-60445952D01*
X108769301Y-60325000D01*
X108950729Y-60264523D01*
X109071682Y-60264523D01*
X109253110Y-60325000D01*
X109313586Y-60385476D01*
X110704539Y-60687857D02*
X111006920Y-61534523D01*
X111309301Y-60687857D01*
X112458348Y-61534523D02*
X111732634Y-61534523D01*
X112095491Y-61534523D02*
X112095491Y-60264523D01*
X111974539Y-60445952D01*
X111853586Y-60566904D01*
X111732634Y-60627380D01*
X113002634Y-61413571D02*
X113063110Y-61474047D01*
X113002634Y-61534523D01*
X112942158Y-61474047D01*
X113002634Y-61413571D01*
X113002634Y-61534523D01*
X113849301Y-60264523D02*
X113970253Y-60264523D01*
X114091205Y-60325000D01*
X114151682Y-60385476D01*
X114212158Y-60506428D01*
X114272634Y-60748333D01*
X114272634Y-61050714D01*
X114212158Y-61292619D01*
X114151682Y-61413571D01*
X114091205Y-61474047D01*
X113970253Y-61534523D01*
X113849301Y-61534523D01*
X113728348Y-61474047D01*
X113667872Y-61413571D01*
X113607396Y-61292619D01*
X113546920Y-61050714D01*
X113546920Y-60748333D01*
X113607396Y-60506428D01*
X113667872Y-60385476D01*
X113728348Y-60325000D01*
X113849301Y-60264523D01*
X115361205Y-61534523D02*
X115361205Y-60869285D01*
X115300729Y-60748333D01*
X115179777Y-60687857D01*
X114937872Y-60687857D01*
X114816920Y-60748333D01*
X115361205Y-61474047D02*
X115240253Y-61534523D01*
X114937872Y-61534523D01*
X114816920Y-61474047D01*
X114756444Y-61353095D01*
X114756444Y-61232142D01*
X114816920Y-61111190D01*
X114937872Y-61050714D01*
X115240253Y-61050714D01*
X115361205Y-60990238D01*
X91170729Y-62430176D02*
X91231205Y-62369700D01*
X91352158Y-62309223D01*
X91654539Y-62309223D01*
X91775491Y-62369700D01*
X91835967Y-62430176D01*
X91896444Y-62551128D01*
X91896444Y-62672080D01*
X91835967Y-62853509D01*
X91110253Y-63579223D01*
X91896444Y-63579223D01*
X92682634Y-62309223D02*
X92803586Y-62309223D01*
X92924539Y-62369700D01*
X92985015Y-62430176D01*
X93045491Y-62551128D01*
X93105967Y-62793033D01*
X93105967Y-63095414D01*
X93045491Y-63337319D01*
X92985015Y-63458271D01*
X92924539Y-63518747D01*
X92803586Y-63579223D01*
X92682634Y-63579223D01*
X92561682Y-63518747D01*
X92501205Y-63458271D01*
X92440729Y-63337319D01*
X92380253Y-63095414D01*
X92380253Y-62793033D01*
X92440729Y-62551128D01*
X92501205Y-62430176D01*
X92561682Y-62369700D01*
X92682634Y-62309223D01*
X93589777Y-62430176D02*
X93650253Y-62369700D01*
X93771205Y-62309223D01*
X94073586Y-62309223D01*
X94194539Y-62369700D01*
X94255015Y-62430176D01*
X94315491Y-62551128D01*
X94315491Y-62672080D01*
X94255015Y-62853509D01*
X93529301Y-63579223D01*
X94315491Y-63579223D01*
X94799301Y-62430176D02*
X94859777Y-62369700D01*
X94980729Y-62309223D01*
X95283110Y-62309223D01*
X95404063Y-62369700D01*
X95464539Y-62430176D01*
X95525015Y-62551128D01*
X95525015Y-62672080D01*
X95464539Y-62853509D01*
X94738825Y-63579223D01*
X95525015Y-63579223D01*
X97036920Y-63579223D02*
X97036920Y-62309223D01*
X97036920Y-62913985D02*
X97762634Y-62913985D01*
X97762634Y-63579223D02*
X97762634Y-62309223D01*
X98911682Y-63579223D02*
X98911682Y-62913985D01*
X98851205Y-62793033D01*
X98730253Y-62732557D01*
X98488348Y-62732557D01*
X98367396Y-62793033D01*
X98911682Y-63518747D02*
X98790729Y-63579223D01*
X98488348Y-63579223D01*
X98367396Y-63518747D01*
X98306920Y-63397795D01*
X98306920Y-63276842D01*
X98367396Y-63155890D01*
X98488348Y-63095414D01*
X98790729Y-63095414D01*
X98911682Y-63034938D01*
X99697872Y-63579223D02*
X99576920Y-63518747D01*
X99516444Y-63397795D01*
X99516444Y-62309223D01*
X100181682Y-63579223D02*
X100181682Y-62732557D01*
X100181682Y-62309223D02*
X100121205Y-62369700D01*
X100181682Y-62430176D01*
X100242158Y-62369700D01*
X100181682Y-62309223D01*
X100181682Y-62430176D01*
X100786444Y-63579223D02*
X100786444Y-62309223D01*
X100786444Y-62793033D02*
X100907396Y-62732557D01*
X101149301Y-62732557D01*
X101270253Y-62793033D01*
X101330729Y-62853509D01*
X101391205Y-62974461D01*
X101391205Y-63337319D01*
X101330729Y-63458271D01*
X101270253Y-63518747D01*
X101149301Y-63579223D01*
X100907396Y-63579223D01*
X100786444Y-63518747D01*
X102479777Y-62732557D02*
X102479777Y-63579223D01*
X101935491Y-62732557D02*
X101935491Y-63397795D01*
X101995967Y-63518747D01*
X102116920Y-63579223D01*
X102298348Y-63579223D01*
X102419301Y-63518747D01*
X102479777Y-63458271D01*
X102903110Y-62732557D02*
X103386920Y-62732557D01*
X103084539Y-62309223D02*
X103084539Y-63397795D01*
X103145015Y-63518747D01*
X103265967Y-63579223D01*
X103386920Y-63579223D01*
X104777872Y-62913985D02*
X105201205Y-62913985D01*
X105382634Y-63579223D02*
X104777872Y-63579223D01*
X104777872Y-62309223D01*
X105382634Y-62309223D01*
X106108348Y-63579223D02*
X105987396Y-63518747D01*
X105926920Y-63397795D01*
X105926920Y-62309223D01*
X107075967Y-63518747D02*
X106955015Y-63579223D01*
X106713110Y-63579223D01*
X106592158Y-63518747D01*
X106531682Y-63397795D01*
X106531682Y-62913985D01*
X106592158Y-62793033D01*
X106713110Y-62732557D01*
X106955015Y-62732557D01*
X107075967Y-62793033D01*
X107136444Y-62913985D01*
X107136444Y-63034938D01*
X106531682Y-63155890D01*
X108225015Y-63518747D02*
X108104063Y-63579223D01*
X107862158Y-63579223D01*
X107741205Y-63518747D01*
X107680729Y-63458271D01*
X107620253Y-63337319D01*
X107620253Y-62974461D01*
X107680729Y-62853509D01*
X107741205Y-62793033D01*
X107862158Y-62732557D01*
X108104063Y-62732557D01*
X108225015Y-62793033D01*
X108587872Y-62732557D02*
X109071682Y-62732557D01*
X108769301Y-62309223D02*
X108769301Y-63397795D01*
X108829777Y-63518747D01*
X108950729Y-63579223D01*
X109071682Y-63579223D01*
X109495015Y-63579223D02*
X109495015Y-62732557D01*
X109495015Y-62974461D02*
X109555491Y-62853509D01*
X109615967Y-62793033D01*
X109736920Y-62732557D01*
X109857872Y-62732557D01*
X110462634Y-63579223D02*
X110341682Y-63518747D01*
X110281205Y-63458271D01*
X110220729Y-63337319D01*
X110220729Y-62974461D01*
X110281205Y-62853509D01*
X110341682Y-62793033D01*
X110462634Y-62732557D01*
X110644063Y-62732557D01*
X110765015Y-62793033D01*
X110825491Y-62853509D01*
X110885967Y-62974461D01*
X110885967Y-63337319D01*
X110825491Y-63458271D01*
X110765015Y-63518747D01*
X110644063Y-63579223D01*
X110462634Y-63579223D01*
X111430253Y-62732557D02*
X111430253Y-63579223D01*
X111430253Y-62853509D02*
X111490729Y-62793033D01*
X111611682Y-62732557D01*
X111793110Y-62732557D01*
X111914063Y-62793033D01*
X111974539Y-62913985D01*
X111974539Y-63579223D01*
X112579301Y-63579223D02*
X112579301Y-62732557D01*
X112579301Y-62309223D02*
X112518825Y-62369700D01*
X112579301Y-62430176D01*
X112639777Y-62369700D01*
X112579301Y-62309223D01*
X112579301Y-62430176D01*
X113728348Y-63518747D02*
X113607396Y-63579223D01*
X113365491Y-63579223D01*
X113244539Y-63518747D01*
X113184063Y-63458271D01*
X113123586Y-63337319D01*
X113123586Y-62974461D01*
X113184063Y-62853509D01*
X113244539Y-62793033D01*
X113365491Y-62732557D01*
X113607396Y-62732557D01*
X113728348Y-62793033D01*
X114212158Y-63518747D02*
X114333110Y-63579223D01*
X114575015Y-63579223D01*
X114695967Y-63518747D01*
X114756444Y-63397795D01*
X114756444Y-63337319D01*
X114695967Y-63216366D01*
X114575015Y-63155890D01*
X114393586Y-63155890D01*
X114272634Y-63095414D01*
X114212158Y-62974461D01*
X114212158Y-62913985D01*
X114272634Y-62793033D01*
X114393586Y-62732557D01*
X114575015Y-62732557D01*
X114695967Y-62793033D01*
D11*
X139065000Y-77470000D02*
X140335000Y-77470000D01*
X139065000Y-76835000D02*
X140335000Y-76835000D01*
X139700000Y-75565000D02*
X139700000Y-74295000D01*
X139065000Y-74295000D02*
X139065000Y-75565000D01*
D10*
X141335729Y-75389316D02*
X141940491Y-75389316D01*
X141214777Y-75752173D02*
X141638110Y-74482173D01*
X142061444Y-75752173D01*
X142484777Y-75752173D02*
X142484777Y-74905507D01*
X142484777Y-75026459D02*
X142545253Y-74965983D01*
X142666205Y-74905507D01*
X142847634Y-74905507D01*
X142968586Y-74965983D01*
X143029063Y-75086935D01*
X143029063Y-75752173D01*
X143029063Y-75086935D02*
X143089539Y-74965983D01*
X143210491Y-74905507D01*
X143391920Y-74905507D01*
X143512872Y-74965983D01*
X143573348Y-75086935D01*
X143573348Y-75752173D01*
X144178110Y-74905507D02*
X144178110Y-76175507D01*
X144178110Y-74965983D02*
X144299063Y-74905507D01*
X144540967Y-74905507D01*
X144661920Y-74965983D01*
X144722396Y-75026459D01*
X144782872Y-75147411D01*
X144782872Y-75510269D01*
X144722396Y-75631221D01*
X144661920Y-75691697D01*
X144540967Y-75752173D01*
X144299063Y-75752173D01*
X144178110Y-75691697D01*
X146294777Y-75752173D02*
X146294777Y-74482173D01*
X146899539Y-74905507D02*
X146899539Y-75752173D01*
X146899539Y-75026459D02*
X146960015Y-74965983D01*
X147080967Y-74905507D01*
X147262396Y-74905507D01*
X147383348Y-74965983D01*
X147443825Y-75086935D01*
X147443825Y-75752173D01*
X148230015Y-75752173D02*
X148109063Y-75691697D01*
X148048586Y-75570745D01*
X148048586Y-74482173D01*
X148713825Y-75752173D02*
X148713825Y-74905507D01*
X148713825Y-74482173D02*
X148653348Y-74542650D01*
X148713825Y-74603126D01*
X148774301Y-74542650D01*
X148713825Y-74482173D01*
X148713825Y-74603126D01*
X149318586Y-74905507D02*
X149318586Y-75752173D01*
X149318586Y-75026459D02*
X149379063Y-74965983D01*
X149500015Y-74905507D01*
X149681444Y-74905507D01*
X149802396Y-74965983D01*
X149862872Y-75086935D01*
X149862872Y-75752173D01*
X150951444Y-75691697D02*
X150830491Y-75752173D01*
X150588586Y-75752173D01*
X150467634Y-75691697D01*
X150407158Y-75570745D01*
X150407158Y-75086935D01*
X150467634Y-74965983D01*
X150588586Y-74905507D01*
X150830491Y-74905507D01*
X150951444Y-74965983D01*
X151011920Y-75086935D01*
X151011920Y-75207888D01*
X150407158Y-75328840D01*
X141819539Y-77131635D02*
X142000967Y-77192111D01*
X142061444Y-77252588D01*
X142121920Y-77373540D01*
X142121920Y-77554969D01*
X142061444Y-77675921D01*
X142000967Y-77736397D01*
X141880015Y-77796873D01*
X141396205Y-77796873D01*
X141396205Y-76526873D01*
X141819539Y-76526873D01*
X141940491Y-76587350D01*
X142000967Y-76647826D01*
X142061444Y-76768778D01*
X142061444Y-76889730D01*
X142000967Y-77010683D01*
X141940491Y-77071159D01*
X141819539Y-77131635D01*
X141396205Y-77131635D01*
X142545253Y-76950207D02*
X142847634Y-77796873D01*
X143150015Y-76950207D02*
X142847634Y-77796873D01*
X142726682Y-78099254D01*
X142666205Y-78159730D01*
X142545253Y-78220207D01*
X143633825Y-76950207D02*
X143633825Y-78220207D01*
X143633825Y-77010683D02*
X143754777Y-76950207D01*
X143996682Y-76950207D01*
X144117634Y-77010683D01*
X144178110Y-77071159D01*
X144238586Y-77192111D01*
X144238586Y-77554969D01*
X144178110Y-77675921D01*
X144117634Y-77736397D01*
X143996682Y-77796873D01*
X143754777Y-77796873D01*
X143633825Y-77736397D01*
X145327158Y-77796873D02*
X145327158Y-77131635D01*
X145266682Y-77010683D01*
X145145729Y-76950207D01*
X144903825Y-76950207D01*
X144782872Y-77010683D01*
X145327158Y-77736397D02*
X145206205Y-77796873D01*
X144903825Y-77796873D01*
X144782872Y-77736397D01*
X144722396Y-77615445D01*
X144722396Y-77494492D01*
X144782872Y-77373540D01*
X144903825Y-77313064D01*
X145206205Y-77313064D01*
X145327158Y-77252588D01*
X145871444Y-77736397D02*
X145992396Y-77796873D01*
X146234301Y-77796873D01*
X146355253Y-77736397D01*
X146415729Y-77615445D01*
X146415729Y-77554969D01*
X146355253Y-77434016D01*
X146234301Y-77373540D01*
X146052872Y-77373540D01*
X145931920Y-77313064D01*
X145871444Y-77192111D01*
X145871444Y-77131635D01*
X145931920Y-77010683D01*
X146052872Y-76950207D01*
X146234301Y-76950207D01*
X146355253Y-77010683D01*
X146899539Y-77736397D02*
X147020491Y-77796873D01*
X147262396Y-77796873D01*
X147383348Y-77736397D01*
X147443825Y-77615445D01*
X147443825Y-77554969D01*
X147383348Y-77434016D01*
X147262396Y-77373540D01*
X147080967Y-77373540D01*
X146960015Y-77313064D01*
X146899539Y-77192111D01*
X146899539Y-77131635D01*
X146960015Y-77010683D01*
X147080967Y-76950207D01*
X147262396Y-76950207D01*
X147383348Y-77010683D01*
X113030000Y-82489523D02*
X113030000Y-81219523D01*
X113453333Y-82126666D01*
X113876666Y-81219523D01*
X113876666Y-82489523D01*
X114481428Y-82489523D02*
X114481428Y-81642857D01*
X114481428Y-81219523D02*
X114420952Y-81280000D01*
X114481428Y-81340476D01*
X114541904Y-81280000D01*
X114481428Y-81219523D01*
X114481428Y-81340476D01*
X115630476Y-82429047D02*
X115509523Y-82489523D01*
X115267619Y-82489523D01*
X115146666Y-82429047D01*
X115086190Y-82368571D01*
X115025714Y-82247619D01*
X115025714Y-81884761D01*
X115086190Y-81763809D01*
X115146666Y-81703333D01*
X115267619Y-81642857D01*
X115509523Y-81642857D01*
X115630476Y-81703333D01*
X118412380Y-82489523D02*
X118412380Y-81219523D01*
X118412380Y-81824285D02*
X119138095Y-81824285D01*
X119138095Y-82489523D02*
X119138095Y-81219523D01*
X120226666Y-82429047D02*
X120105714Y-82489523D01*
X119863809Y-82489523D01*
X119742857Y-82429047D01*
X119682380Y-82308095D01*
X119682380Y-81824285D01*
X119742857Y-81703333D01*
X119863809Y-81642857D01*
X120105714Y-81642857D01*
X120226666Y-81703333D01*
X120287142Y-81824285D01*
X120287142Y-81945238D01*
X119682380Y-82066190D01*
X121375714Y-82489523D02*
X121375714Y-81824285D01*
X121315238Y-81703333D01*
X121194285Y-81642857D01*
X120952380Y-81642857D01*
X120831428Y-81703333D01*
X121375714Y-82429047D02*
X121254761Y-82489523D01*
X120952380Y-82489523D01*
X120831428Y-82429047D01*
X120770952Y-82308095D01*
X120770952Y-82187142D01*
X120831428Y-82066190D01*
X120952380Y-82005714D01*
X121254761Y-82005714D01*
X121375714Y-81945238D01*
X122524761Y-82489523D02*
X122524761Y-81219523D01*
X122524761Y-82429047D02*
X122403809Y-82489523D01*
X122161904Y-82489523D01*
X122040952Y-82429047D01*
X121980476Y-82368571D01*
X121920000Y-82247619D01*
X121920000Y-81884761D01*
X121980476Y-81763809D01*
X122040952Y-81703333D01*
X122161904Y-81642857D01*
X122403809Y-81642857D01*
X122524761Y-81703333D01*
X123129523Y-81642857D02*
X123129523Y-82912857D01*
X123129523Y-81703333D02*
X123250476Y-81642857D01*
X123492380Y-81642857D01*
X123613333Y-81703333D01*
X123673809Y-81763809D01*
X123734285Y-81884761D01*
X123734285Y-82247619D01*
X123673809Y-82368571D01*
X123613333Y-82429047D01*
X123492380Y-82489523D01*
X123250476Y-82489523D01*
X123129523Y-82429047D01*
X124278571Y-82489523D02*
X124278571Y-81219523D01*
X124822857Y-82489523D02*
X124822857Y-81824285D01*
X124762380Y-81703333D01*
X124641428Y-81642857D01*
X124460000Y-81642857D01*
X124339047Y-81703333D01*
X124278571Y-81763809D01*
X125609047Y-82489523D02*
X125488095Y-82429047D01*
X125427619Y-82368571D01*
X125367142Y-82247619D01*
X125367142Y-81884761D01*
X125427619Y-81763809D01*
X125488095Y-81703333D01*
X125609047Y-81642857D01*
X125790476Y-81642857D01*
X125911428Y-81703333D01*
X125971904Y-81763809D01*
X126032380Y-81884761D01*
X126032380Y-82247619D01*
X125971904Y-82368571D01*
X125911428Y-82429047D01*
X125790476Y-82489523D01*
X125609047Y-82489523D01*
X126576666Y-81642857D02*
X126576666Y-82489523D01*
X126576666Y-81763809D02*
X126637142Y-81703333D01*
X126758095Y-81642857D01*
X126939523Y-81642857D01*
X127060476Y-81703333D01*
X127120952Y-81824285D01*
X127120952Y-82489523D01*
X128209523Y-82429047D02*
X128088571Y-82489523D01*
X127846666Y-82489523D01*
X127725714Y-82429047D01*
X127665238Y-82308095D01*
X127665238Y-81824285D01*
X127725714Y-81703333D01*
X127846666Y-81642857D01*
X128088571Y-81642857D01*
X128209523Y-81703333D01*
X128270000Y-81824285D01*
X128270000Y-81945238D01*
X127665238Y-82066190D01*
X128753809Y-82429047D02*
X128874761Y-82489523D01*
X129116666Y-82489523D01*
X129237619Y-82429047D01*
X129298095Y-82308095D01*
X129298095Y-82247619D01*
X129237619Y-82126666D01*
X129116666Y-82066190D01*
X128935238Y-82066190D01*
X128814285Y-82005714D01*
X128753809Y-81884761D01*
X128753809Y-81824285D01*
X128814285Y-81703333D01*
X128935238Y-81642857D01*
X129116666Y-81642857D01*
X129237619Y-81703333D01*
X135406190Y-82489523D02*
X135406190Y-81219523D01*
X135406190Y-81824285D02*
X136131904Y-81824285D01*
X136131904Y-82489523D02*
X136131904Y-81219523D01*
X137220476Y-82429047D02*
X137099523Y-82489523D01*
X136857619Y-82489523D01*
X136736666Y-82429047D01*
X136676190Y-82308095D01*
X136676190Y-81824285D01*
X136736666Y-81703333D01*
X136857619Y-81642857D01*
X137099523Y-81642857D01*
X137220476Y-81703333D01*
X137280952Y-81824285D01*
X137280952Y-81945238D01*
X136676190Y-82066190D01*
X138369523Y-82489523D02*
X138369523Y-81824285D01*
X138309047Y-81703333D01*
X138188095Y-81642857D01*
X137946190Y-81642857D01*
X137825238Y-81703333D01*
X138369523Y-82429047D02*
X138248571Y-82489523D01*
X137946190Y-82489523D01*
X137825238Y-82429047D01*
X137764761Y-82308095D01*
X137764761Y-82187142D01*
X137825238Y-82066190D01*
X137946190Y-82005714D01*
X138248571Y-82005714D01*
X138369523Y-81945238D01*
X139518571Y-82489523D02*
X139518571Y-81219523D01*
X139518571Y-82429047D02*
X139397619Y-82489523D01*
X139155714Y-82489523D01*
X139034761Y-82429047D01*
X138974285Y-82368571D01*
X138913809Y-82247619D01*
X138913809Y-81884761D01*
X138974285Y-81763809D01*
X139034761Y-81703333D01*
X139155714Y-81642857D01*
X139397619Y-81642857D01*
X139518571Y-81703333D01*
X140062857Y-82429047D02*
X140183809Y-82489523D01*
X140425714Y-82489523D01*
X140546666Y-82429047D01*
X140607142Y-82308095D01*
X140607142Y-82247619D01*
X140546666Y-82126666D01*
X140425714Y-82066190D01*
X140244285Y-82066190D01*
X140123333Y-82005714D01*
X140062857Y-81884761D01*
X140062857Y-81824285D01*
X140123333Y-81703333D01*
X140244285Y-81642857D01*
X140425714Y-81642857D01*
X140546666Y-81703333D01*
X141635238Y-82429047D02*
X141514285Y-82489523D01*
X141272380Y-82489523D01*
X141151428Y-82429047D01*
X141090952Y-82308095D01*
X141090952Y-81824285D01*
X141151428Y-81703333D01*
X141272380Y-81642857D01*
X141514285Y-81642857D01*
X141635238Y-81703333D01*
X141695714Y-81824285D01*
X141695714Y-81945238D01*
X141090952Y-82066190D01*
X142058571Y-81642857D02*
X142542380Y-81642857D01*
X142240000Y-81219523D02*
X142240000Y-82308095D01*
X142300476Y-82429047D01*
X142421428Y-82489523D01*
X142542380Y-82489523D01*
X144175238Y-81219523D02*
X144417142Y-81219523D01*
X144538095Y-81280000D01*
X144659047Y-81400952D01*
X144719523Y-81642857D01*
X144719523Y-82066190D01*
X144659047Y-82308095D01*
X144538095Y-82429047D01*
X144417142Y-82489523D01*
X144175238Y-82489523D01*
X144054285Y-82429047D01*
X143933333Y-82308095D01*
X143872857Y-82066190D01*
X143872857Y-81642857D01*
X143933333Y-81400952D01*
X144054285Y-81280000D01*
X144175238Y-81219523D01*
X145808095Y-81642857D02*
X145808095Y-82489523D01*
X145263809Y-81642857D02*
X145263809Y-82308095D01*
X145324285Y-82429047D01*
X145445238Y-82489523D01*
X145626666Y-82489523D01*
X145747619Y-82429047D01*
X145808095Y-82368571D01*
X146231428Y-81642857D02*
X146715238Y-81642857D01*
X146412857Y-81219523D02*
X146412857Y-82308095D01*
X146473333Y-82429047D01*
X146594285Y-82489523D01*
X146715238Y-82489523D01*
D11*
%TO.C,REF\u002A\u002A*%
X85661666Y-96972380D02*
X85328333Y-96496190D01*
X85090238Y-96972380D02*
X85090238Y-95972380D01*
X85471190Y-95972380D01*
X85566428Y-96020000D01*
X85614047Y-96067619D01*
X85661666Y-96162857D01*
X85661666Y-96305714D01*
X85614047Y-96400952D01*
X85566428Y-96448571D01*
X85471190Y-96496190D01*
X85090238Y-96496190D01*
X86090238Y-96448571D02*
X86423571Y-96448571D01*
X86566428Y-96972380D02*
X86090238Y-96972380D01*
X86090238Y-95972380D01*
X86566428Y-95972380D01*
X87328333Y-96448571D02*
X86995000Y-96448571D01*
X86995000Y-96972380D02*
X86995000Y-95972380D01*
X87471190Y-95972380D01*
X87995000Y-95972380D02*
X87995000Y-96210476D01*
X87756904Y-96115238D02*
X87995000Y-96210476D01*
X88233095Y-96115238D01*
X87852142Y-96400952D02*
X87995000Y-96210476D01*
X88137857Y-96400952D01*
X88756904Y-95972380D02*
X88756904Y-96210476D01*
X88518809Y-96115238D02*
X88756904Y-96210476D01*
X88995000Y-96115238D01*
X88614047Y-96400952D02*
X88756904Y-96210476D01*
X88899761Y-96400952D01*
X92011666Y-96972380D02*
X91678333Y-96496190D01*
X91440238Y-96972380D02*
X91440238Y-95972380D01*
X91821190Y-95972380D01*
X91916428Y-96020000D01*
X91964047Y-96067619D01*
X92011666Y-96162857D01*
X92011666Y-96305714D01*
X91964047Y-96400952D01*
X91916428Y-96448571D01*
X91821190Y-96496190D01*
X91440238Y-96496190D01*
X92440238Y-96448571D02*
X92773571Y-96448571D01*
X92916428Y-96972380D02*
X92440238Y-96972380D01*
X92440238Y-95972380D01*
X92916428Y-95972380D01*
X93678333Y-96448571D02*
X93345000Y-96448571D01*
X93345000Y-96972380D02*
X93345000Y-95972380D01*
X93821190Y-95972380D01*
X94345000Y-95972380D02*
X94345000Y-96210476D01*
X94106904Y-96115238D02*
X94345000Y-96210476D01*
X94583095Y-96115238D01*
X94202142Y-96400952D02*
X94345000Y-96210476D01*
X94487857Y-96400952D01*
X95106904Y-95972380D02*
X95106904Y-96210476D01*
X94868809Y-96115238D02*
X95106904Y-96210476D01*
X95345000Y-96115238D01*
X94964047Y-96400952D02*
X95106904Y-96210476D01*
X95249761Y-96400952D01*
X148526666Y-96972380D02*
X148193333Y-96496190D01*
X147955238Y-96972380D02*
X147955238Y-95972380D01*
X148336190Y-95972380D01*
X148431428Y-96020000D01*
X148479047Y-96067619D01*
X148526666Y-96162857D01*
X148526666Y-96305714D01*
X148479047Y-96400952D01*
X148431428Y-96448571D01*
X148336190Y-96496190D01*
X147955238Y-96496190D01*
X148955238Y-96448571D02*
X149288571Y-96448571D01*
X149431428Y-96972380D02*
X148955238Y-96972380D01*
X148955238Y-95972380D01*
X149431428Y-95972380D01*
X150193333Y-96448571D02*
X149860000Y-96448571D01*
X149860000Y-96972380D02*
X149860000Y-95972380D01*
X150336190Y-95972380D01*
X150860000Y-95972380D02*
X150860000Y-96210476D01*
X150621904Y-96115238D02*
X150860000Y-96210476D01*
X151098095Y-96115238D01*
X150717142Y-96400952D02*
X150860000Y-96210476D01*
X151002857Y-96400952D01*
X151621904Y-95972380D02*
X151621904Y-96210476D01*
X151383809Y-96115238D02*
X151621904Y-96210476D01*
X151860000Y-96115238D01*
X151479047Y-96400952D02*
X151621904Y-96210476D01*
X151764761Y-96400952D01*
X147256666Y-96972380D02*
X146923333Y-96496190D01*
X146685238Y-96972380D02*
X146685238Y-95972380D01*
X147066190Y-95972380D01*
X147161428Y-96020000D01*
X147209047Y-96067619D01*
X147256666Y-96162857D01*
X147256666Y-96305714D01*
X147209047Y-96400952D01*
X147161428Y-96448571D01*
X147066190Y-96496190D01*
X146685238Y-96496190D01*
X147685238Y-96448571D02*
X148018571Y-96448571D01*
X148161428Y-96972380D02*
X147685238Y-96972380D01*
X147685238Y-95972380D01*
X148161428Y-95972380D01*
X148923333Y-96448571D02*
X148590000Y-96448571D01*
X148590000Y-96972380D02*
X148590000Y-95972380D01*
X149066190Y-95972380D01*
X149590000Y-95972380D02*
X149590000Y-96210476D01*
X149351904Y-96115238D02*
X149590000Y-96210476D01*
X149828095Y-96115238D01*
X149447142Y-96400952D02*
X149590000Y-96210476D01*
X149732857Y-96400952D01*
X150351904Y-95972380D02*
X150351904Y-96210476D01*
X150113809Y-96115238D02*
X150351904Y-96210476D01*
X150590000Y-96115238D01*
X150209047Y-96400952D02*
X150351904Y-96210476D01*
X150494761Y-96400952D01*
%TO.C,J2*%
X133021666Y-79257380D02*
X133021666Y-79971666D01*
X132974047Y-80114523D01*
X132878809Y-80209761D01*
X132735952Y-80257380D01*
X132640714Y-80257380D01*
X133450238Y-79352619D02*
X133497857Y-79305000D01*
X133593095Y-79257380D01*
X133831190Y-79257380D01*
X133926428Y-79305000D01*
X133974047Y-79352619D01*
X134021666Y-79447857D01*
X134021666Y-79543095D01*
X133974047Y-79685952D01*
X133402619Y-80257380D01*
X134021666Y-80257380D01*
%TO.C,R3*%
X136993333Y-69732380D02*
X136660000Y-69256190D01*
X136421904Y-69732380D02*
X136421904Y-68732380D01*
X136802857Y-68732380D01*
X136898095Y-68780000D01*
X136945714Y-68827619D01*
X136993333Y-68922857D01*
X136993333Y-69065714D01*
X136945714Y-69160952D01*
X136898095Y-69208571D01*
X136802857Y-69256190D01*
X136421904Y-69256190D01*
X137326666Y-68732380D02*
X137945714Y-68732380D01*
X137612380Y-69113333D01*
X137755238Y-69113333D01*
X137850476Y-69160952D01*
X137898095Y-69208571D01*
X137945714Y-69303809D01*
X137945714Y-69541904D01*
X137898095Y-69637142D01*
X137850476Y-69684761D01*
X137755238Y-69732380D01*
X137469523Y-69732380D01*
X137374285Y-69684761D01*
X137326666Y-69637142D01*
%TO.C,R2*%
X128738333Y-69667380D02*
X128405000Y-69191190D01*
X128166904Y-69667380D02*
X128166904Y-68667380D01*
X128547857Y-68667380D01*
X128643095Y-68715000D01*
X128690714Y-68762619D01*
X128738333Y-68857857D01*
X128738333Y-69000714D01*
X128690714Y-69095952D01*
X128643095Y-69143571D01*
X128547857Y-69191190D01*
X128166904Y-69191190D01*
X129119285Y-68762619D02*
X129166904Y-68715000D01*
X129262142Y-68667380D01*
X129500238Y-68667380D01*
X129595476Y-68715000D01*
X129643095Y-68762619D01*
X129690714Y-68857857D01*
X129690714Y-68953095D01*
X129643095Y-69095952D01*
X129071666Y-69667380D01*
X129690714Y-69667380D01*
%TO.C,R1*%
X128738333Y-63317380D02*
X128405000Y-62841190D01*
X128166904Y-63317380D02*
X128166904Y-62317380D01*
X128547857Y-62317380D01*
X128643095Y-62365000D01*
X128690714Y-62412619D01*
X128738333Y-62507857D01*
X128738333Y-62650714D01*
X128690714Y-62745952D01*
X128643095Y-62793571D01*
X128547857Y-62841190D01*
X128166904Y-62841190D01*
X129690714Y-63317380D02*
X129119285Y-63317380D01*
X129405000Y-63317380D02*
X129405000Y-62317380D01*
X129309761Y-62460238D01*
X129214523Y-62555476D01*
X129119285Y-62603095D01*
%TO.C,Q1*%
X137064761Y-65317619D02*
X136969523Y-65270000D01*
X136874285Y-65174761D01*
X136731428Y-65031904D01*
X136636190Y-64984285D01*
X136540952Y-64984285D01*
X136588571Y-65222380D02*
X136493333Y-65174761D01*
X136398095Y-65079523D01*
X136350476Y-64889047D01*
X136350476Y-64555714D01*
X136398095Y-64365238D01*
X136493333Y-64270000D01*
X136588571Y-64222380D01*
X136779047Y-64222380D01*
X136874285Y-64270000D01*
X136969523Y-64365238D01*
X137017142Y-64555714D01*
X137017142Y-64889047D01*
X136969523Y-65079523D01*
X136874285Y-65174761D01*
X136779047Y-65222380D01*
X136588571Y-65222380D01*
X137969523Y-65222380D02*
X137398095Y-65222380D01*
X137683809Y-65222380D02*
X137683809Y-64222380D01*
X137588571Y-64365238D01*
X137493333Y-64460476D01*
X137398095Y-64508095D01*
%TO.C,J5*%
X112482380Y-96583333D02*
X113196666Y-96583333D01*
X113339523Y-96630952D01*
X113434761Y-96726190D01*
X113482380Y-96869047D01*
X113482380Y-96964285D01*
X112482380Y-95630952D02*
X112482380Y-96107142D01*
X112958571Y-96154761D01*
X112910952Y-96107142D01*
X112863333Y-96011904D01*
X112863333Y-95773809D01*
X112910952Y-95678571D01*
X112958571Y-95630952D01*
X113053809Y-95583333D01*
X113291904Y-95583333D01*
X113387142Y-95630952D01*
X113434761Y-95678571D01*
X113482380Y-95773809D01*
X113482380Y-96011904D01*
X113434761Y-96107142D01*
X113387142Y-96154761D01*
%TO.C,J4*%
X123912380Y-96583333D02*
X124626666Y-96583333D01*
X124769523Y-96630952D01*
X124864761Y-96726190D01*
X124912380Y-96869047D01*
X124912380Y-96964285D01*
X124245714Y-95678571D02*
X124912380Y-95678571D01*
X123864761Y-95916666D02*
X124579047Y-96154761D01*
X124579047Y-95535714D01*
%TO.C,J3*%
X114387380Y-96853333D02*
X115101666Y-96853333D01*
X115244523Y-96900952D01*
X115339761Y-96996190D01*
X115387380Y-97139047D01*
X115387380Y-97234285D01*
X114387380Y-96472380D02*
X114387380Y-95853333D01*
X114768333Y-96186666D01*
X114768333Y-96043809D01*
X114815952Y-95948571D01*
X114863571Y-95900952D01*
X114958809Y-95853333D01*
X115196904Y-95853333D01*
X115292142Y-95900952D01*
X115339761Y-95948571D01*
X115387380Y-96043809D01*
X115387380Y-96329523D01*
X115339761Y-96424761D01*
X115292142Y-96472380D01*
%TO.C,J1*%
X96186666Y-95972380D02*
X96186666Y-96686666D01*
X96139047Y-96829523D01*
X96043809Y-96924761D01*
X95900952Y-96972380D01*
X95805714Y-96972380D01*
X97186666Y-96972380D02*
X96615238Y-96972380D01*
X96900952Y-96972380D02*
X96900952Y-95972380D01*
X96805714Y-96115238D01*
X96710476Y-96210476D01*
X96615238Y-96258095D01*
%TO.C,C1*%
X123658333Y-67032142D02*
X123610714Y-67079761D01*
X123467857Y-67127380D01*
X123372619Y-67127380D01*
X123229761Y-67079761D01*
X123134523Y-66984523D01*
X123086904Y-66889285D01*
X123039285Y-66698809D01*
X123039285Y-66555952D01*
X123086904Y-66365476D01*
X123134523Y-66270238D01*
X123229761Y-66175000D01*
X123372619Y-66127380D01*
X123467857Y-66127380D01*
X123610714Y-66175000D01*
X123658333Y-66222619D01*
X124610714Y-67127380D02*
X124039285Y-67127380D01*
X124325000Y-67127380D02*
X124325000Y-66127380D01*
X124229761Y-66270238D01*
X124134523Y-66365476D01*
X124039285Y-66413095D01*
D12*
%TO.C,J2*%
X135955000Y-76205000D02*
X135955000Y-73605000D01*
X135955000Y-76205000D02*
X133355000Y-76205000D01*
X133355000Y-78805000D02*
X130755000Y-78805000D01*
X133355000Y-76205000D02*
X133355000Y-78805000D01*
X135955000Y-78805000D02*
X134625000Y-78805000D01*
X135955000Y-73605000D02*
X130755000Y-73605000D01*
X130755000Y-78805000D02*
X130755000Y-73605000D01*
X135955000Y-77475000D02*
X135955000Y-78805000D01*
%TO.C,R3*%
X135777500Y-68960276D02*
X135777500Y-69469724D01*
X134732500Y-68960276D02*
X134732500Y-69469724D01*
%TO.C,R2*%
X131332500Y-68960276D02*
X131332500Y-69469724D01*
X130287500Y-68960276D02*
X130287500Y-69469724D01*
%TO.C,R1*%
X131332500Y-63880276D02*
X131332500Y-64389724D01*
X130287500Y-63880276D02*
X130287500Y-64389724D01*
%TO.C,Q1*%
X132425000Y-64770000D02*
X132425000Y-64120000D01*
X135545000Y-64770000D02*
X135545000Y-64120000D01*
X132425000Y-64770000D02*
X132425000Y-66445000D01*
X135545000Y-64770000D02*
X135545000Y-65420000D01*
D11*
%TO.C,J5*%
X111200000Y-95250000D02*
X117400000Y-95250000D01*
X117400000Y-95250000D02*
X117400000Y-83150000D01*
X117400000Y-83150000D02*
X111200000Y-83150000D01*
X111200000Y-83150000D02*
X111200000Y-95250000D01*
X111500000Y-95250000D02*
X111500000Y-97250000D01*
X111500000Y-97250000D02*
X117100000Y-97250000D01*
X117100000Y-97250000D02*
X117100000Y-95250000D01*
%TO.C,J4*%
X137870000Y-95250000D02*
X144070000Y-95250000D01*
X144070000Y-95250000D02*
X144070000Y-83150000D01*
X144070000Y-83150000D02*
X137870000Y-83150000D01*
X137870000Y-83150000D02*
X137870000Y-95250000D01*
X138170000Y-95250000D02*
X138170000Y-97250000D01*
X138170000Y-97250000D02*
X143770000Y-97250000D01*
X143770000Y-97250000D02*
X143770000Y-95250000D01*
%TO.C,J3*%
X120725000Y-95250000D02*
X126925000Y-95250000D01*
X126925000Y-95250000D02*
X126925000Y-83150000D01*
X126925000Y-83150000D02*
X120725000Y-83150000D01*
X120725000Y-83150000D02*
X120725000Y-95250000D01*
X121025000Y-95250000D02*
X121025000Y-97250000D01*
X121025000Y-97250000D02*
X126625000Y-97250000D01*
X126625000Y-97250000D02*
X126625000Y-95250000D01*
D12*
%TO.C,J1*%
X100445000Y-91460000D02*
X105785000Y-91460000D01*
X100445000Y-93760000D02*
X100445000Y-91460000D01*
X98945000Y-93760000D02*
X98945000Y-89690000D01*
X95625000Y-91460000D02*
X95145000Y-91460000D01*
X91325000Y-88990000D02*
X91325000Y-93760000D01*
X85375000Y-85720000D02*
X84985000Y-85080000D01*
X84985000Y-78960000D02*
X84985000Y-73720000D01*
X95825000Y-89860000D02*
X95825000Y-91260000D01*
X84985000Y-84220000D02*
X85255000Y-84070000D01*
X94945000Y-90000000D02*
X94945000Y-91260000D01*
X92825000Y-93760000D02*
X92825000Y-89690000D01*
X84985000Y-85080000D02*
X84985000Y-84220000D01*
X92825000Y-93760000D02*
X91325000Y-93760000D01*
X98945000Y-89690000D02*
X98945000Y-89690000D01*
X100445000Y-93760000D02*
X98945000Y-93760000D01*
X85985000Y-85380000D02*
X85375000Y-85720000D01*
X106785000Y-84200000D02*
X106785000Y-72840000D01*
X87282798Y-85653832D02*
G75*
G03*
X85985000Y-85380000I-807798J-616169D01*
G01*
X94945000Y-91260000D02*
G75*
G03*
X95145000Y-91460000I200001J1D01*
G01*
X106785001Y-72840000D02*
G75*
G03*
X91565950Y-67229262I-10900000J-6119998D01*
G01*
X105615000Y-90050000D02*
G75*
G03*
X105279454Y-87769393I170000J1190000D01*
G01*
X87315000Y-66830001D02*
G75*
G03*
X83933021Y-70650968I-1330000J-2229999D01*
G01*
X98945000Y-89690000D02*
G75*
G03*
X98745991Y-89480288I-210000J0D01*
G01*
X95625000Y-91460000D02*
G75*
G03*
X95825000Y-91260000I-1J200001D01*
G01*
X91325000Y-88990000D02*
G75*
G03*
X91258636Y-88830864I-199996J10002D01*
G01*
X94945000Y-90000000D02*
G75*
G03*
X94786582Y-89804370I-200002J-1D01*
G01*
X106785000Y-84200000D02*
G75*
G03*
X107837470Y-87265283I4990000J0D01*
G01*
X93016697Y-89480798D02*
G75*
G03*
X92825000Y-89690000I18304J-209202D01*
G01*
X87315000Y-66830001D02*
G75*
G03*
X91576919Y-67226159I2550000J4310004D01*
G01*
X85255000Y-84070000D02*
G75*
G03*
X85725786Y-82911372I-480000J870000D01*
G01*
X84985000Y-73720000D02*
G75*
G03*
X83928311Y-70642431I-5009993J2D01*
G01*
X105785000Y-91460001D02*
G75*
G03*
X107836619Y-87262858I0J2600001D01*
G01*
X87185000Y-69060000D02*
G75*
G03*
X87185000Y-69060000I-1200000J0D01*
G01*
X103785000Y-78960000D02*
G75*
G03*
X103785000Y-78960000I-7900000J0D01*
G01*
X106785000Y-78960000D02*
G75*
G03*
X106785000Y-78960000I-10900000J0D01*
G01*
X105485000Y-78960000D02*
G75*
G03*
X105485000Y-78960000I-9600000J0D01*
G01*
%TO.C,C1*%
X126853733Y-66165000D02*
X127146267Y-66165000D01*
X126853733Y-67185000D02*
X127146267Y-67185000D01*
%TD*%
%LPC*%
D13*
%TO.C,REF\u002A\u002A*%
X86360000Y-91440000D03*
%TD*%
%TO.C,REF\u002A\u002A*%
X86360000Y-60960000D03*
%TD*%
%TO.C,REF\u002A\u002A*%
X148590000Y-60960000D03*
%TD*%
%TO.C,REF\u002A\u002A*%
X148590000Y-91440000D03*
%TD*%
D14*
%TO.C,J2*%
X134625000Y-77475000D03*
D15*
X132085000Y-77475000D03*
X134625000Y-74935000D03*
X132085000Y-74935000D03*
%TD*%
D16*
%TO.C,R3*%
X135255000Y-68302500D03*
X135255000Y-70127500D03*
%TD*%
%TO.C,R2*%
X130810000Y-68302500D03*
X130810000Y-70127500D03*
%TD*%
%TO.C,R1*%
X130810000Y-63222500D03*
X130810000Y-65047500D03*
%TD*%
D17*
%TO.C,Q1*%
X133035000Y-65707500D03*
X134935000Y-65707500D03*
X133985000Y-63832500D03*
%TD*%
D18*
%TO.C,J5*%
X112000000Y-92050000D03*
X112000000Y-89050000D03*
X112000000Y-85050000D03*
X116600000Y-83950000D03*
D19*
X114300000Y-93650000D03*
X114300000Y-86650000D03*
%TD*%
D18*
%TO.C,J4*%
X138670000Y-92050000D03*
X138670000Y-89050000D03*
X138670000Y-85050000D03*
X143270000Y-83950000D03*
D19*
X140970000Y-93650000D03*
X140970000Y-86650000D03*
%TD*%
D18*
%TO.C,J3*%
X121525000Y-92050000D03*
X121525000Y-89050000D03*
X121525000Y-85050000D03*
X126125000Y-83950000D03*
D19*
X123825000Y-93650000D03*
X123825000Y-86650000D03*
%TD*%
D20*
%TO.C,J1*%
X99695000Y-78960000D03*
X92075000Y-78960000D03*
D21*
X95885000Y-83410000D03*
X104135000Y-89120000D03*
%TD*%
D22*
%TO.C,C1*%
X126137500Y-66675000D03*
X127862500Y-66675000D03*
%TD*%
M02*
