%TF.GenerationSoftware,KiCad,Pcbnew,6.0.7-f9a2dced07~116~ubuntu20.04.1*%
%TF.CreationDate,2022-08-02T17:22:42-07:00*%
%TF.ProjectId,MicPreampTest,4d696350-7265-4616-9d70-546573742e6b,rev?*%
%TF.SameCoordinates,Original*%
%TF.FileFunction,Soldermask,Top*%
%TF.FilePolarity,Negative*%
%FSLAX46Y46*%
G04 Gerber Fmt 4.6, Leading zero omitted, Abs format (unit mm)*
G04 Created by KiCad (PCBNEW 6.0.7-f9a2dced07~116~ubuntu20.04.1) date 2022-08-02 17:22:42*
%MOMM*%
%LPD*%
G01*
G04 APERTURE LIST*
G04 Aperture macros list*
%AMRoundRect*
0 Rectangle with rounded corners*
0 $1 Rounding radius*
0 $2 $3 $4 $5 $6 $7 $8 $9 X,Y pos of 4 corners*
0 Add a 4 corners polygon primitive as box body*
4,1,4,$2,$3,$4,$5,$6,$7,$8,$9,$2,$3,0*
0 Add four circle primitives for the rounded corners*
1,1,$1+$1,$2,$3*
1,1,$1+$1,$4,$5*
1,1,$1+$1,$6,$7*
1,1,$1+$1,$8,$9*
0 Add four rect primitives between the rounded corners*
20,1,$1+$1,$2,$3,$4,$5,0*
20,1,$1+$1,$4,$5,$6,$7,0*
20,1,$1+$1,$6,$7,$8,$9,0*
20,1,$1+$1,$8,$9,$2,$3,0*%
G04 Aperture macros list end*
%ADD10C,3.200000*%
%ADD11R,1.700000X1.700000*%
%ADD12O,1.700000X1.700000*%
%ADD13RoundRect,0.237500X-0.237500X0.250000X-0.237500X-0.250000X0.237500X-0.250000X0.237500X0.250000X0*%
%ADD14RoundRect,0.150000X0.150000X-0.587500X0.150000X0.587500X-0.150000X0.587500X-0.150000X-0.587500X0*%
%ADD15O,1.100000X1.700000*%
%ADD16C,1.500000*%
%ADD17C,3.400000*%
%ADD18C,2.900000*%
%ADD19RoundRect,0.237500X-0.300000X-0.237500X0.300000X-0.237500X0.300000X0.237500X-0.300000X0.237500X0*%
G04 APERTURE END LIST*
D10*
%TO.C,REF\u002A\u002A*%
X86360000Y-91440000D03*
%TD*%
%TO.C,REF\u002A\u002A*%
X86360000Y-60960000D03*
%TD*%
%TO.C,REF\u002A\u002A*%
X148590000Y-60960000D03*
%TD*%
%TO.C,REF\u002A\u002A*%
X148590000Y-91440000D03*
%TD*%
D11*
%TO.C,J2*%
X134625000Y-77475000D03*
D12*
X132085000Y-77475000D03*
X134625000Y-74935000D03*
X132085000Y-74935000D03*
%TD*%
D13*
%TO.C,R3*%
X135255000Y-68302500D03*
X135255000Y-70127500D03*
%TD*%
%TO.C,R2*%
X130810000Y-68302500D03*
X130810000Y-70127500D03*
%TD*%
%TO.C,R1*%
X130810000Y-63222500D03*
X130810000Y-65047500D03*
%TD*%
D14*
%TO.C,Q1*%
X133035000Y-65707500D03*
X134935000Y-65707500D03*
X133985000Y-63832500D03*
%TD*%
D15*
%TO.C,J5*%
X112000000Y-92050000D03*
X112000000Y-89050000D03*
X112000000Y-85050000D03*
X116600000Y-83950000D03*
D16*
X114300000Y-93650000D03*
X114300000Y-86650000D03*
%TD*%
D15*
%TO.C,J4*%
X138670000Y-92050000D03*
X138670000Y-89050000D03*
X138670000Y-85050000D03*
X143270000Y-83950000D03*
D16*
X140970000Y-93650000D03*
X140970000Y-86650000D03*
%TD*%
D15*
%TO.C,J3*%
X121525000Y-92050000D03*
X121525000Y-89050000D03*
X121525000Y-85050000D03*
X126125000Y-83950000D03*
D16*
X123825000Y-93650000D03*
X123825000Y-86650000D03*
%TD*%
D17*
%TO.C,J1*%
X99695000Y-78960000D03*
X92075000Y-78960000D03*
D18*
X95885000Y-83410000D03*
X104135000Y-89120000D03*
%TD*%
D19*
%TO.C,C1*%
X126137500Y-66675000D03*
X127862500Y-66675000D03*
%TD*%
M02*
